G04 #@! TF.GenerationSoftware,KiCad,Pcbnew,(5.1.9)-1*
G04 #@! TF.CreationDate,2021-03-01T16:48:06-06:00*
G04 #@! TF.ProjectId,SW2,5357322e-6b69-4636-9164-5f7063625858,rev?*
G04 #@! TF.SameCoordinates,Original*
G04 #@! TF.FileFunction,Copper,L1,Top*
G04 #@! TF.FilePolarity,Positive*
%FSLAX46Y46*%
G04 Gerber Fmt 4.6, Leading zero omitted, Abs format (unit mm)*
G04 Created by KiCad (PCBNEW (5.1.9)-1) date 2021-03-01 16:48:06*
%MOMM*%
%LPD*%
G01*
G04 APERTURE LIST*
G04 #@! TA.AperFunction,ComponentPad*
%ADD10O,2.200000X2.200000*%
G04 #@! TD*
G04 #@! TA.AperFunction,ComponentPad*
%ADD11R,2.200000X2.200000*%
G04 #@! TD*
G04 #@! TA.AperFunction,ComponentPad*
%ADD12C,3.048000*%
G04 #@! TD*
G04 #@! TA.AperFunction,ComponentPad*
%ADD13C,2.600000*%
G04 #@! TD*
G04 #@! TA.AperFunction,ComponentPad*
%ADD14R,2.600000X2.600000*%
G04 #@! TD*
G04 #@! TA.AperFunction,ComponentPad*
%ADD15O,1.600000X1.600000*%
G04 #@! TD*
G04 #@! TA.AperFunction,ComponentPad*
%ADD16R,1.600000X1.600000*%
G04 #@! TD*
G04 #@! TA.AperFunction,Conductor*
%ADD17C,1.270000*%
G04 #@! TD*
G04 APERTURE END LIST*
D10*
X109905800Y-58445400D03*
D11*
X99745800Y-58445400D03*
D12*
X77500000Y-99400000D03*
X77500000Y-94700000D03*
X77500000Y-90000000D03*
D13*
X122580400Y-60803800D03*
D14*
X122580400Y-55803800D03*
D15*
X127609600Y-68594400D03*
X127609600Y-83834400D03*
X92049600Y-68594400D03*
X125069600Y-83834400D03*
X94589600Y-68594400D03*
X122529600Y-83834400D03*
X97129600Y-68594400D03*
X119989600Y-83834400D03*
X99669600Y-68594400D03*
X117449600Y-83834400D03*
X102209600Y-68594400D03*
X114909600Y-83834400D03*
X104749600Y-68594400D03*
X112369600Y-83834400D03*
X107289600Y-68594400D03*
X109829600Y-83834400D03*
X109829600Y-68594400D03*
X107289600Y-83834400D03*
X112369600Y-68594400D03*
X104749600Y-83834400D03*
X114909600Y-68594400D03*
X102209600Y-83834400D03*
X117449600Y-68594400D03*
X99669600Y-83834400D03*
X119989600Y-68594400D03*
X97129600Y-83834400D03*
X122529600Y-68594400D03*
X94589600Y-83834400D03*
X125069600Y-68594400D03*
D16*
X92049600Y-83834400D03*
D12*
X137500000Y-62400000D03*
X137500000Y-57700000D03*
X137500000Y-53000000D03*
X57500000Y-99400000D03*
X57500000Y-94700000D03*
X57500000Y-90000000D03*
X57500000Y-62400000D03*
X57500000Y-57700000D03*
X57500000Y-53000000D03*
X97500000Y-99400000D03*
X97500000Y-94700000D03*
X97500000Y-90000000D03*
X117500000Y-99400000D03*
X117500000Y-94700000D03*
X117500000Y-90000000D03*
X137500000Y-99400000D03*
X137500000Y-94700000D03*
X137500000Y-90000000D03*
D17*
X119989600Y-96910400D02*
X119989600Y-83834400D01*
X117500000Y-99400000D02*
X119989600Y-96910400D01*
X99745800Y-68518200D02*
X99669600Y-68594400D01*
X99745800Y-58445400D02*
X99745800Y-68518200D01*
X112369600Y-84530400D02*
X112369600Y-83834400D01*
X97500000Y-99400000D02*
X112369600Y-84530400D01*
X107289600Y-68594400D02*
X104637000Y-71247000D01*
X66347000Y-71247000D02*
X57500000Y-62400000D01*
X104637000Y-71247000D02*
X66347000Y-71247000D01*
X57500000Y-90000000D02*
X66550200Y-80949800D01*
X106945000Y-80949800D02*
X109829600Y-83834400D01*
X66550200Y-80949800D02*
X106945000Y-80949800D01*
X130454400Y-84259398D02*
X118962813Y-72767811D01*
X114003011Y-72767811D02*
X109829600Y-68594400D01*
X137500000Y-99400000D02*
X130454400Y-92354400D01*
X130454400Y-92354400D02*
X130454400Y-84259398D01*
X118962813Y-72767811D02*
X114003011Y-72767811D01*
X89259001Y-87640999D02*
X99172599Y-87640999D01*
X77500000Y-99400000D02*
X89259001Y-87640999D01*
X99172599Y-87640999D02*
X99183598Y-87630000D01*
X103494000Y-87630000D02*
X107289600Y-83834400D01*
X99183598Y-87630000D02*
X103494000Y-87630000D01*
X137500000Y-62400000D02*
X128602200Y-71297800D01*
X128602200Y-71297800D02*
X115073000Y-71297800D01*
X115073000Y-71297800D02*
X112369600Y-68594400D01*
X57500000Y-99400000D02*
X70794000Y-86106000D01*
X102478000Y-86106000D02*
X104749600Y-83834400D01*
X70794000Y-86106000D02*
X102478000Y-86106000D01*
X137500000Y-53000000D02*
X126669800Y-63830200D01*
X119673800Y-63830200D02*
X114909600Y-68594400D01*
X126669800Y-63830200D02*
X119673800Y-63830200D01*
X112547400Y-55803800D02*
X109905800Y-58445400D01*
X122580400Y-55803800D02*
X112547400Y-55803800D01*
M02*
