G04 #@! TF.GenerationSoftware,KiCad,Pcbnew,(5.1.9)-1*
G04 #@! TF.CreationDate,2021-03-01T16:48:06-06:00*
G04 #@! TF.ProjectId,SW2,5357322e-6b69-4636-9164-5f7063625858,rev?*
G04 #@! TF.SameCoordinates,Original*
G04 #@! TF.FileFunction,Legend,Bot*
G04 #@! TF.FilePolarity,Positive*
%FSLAX46Y46*%
G04 Gerber Fmt 4.6, Leading zero omitted, Abs format (unit mm)*
G04 Created by KiCad (PCBNEW (5.1.9)-1) date 2021-03-01 16:48:06*
%MOMM*%
%LPD*%
G01*
G04 APERTURE LIST*
%ADD10C,0.300000*%
G04 APERTURE END LIST*
D10*
X106536628Y-55674342D02*
X106322342Y-55745771D01*
X105965200Y-55745771D01*
X105822342Y-55674342D01*
X105750914Y-55602914D01*
X105679485Y-55460057D01*
X105679485Y-55317200D01*
X105750914Y-55174342D01*
X105822342Y-55102914D01*
X105965200Y-55031485D01*
X106250914Y-54960057D01*
X106393771Y-54888628D01*
X106465200Y-54817200D01*
X106536628Y-54674342D01*
X106536628Y-54531485D01*
X106465200Y-54388628D01*
X106393771Y-54317200D01*
X106250914Y-54245771D01*
X105893771Y-54245771D01*
X105679485Y-54317200D01*
X105179485Y-54745771D02*
X104893771Y-55745771D01*
X104608057Y-55031485D01*
X104322342Y-55745771D01*
X104036628Y-54745771D01*
X103465200Y-55745771D02*
X103465200Y-54745771D01*
X103465200Y-54245771D02*
X103536628Y-54317200D01*
X103465200Y-54388628D01*
X103393771Y-54317200D01*
X103465200Y-54245771D01*
X103465200Y-54388628D01*
X102965200Y-54745771D02*
X102393771Y-54745771D01*
X102750914Y-54245771D02*
X102750914Y-55531485D01*
X102679485Y-55674342D01*
X102536628Y-55745771D01*
X102393771Y-55745771D01*
X101250914Y-55674342D02*
X101393771Y-55745771D01*
X101679485Y-55745771D01*
X101822342Y-55674342D01*
X101893771Y-55602914D01*
X101965200Y-55460057D01*
X101965200Y-55031485D01*
X101893771Y-54888628D01*
X101822342Y-54817200D01*
X101679485Y-54745771D01*
X101393771Y-54745771D01*
X101250914Y-54817200D01*
X100608057Y-55745771D02*
X100608057Y-54245771D01*
X99965200Y-55745771D02*
X99965200Y-54960057D01*
X100036628Y-54817200D01*
X100179485Y-54745771D01*
X100393771Y-54745771D01*
X100536628Y-54817200D01*
X100608057Y-54888628D01*
X98679485Y-55674342D02*
X98822342Y-55745771D01*
X99108057Y-55745771D01*
X99250914Y-55674342D01*
X99322342Y-55531485D01*
X99322342Y-54960057D01*
X99250914Y-54817200D01*
X99108057Y-54745771D01*
X98822342Y-54745771D01*
X98679485Y-54817200D01*
X98608057Y-54960057D01*
X98608057Y-55102914D01*
X99322342Y-55245771D01*
X98036628Y-55674342D02*
X97893771Y-55745771D01*
X97608057Y-55745771D01*
X97465200Y-55674342D01*
X97393771Y-55531485D01*
X97393771Y-55460057D01*
X97465200Y-55317200D01*
X97608057Y-55245771D01*
X97822342Y-55245771D01*
X97965200Y-55174342D01*
X98036628Y-55031485D01*
X98036628Y-54960057D01*
X97965200Y-54817200D01*
X97822342Y-54745771D01*
X97608057Y-54745771D01*
X97465200Y-54817200D01*
X95822342Y-54245771D02*
X94965200Y-54245771D01*
X95393771Y-55745771D02*
X95393771Y-54245771D01*
X94465200Y-55745771D02*
X94465200Y-54245771D01*
X93822342Y-55745771D02*
X93822342Y-54960057D01*
X93893771Y-54817200D01*
X94036628Y-54745771D01*
X94250914Y-54745771D01*
X94393771Y-54817200D01*
X94465200Y-54888628D01*
X93108057Y-55745771D02*
X93108057Y-54745771D01*
X93108057Y-54245771D02*
X93179485Y-54317200D01*
X93108057Y-54388628D01*
X93036628Y-54317200D01*
X93108057Y-54245771D01*
X93108057Y-54388628D01*
X92465200Y-55674342D02*
X92322342Y-55745771D01*
X92036628Y-55745771D01*
X91893771Y-55674342D01*
X91822342Y-55531485D01*
X91822342Y-55460057D01*
X91893771Y-55317200D01*
X92036628Y-55245771D01*
X92250914Y-55245771D01*
X92393771Y-55174342D01*
X92465200Y-55031485D01*
X92465200Y-54960057D01*
X92393771Y-54817200D01*
X92250914Y-54745771D01*
X92036628Y-54745771D01*
X91893771Y-54817200D01*
X90108057Y-55674342D02*
X89893771Y-55745771D01*
X89536628Y-55745771D01*
X89393771Y-55674342D01*
X89322342Y-55602914D01*
X89250914Y-55460057D01*
X89250914Y-55317200D01*
X89322342Y-55174342D01*
X89393771Y-55102914D01*
X89536628Y-55031485D01*
X89822342Y-54960057D01*
X89965200Y-54888628D01*
X90036628Y-54817200D01*
X90108057Y-54674342D01*
X90108057Y-54531485D01*
X90036628Y-54388628D01*
X89965200Y-54317200D01*
X89822342Y-54245771D01*
X89465200Y-54245771D01*
X89250914Y-54317200D01*
X88608057Y-55745771D02*
X88608057Y-54745771D01*
X88608057Y-54245771D02*
X88679485Y-54317200D01*
X88608057Y-54388628D01*
X88536628Y-54317200D01*
X88608057Y-54245771D01*
X88608057Y-54388628D01*
X87250914Y-55745771D02*
X87250914Y-54245771D01*
X87250914Y-55674342D02*
X87393771Y-55745771D01*
X87679485Y-55745771D01*
X87822342Y-55674342D01*
X87893771Y-55602914D01*
X87965200Y-55460057D01*
X87965200Y-55031485D01*
X87893771Y-54888628D01*
X87822342Y-54817200D01*
X87679485Y-54745771D01*
X87393771Y-54745771D01*
X87250914Y-54817200D01*
X85965200Y-55674342D02*
X86108057Y-55745771D01*
X86393771Y-55745771D01*
X86536628Y-55674342D01*
X86608057Y-55531485D01*
X86608057Y-54960057D01*
X86536628Y-54817200D01*
X86393771Y-54745771D01*
X86108057Y-54745771D01*
X85965200Y-54817200D01*
X85893771Y-54960057D01*
X85893771Y-55102914D01*
X86608057Y-55245771D01*
X98889914Y-51527971D02*
X98032771Y-51527971D01*
X98461342Y-53027971D02*
X98461342Y-51527971D01*
X97318485Y-53027971D02*
X97461342Y-52956542D01*
X97532771Y-52885114D01*
X97604200Y-52742257D01*
X97604200Y-52313685D01*
X97532771Y-52170828D01*
X97461342Y-52099400D01*
X97318485Y-52027971D01*
X97104200Y-52027971D01*
X96961342Y-52099400D01*
X96889914Y-52170828D01*
X96818485Y-52313685D01*
X96818485Y-52742257D01*
X96889914Y-52885114D01*
X96961342Y-52956542D01*
X97104200Y-53027971D01*
X97318485Y-53027971D01*
X96175628Y-52027971D02*
X96175628Y-53527971D01*
X96175628Y-52099400D02*
X96032771Y-52027971D01*
X95747057Y-52027971D01*
X95604200Y-52099400D01*
X95532771Y-52170828D01*
X95461342Y-52313685D01*
X95461342Y-52742257D01*
X95532771Y-52885114D01*
X95604200Y-52956542D01*
X95747057Y-53027971D01*
X96032771Y-53027971D01*
X96175628Y-52956542D01*
M02*
