G04 #@! TF.GenerationSoftware,KiCad,Pcbnew,(5.1.9)-1*
G04 #@! TF.CreationDate,2021-03-01T16:48:06-06:00*
G04 #@! TF.ProjectId,SW2,5357322e-6b69-4636-9164-5f7063625858,rev?*
G04 #@! TF.SameCoordinates,Original*
G04 #@! TF.FileFunction,Copper,L2,Bot*
G04 #@! TF.FilePolarity,Positive*
%FSLAX46Y46*%
G04 Gerber Fmt 4.6, Leading zero omitted, Abs format (unit mm)*
G04 Created by KiCad (PCBNEW (5.1.9)-1) date 2021-03-01 16:48:06*
%MOMM*%
%LPD*%
G01*
G04 APERTURE LIST*
G04 #@! TA.AperFunction,ComponentPad*
%ADD10O,2.200000X2.200000*%
G04 #@! TD*
G04 #@! TA.AperFunction,ComponentPad*
%ADD11R,2.200000X2.200000*%
G04 #@! TD*
G04 #@! TA.AperFunction,ComponentPad*
%ADD12C,3.048000*%
G04 #@! TD*
G04 #@! TA.AperFunction,ComponentPad*
%ADD13C,2.600000*%
G04 #@! TD*
G04 #@! TA.AperFunction,ComponentPad*
%ADD14R,2.600000X2.600000*%
G04 #@! TD*
G04 #@! TA.AperFunction,ComponentPad*
%ADD15O,1.600000X1.600000*%
G04 #@! TD*
G04 #@! TA.AperFunction,ComponentPad*
%ADD16R,1.600000X1.600000*%
G04 #@! TD*
G04 #@! TA.AperFunction,Conductor*
%ADD17C,0.254000*%
G04 #@! TD*
G04 #@! TA.AperFunction,Conductor*
%ADD18C,0.100000*%
G04 #@! TD*
G04 APERTURE END LIST*
D10*
X109905800Y-58445400D03*
D11*
X99745800Y-58445400D03*
D12*
X77500000Y-99400000D03*
X77500000Y-94700000D03*
X77500000Y-90000000D03*
D13*
X122580400Y-60803800D03*
D14*
X122580400Y-55803800D03*
D15*
X127609600Y-68594400D03*
X127609600Y-83834400D03*
X92049600Y-68594400D03*
X125069600Y-83834400D03*
X94589600Y-68594400D03*
X122529600Y-83834400D03*
X97129600Y-68594400D03*
X119989600Y-83834400D03*
X99669600Y-68594400D03*
X117449600Y-83834400D03*
X102209600Y-68594400D03*
X114909600Y-83834400D03*
X104749600Y-68594400D03*
X112369600Y-83834400D03*
X107289600Y-68594400D03*
X109829600Y-83834400D03*
X109829600Y-68594400D03*
X107289600Y-83834400D03*
X112369600Y-68594400D03*
X104749600Y-83834400D03*
X114909600Y-68594400D03*
X102209600Y-83834400D03*
X117449600Y-68594400D03*
X99669600Y-83834400D03*
X119989600Y-68594400D03*
X97129600Y-83834400D03*
X122529600Y-68594400D03*
X94589600Y-83834400D03*
X125069600Y-68594400D03*
D16*
X92049600Y-83834400D03*
D12*
X137500000Y-62400000D03*
X137500000Y-57700000D03*
X137500000Y-53000000D03*
X57500000Y-99400000D03*
X57500000Y-94700000D03*
X57500000Y-90000000D03*
X57500000Y-62400000D03*
X57500000Y-57700000D03*
X57500000Y-53000000D03*
X97500000Y-99400000D03*
X97500000Y-94700000D03*
X97500000Y-90000000D03*
X117500000Y-99400000D03*
X117500000Y-94700000D03*
X117500000Y-90000000D03*
X137500000Y-99400000D03*
X137500000Y-94700000D03*
X137500000Y-90000000D03*
D17*
X54966353Y-50685000D02*
X140033647Y-50685000D01*
X140127955Y-50675711D01*
X140259659Y-50688625D01*
X140509429Y-50764035D01*
X140531054Y-50775533D01*
X141316279Y-51953370D01*
X141315000Y-51966354D01*
X141315001Y-99586018D01*
X140487019Y-101241983D01*
X140268805Y-101309531D01*
X140128181Y-101324311D01*
X140033647Y-101315000D01*
X138518520Y-101315000D01*
X138522670Y-101313281D01*
X138876282Y-101077004D01*
X139177004Y-100776282D01*
X139413281Y-100422670D01*
X139576030Y-100029757D01*
X139659000Y-99612643D01*
X139659000Y-99187357D01*
X139576030Y-98770243D01*
X139413281Y-98377330D01*
X139177004Y-98023718D01*
X138876282Y-97722996D01*
X138522670Y-97486719D01*
X138129757Y-97323970D01*
X137712643Y-97241000D01*
X137287357Y-97241000D01*
X136870243Y-97323970D01*
X136477330Y-97486719D01*
X136123718Y-97722996D01*
X135822996Y-98023718D01*
X135586719Y-98377330D01*
X135423970Y-98770243D01*
X135341000Y-99187357D01*
X135341000Y-99612643D01*
X135423970Y-100029757D01*
X135586719Y-100422670D01*
X135822996Y-100776282D01*
X136123718Y-101077004D01*
X136477330Y-101313281D01*
X136481480Y-101315000D01*
X118518520Y-101315000D01*
X118522670Y-101313281D01*
X118876282Y-101077004D01*
X119177004Y-100776282D01*
X119413281Y-100422670D01*
X119576030Y-100029757D01*
X119659000Y-99612643D01*
X119659000Y-99187357D01*
X119576030Y-98770243D01*
X119413281Y-98377330D01*
X119177004Y-98023718D01*
X118876282Y-97722996D01*
X118522670Y-97486719D01*
X118129757Y-97323970D01*
X117712643Y-97241000D01*
X117287357Y-97241000D01*
X116870243Y-97323970D01*
X116477330Y-97486719D01*
X116123718Y-97722996D01*
X115822996Y-98023718D01*
X115586719Y-98377330D01*
X115423970Y-98770243D01*
X115341000Y-99187357D01*
X115341000Y-99612643D01*
X115423970Y-100029757D01*
X115586719Y-100422670D01*
X115822996Y-100776282D01*
X116123718Y-101077004D01*
X116477330Y-101313281D01*
X116481480Y-101315000D01*
X98518520Y-101315000D01*
X98522670Y-101313281D01*
X98876282Y-101077004D01*
X99177004Y-100776282D01*
X99413281Y-100422670D01*
X99576030Y-100029757D01*
X99659000Y-99612643D01*
X99659000Y-99187357D01*
X99576030Y-98770243D01*
X99413281Y-98377330D01*
X99177004Y-98023718D01*
X98876282Y-97722996D01*
X98522670Y-97486719D01*
X98129757Y-97323970D01*
X97712643Y-97241000D01*
X97287357Y-97241000D01*
X96870243Y-97323970D01*
X96477330Y-97486719D01*
X96123718Y-97722996D01*
X95822996Y-98023718D01*
X95586719Y-98377330D01*
X95423970Y-98770243D01*
X95341000Y-99187357D01*
X95341000Y-99612643D01*
X95423970Y-100029757D01*
X95586719Y-100422670D01*
X95822996Y-100776282D01*
X96123718Y-101077004D01*
X96477330Y-101313281D01*
X96481480Y-101315000D01*
X78518520Y-101315000D01*
X78522670Y-101313281D01*
X78876282Y-101077004D01*
X79177004Y-100776282D01*
X79413281Y-100422670D01*
X79576030Y-100029757D01*
X79659000Y-99612643D01*
X79659000Y-99187357D01*
X79576030Y-98770243D01*
X79413281Y-98377330D01*
X79177004Y-98023718D01*
X78876282Y-97722996D01*
X78522670Y-97486719D01*
X78129757Y-97323970D01*
X77712643Y-97241000D01*
X77287357Y-97241000D01*
X76870243Y-97323970D01*
X76477330Y-97486719D01*
X76123718Y-97722996D01*
X75822996Y-98023718D01*
X75586719Y-98377330D01*
X75423970Y-98770243D01*
X75341000Y-99187357D01*
X75341000Y-99612643D01*
X75423970Y-100029757D01*
X75586719Y-100422670D01*
X75822996Y-100776282D01*
X76123718Y-101077004D01*
X76477330Y-101313281D01*
X76481480Y-101315000D01*
X58518520Y-101315000D01*
X58522670Y-101313281D01*
X58876282Y-101077004D01*
X59177004Y-100776282D01*
X59413281Y-100422670D01*
X59576030Y-100029757D01*
X59659000Y-99612643D01*
X59659000Y-99187357D01*
X59576030Y-98770243D01*
X59413281Y-98377330D01*
X59177004Y-98023718D01*
X58876282Y-97722996D01*
X58522670Y-97486719D01*
X58129757Y-97323970D01*
X57712643Y-97241000D01*
X57287357Y-97241000D01*
X56870243Y-97323970D01*
X56477330Y-97486719D01*
X56123718Y-97722996D01*
X55822996Y-98023718D01*
X55586719Y-98377330D01*
X55423970Y-98770243D01*
X55341000Y-99187357D01*
X55341000Y-99612643D01*
X55423970Y-100029757D01*
X55586719Y-100422670D01*
X55822996Y-100776282D01*
X56123718Y-101077004D01*
X56477330Y-101313281D01*
X56481480Y-101315000D01*
X54966353Y-101315000D01*
X54873922Y-101324104D01*
X54290727Y-101129706D01*
X54260206Y-101113477D01*
X54058021Y-100948579D01*
X53891712Y-100747546D01*
X53767622Y-100518046D01*
X53690469Y-100268805D01*
X53675689Y-100128181D01*
X53685000Y-100033647D01*
X53685000Y-96208740D01*
X56170865Y-96208740D01*
X56329764Y-96526758D01*
X56708632Y-96719959D01*
X57117913Y-96835534D01*
X57541876Y-96869042D01*
X57964230Y-96819194D01*
X58368744Y-96687908D01*
X58670236Y-96526758D01*
X58829135Y-96208740D01*
X76170865Y-96208740D01*
X76329764Y-96526758D01*
X76708632Y-96719959D01*
X77117913Y-96835534D01*
X77541876Y-96869042D01*
X77964230Y-96819194D01*
X78368744Y-96687908D01*
X78670236Y-96526758D01*
X78829135Y-96208740D01*
X96170865Y-96208740D01*
X96329764Y-96526758D01*
X96708632Y-96719959D01*
X97117913Y-96835534D01*
X97541876Y-96869042D01*
X97964230Y-96819194D01*
X98368744Y-96687908D01*
X98670236Y-96526758D01*
X98829135Y-96208740D01*
X116170865Y-96208740D01*
X116329764Y-96526758D01*
X116708632Y-96719959D01*
X117117913Y-96835534D01*
X117541876Y-96869042D01*
X117964230Y-96819194D01*
X118368744Y-96687908D01*
X118670236Y-96526758D01*
X118829135Y-96208740D01*
X136170865Y-96208740D01*
X136329764Y-96526758D01*
X136708632Y-96719959D01*
X137117913Y-96835534D01*
X137541876Y-96869042D01*
X137964230Y-96819194D01*
X138368744Y-96687908D01*
X138670236Y-96526758D01*
X138829135Y-96208740D01*
X137500000Y-94879605D01*
X136170865Y-96208740D01*
X118829135Y-96208740D01*
X117500000Y-94879605D01*
X116170865Y-96208740D01*
X98829135Y-96208740D01*
X97500000Y-94879605D01*
X96170865Y-96208740D01*
X78829135Y-96208740D01*
X77500000Y-94879605D01*
X76170865Y-96208740D01*
X58829135Y-96208740D01*
X57500000Y-94879605D01*
X56170865Y-96208740D01*
X53685000Y-96208740D01*
X53685000Y-94741876D01*
X55330958Y-94741876D01*
X55380806Y-95164230D01*
X55512092Y-95568744D01*
X55673242Y-95870236D01*
X55991260Y-96029135D01*
X57320395Y-94700000D01*
X57679605Y-94700000D01*
X59008740Y-96029135D01*
X59326758Y-95870236D01*
X59519959Y-95491368D01*
X59635534Y-95082087D01*
X59662422Y-94741876D01*
X75330958Y-94741876D01*
X75380806Y-95164230D01*
X75512092Y-95568744D01*
X75673242Y-95870236D01*
X75991260Y-96029135D01*
X77320395Y-94700000D01*
X77679605Y-94700000D01*
X79008740Y-96029135D01*
X79326758Y-95870236D01*
X79519959Y-95491368D01*
X79635534Y-95082087D01*
X79662422Y-94741876D01*
X95330958Y-94741876D01*
X95380806Y-95164230D01*
X95512092Y-95568744D01*
X95673242Y-95870236D01*
X95991260Y-96029135D01*
X97320395Y-94700000D01*
X97679605Y-94700000D01*
X99008740Y-96029135D01*
X99326758Y-95870236D01*
X99519959Y-95491368D01*
X99635534Y-95082087D01*
X99662422Y-94741876D01*
X115330958Y-94741876D01*
X115380806Y-95164230D01*
X115512092Y-95568744D01*
X115673242Y-95870236D01*
X115991260Y-96029135D01*
X117320395Y-94700000D01*
X117679605Y-94700000D01*
X119008740Y-96029135D01*
X119326758Y-95870236D01*
X119519959Y-95491368D01*
X119635534Y-95082087D01*
X119662422Y-94741876D01*
X135330958Y-94741876D01*
X135380806Y-95164230D01*
X135512092Y-95568744D01*
X135673242Y-95870236D01*
X135991260Y-96029135D01*
X137320395Y-94700000D01*
X137679605Y-94700000D01*
X139008740Y-96029135D01*
X139326758Y-95870236D01*
X139519959Y-95491368D01*
X139635534Y-95082087D01*
X139669042Y-94658124D01*
X139619194Y-94235770D01*
X139487908Y-93831256D01*
X139326758Y-93529764D01*
X139008740Y-93370865D01*
X137679605Y-94700000D01*
X137320395Y-94700000D01*
X135991260Y-93370865D01*
X135673242Y-93529764D01*
X135480041Y-93908632D01*
X135364466Y-94317913D01*
X135330958Y-94741876D01*
X119662422Y-94741876D01*
X119669042Y-94658124D01*
X119619194Y-94235770D01*
X119487908Y-93831256D01*
X119326758Y-93529764D01*
X119008740Y-93370865D01*
X117679605Y-94700000D01*
X117320395Y-94700000D01*
X115991260Y-93370865D01*
X115673242Y-93529764D01*
X115480041Y-93908632D01*
X115364466Y-94317913D01*
X115330958Y-94741876D01*
X99662422Y-94741876D01*
X99669042Y-94658124D01*
X99619194Y-94235770D01*
X99487908Y-93831256D01*
X99326758Y-93529764D01*
X99008740Y-93370865D01*
X97679605Y-94700000D01*
X97320395Y-94700000D01*
X95991260Y-93370865D01*
X95673242Y-93529764D01*
X95480041Y-93908632D01*
X95364466Y-94317913D01*
X95330958Y-94741876D01*
X79662422Y-94741876D01*
X79669042Y-94658124D01*
X79619194Y-94235770D01*
X79487908Y-93831256D01*
X79326758Y-93529764D01*
X79008740Y-93370865D01*
X77679605Y-94700000D01*
X77320395Y-94700000D01*
X75991260Y-93370865D01*
X75673242Y-93529764D01*
X75480041Y-93908632D01*
X75364466Y-94317913D01*
X75330958Y-94741876D01*
X59662422Y-94741876D01*
X59669042Y-94658124D01*
X59619194Y-94235770D01*
X59487908Y-93831256D01*
X59326758Y-93529764D01*
X59008740Y-93370865D01*
X57679605Y-94700000D01*
X57320395Y-94700000D01*
X55991260Y-93370865D01*
X55673242Y-93529764D01*
X55480041Y-93908632D01*
X55364466Y-94317913D01*
X55330958Y-94741876D01*
X53685000Y-94741876D01*
X53685000Y-93191260D01*
X56170865Y-93191260D01*
X57500000Y-94520395D01*
X58829135Y-93191260D01*
X76170865Y-93191260D01*
X77500000Y-94520395D01*
X78829135Y-93191260D01*
X96170865Y-93191260D01*
X97500000Y-94520395D01*
X98829135Y-93191260D01*
X116170865Y-93191260D01*
X117500000Y-94520395D01*
X118829135Y-93191260D01*
X136170865Y-93191260D01*
X137500000Y-94520395D01*
X138829135Y-93191260D01*
X138670236Y-92873242D01*
X138291368Y-92680041D01*
X137882087Y-92564466D01*
X137458124Y-92530958D01*
X137035770Y-92580806D01*
X136631256Y-92712092D01*
X136329764Y-92873242D01*
X136170865Y-93191260D01*
X118829135Y-93191260D01*
X118670236Y-92873242D01*
X118291368Y-92680041D01*
X117882087Y-92564466D01*
X117458124Y-92530958D01*
X117035770Y-92580806D01*
X116631256Y-92712092D01*
X116329764Y-92873242D01*
X116170865Y-93191260D01*
X98829135Y-93191260D01*
X98670236Y-92873242D01*
X98291368Y-92680041D01*
X97882087Y-92564466D01*
X97458124Y-92530958D01*
X97035770Y-92580806D01*
X96631256Y-92712092D01*
X96329764Y-92873242D01*
X96170865Y-93191260D01*
X78829135Y-93191260D01*
X78670236Y-92873242D01*
X78291368Y-92680041D01*
X77882087Y-92564466D01*
X77458124Y-92530958D01*
X77035770Y-92580806D01*
X76631256Y-92712092D01*
X76329764Y-92873242D01*
X76170865Y-93191260D01*
X58829135Y-93191260D01*
X58670236Y-92873242D01*
X58291368Y-92680041D01*
X57882087Y-92564466D01*
X57458124Y-92530958D01*
X57035770Y-92580806D01*
X56631256Y-92712092D01*
X56329764Y-92873242D01*
X56170865Y-93191260D01*
X53685000Y-93191260D01*
X53685000Y-89787357D01*
X55341000Y-89787357D01*
X55341000Y-90212643D01*
X55423970Y-90629757D01*
X55586719Y-91022670D01*
X55822996Y-91376282D01*
X56123718Y-91677004D01*
X56477330Y-91913281D01*
X56870243Y-92076030D01*
X57287357Y-92159000D01*
X57712643Y-92159000D01*
X58129757Y-92076030D01*
X58522670Y-91913281D01*
X58876282Y-91677004D01*
X59177004Y-91376282D01*
X59413281Y-91022670D01*
X59576030Y-90629757D01*
X59659000Y-90212643D01*
X59659000Y-89787357D01*
X75341000Y-89787357D01*
X75341000Y-90212643D01*
X75423970Y-90629757D01*
X75586719Y-91022670D01*
X75822996Y-91376282D01*
X76123718Y-91677004D01*
X76477330Y-91913281D01*
X76870243Y-92076030D01*
X77287357Y-92159000D01*
X77712643Y-92159000D01*
X78129757Y-92076030D01*
X78522670Y-91913281D01*
X78876282Y-91677004D01*
X79177004Y-91376282D01*
X79413281Y-91022670D01*
X79576030Y-90629757D01*
X79659000Y-90212643D01*
X79659000Y-89787357D01*
X95341000Y-89787357D01*
X95341000Y-90212643D01*
X95423970Y-90629757D01*
X95586719Y-91022670D01*
X95822996Y-91376282D01*
X96123718Y-91677004D01*
X96477330Y-91913281D01*
X96870243Y-92076030D01*
X97287357Y-92159000D01*
X97712643Y-92159000D01*
X98129757Y-92076030D01*
X98522670Y-91913281D01*
X98876282Y-91677004D01*
X99177004Y-91376282D01*
X99413281Y-91022670D01*
X99576030Y-90629757D01*
X99659000Y-90212643D01*
X99659000Y-89787357D01*
X115341000Y-89787357D01*
X115341000Y-90212643D01*
X115423970Y-90629757D01*
X115586719Y-91022670D01*
X115822996Y-91376282D01*
X116123718Y-91677004D01*
X116477330Y-91913281D01*
X116870243Y-92076030D01*
X117287357Y-92159000D01*
X117712643Y-92159000D01*
X118129757Y-92076030D01*
X118522670Y-91913281D01*
X118876282Y-91677004D01*
X119177004Y-91376282D01*
X119413281Y-91022670D01*
X119576030Y-90629757D01*
X119659000Y-90212643D01*
X119659000Y-89787357D01*
X135341000Y-89787357D01*
X135341000Y-90212643D01*
X135423970Y-90629757D01*
X135586719Y-91022670D01*
X135822996Y-91376282D01*
X136123718Y-91677004D01*
X136477330Y-91913281D01*
X136870243Y-92076030D01*
X137287357Y-92159000D01*
X137712643Y-92159000D01*
X138129757Y-92076030D01*
X138522670Y-91913281D01*
X138876282Y-91677004D01*
X139177004Y-91376282D01*
X139413281Y-91022670D01*
X139576030Y-90629757D01*
X139659000Y-90212643D01*
X139659000Y-89787357D01*
X139576030Y-89370243D01*
X139413281Y-88977330D01*
X139177004Y-88623718D01*
X138876282Y-88322996D01*
X138522670Y-88086719D01*
X138129757Y-87923970D01*
X137712643Y-87841000D01*
X137287357Y-87841000D01*
X136870243Y-87923970D01*
X136477330Y-88086719D01*
X136123718Y-88322996D01*
X135822996Y-88623718D01*
X135586719Y-88977330D01*
X135423970Y-89370243D01*
X135341000Y-89787357D01*
X119659000Y-89787357D01*
X119576030Y-89370243D01*
X119413281Y-88977330D01*
X119177004Y-88623718D01*
X118876282Y-88322996D01*
X118522670Y-88086719D01*
X118129757Y-87923970D01*
X117712643Y-87841000D01*
X117287357Y-87841000D01*
X116870243Y-87923970D01*
X116477330Y-88086719D01*
X116123718Y-88322996D01*
X115822996Y-88623718D01*
X115586719Y-88977330D01*
X115423970Y-89370243D01*
X115341000Y-89787357D01*
X99659000Y-89787357D01*
X99576030Y-89370243D01*
X99413281Y-88977330D01*
X99177004Y-88623718D01*
X98876282Y-88322996D01*
X98522670Y-88086719D01*
X98129757Y-87923970D01*
X97712643Y-87841000D01*
X97287357Y-87841000D01*
X96870243Y-87923970D01*
X96477330Y-88086719D01*
X96123718Y-88322996D01*
X95822996Y-88623718D01*
X95586719Y-88977330D01*
X95423970Y-89370243D01*
X95341000Y-89787357D01*
X79659000Y-89787357D01*
X79576030Y-89370243D01*
X79413281Y-88977330D01*
X79177004Y-88623718D01*
X78876282Y-88322996D01*
X78522670Y-88086719D01*
X78129757Y-87923970D01*
X77712643Y-87841000D01*
X77287357Y-87841000D01*
X76870243Y-87923970D01*
X76477330Y-88086719D01*
X76123718Y-88322996D01*
X75822996Y-88623718D01*
X75586719Y-88977330D01*
X75423970Y-89370243D01*
X75341000Y-89787357D01*
X59659000Y-89787357D01*
X59576030Y-89370243D01*
X59413281Y-88977330D01*
X59177004Y-88623718D01*
X58876282Y-88322996D01*
X58522670Y-88086719D01*
X58129757Y-87923970D01*
X57712643Y-87841000D01*
X57287357Y-87841000D01*
X56870243Y-87923970D01*
X56477330Y-88086719D01*
X56123718Y-88322996D01*
X55822996Y-88623718D01*
X55586719Y-88977330D01*
X55423970Y-89370243D01*
X55341000Y-89787357D01*
X53685000Y-89787357D01*
X53685000Y-83034400D01*
X90611528Y-83034400D01*
X90611528Y-84634400D01*
X90623788Y-84758882D01*
X90660098Y-84878580D01*
X90719063Y-84988894D01*
X90798415Y-85085585D01*
X90895106Y-85164937D01*
X91005420Y-85223902D01*
X91125118Y-85260212D01*
X91249600Y-85272472D01*
X92849600Y-85272472D01*
X92974082Y-85260212D01*
X93093780Y-85223902D01*
X93204094Y-85164937D01*
X93300785Y-85085585D01*
X93380137Y-84988894D01*
X93439102Y-84878580D01*
X93475412Y-84758882D01*
X93476243Y-84750439D01*
X93674841Y-84949037D01*
X93909873Y-85106080D01*
X94171026Y-85214253D01*
X94448265Y-85269400D01*
X94730935Y-85269400D01*
X95008174Y-85214253D01*
X95269327Y-85106080D01*
X95504359Y-84949037D01*
X95704237Y-84749159D01*
X95859600Y-84516641D01*
X96014963Y-84749159D01*
X96214841Y-84949037D01*
X96449873Y-85106080D01*
X96711026Y-85214253D01*
X96988265Y-85269400D01*
X97270935Y-85269400D01*
X97548174Y-85214253D01*
X97809327Y-85106080D01*
X98044359Y-84949037D01*
X98244237Y-84749159D01*
X98401280Y-84514127D01*
X98405667Y-84503535D01*
X98517215Y-84689531D01*
X98706186Y-84897919D01*
X98932180Y-85065437D01*
X99186513Y-85185646D01*
X99320561Y-85226304D01*
X99542600Y-85104315D01*
X99542600Y-83961400D01*
X99522600Y-83961400D01*
X99522600Y-83707400D01*
X99542600Y-83707400D01*
X99542600Y-82564485D01*
X99796600Y-82564485D01*
X99796600Y-83707400D01*
X99816600Y-83707400D01*
X99816600Y-83961400D01*
X99796600Y-83961400D01*
X99796600Y-85104315D01*
X100018639Y-85226304D01*
X100152687Y-85185646D01*
X100407020Y-85065437D01*
X100633014Y-84897919D01*
X100821985Y-84689531D01*
X100933533Y-84503535D01*
X100937920Y-84514127D01*
X101094963Y-84749159D01*
X101294841Y-84949037D01*
X101529873Y-85106080D01*
X101791026Y-85214253D01*
X102068265Y-85269400D01*
X102350935Y-85269400D01*
X102628174Y-85214253D01*
X102889327Y-85106080D01*
X103124359Y-84949037D01*
X103324237Y-84749159D01*
X103479600Y-84516641D01*
X103634963Y-84749159D01*
X103834841Y-84949037D01*
X104069873Y-85106080D01*
X104331026Y-85214253D01*
X104608265Y-85269400D01*
X104890935Y-85269400D01*
X105168174Y-85214253D01*
X105429327Y-85106080D01*
X105664359Y-84949037D01*
X105864237Y-84749159D01*
X106019600Y-84516641D01*
X106174963Y-84749159D01*
X106374841Y-84949037D01*
X106609873Y-85106080D01*
X106871026Y-85214253D01*
X107148265Y-85269400D01*
X107430935Y-85269400D01*
X107708174Y-85214253D01*
X107969327Y-85106080D01*
X108204359Y-84949037D01*
X108404237Y-84749159D01*
X108559600Y-84516641D01*
X108714963Y-84749159D01*
X108914841Y-84949037D01*
X109149873Y-85106080D01*
X109411026Y-85214253D01*
X109688265Y-85269400D01*
X109970935Y-85269400D01*
X110248174Y-85214253D01*
X110509327Y-85106080D01*
X110744359Y-84949037D01*
X110944237Y-84749159D01*
X111099600Y-84516641D01*
X111254963Y-84749159D01*
X111454841Y-84949037D01*
X111689873Y-85106080D01*
X111951026Y-85214253D01*
X112228265Y-85269400D01*
X112510935Y-85269400D01*
X112788174Y-85214253D01*
X113049327Y-85106080D01*
X113284359Y-84949037D01*
X113484237Y-84749159D01*
X113639600Y-84516641D01*
X113794963Y-84749159D01*
X113994841Y-84949037D01*
X114229873Y-85106080D01*
X114491026Y-85214253D01*
X114768265Y-85269400D01*
X115050935Y-85269400D01*
X115328174Y-85214253D01*
X115589327Y-85106080D01*
X115824359Y-84949037D01*
X116024237Y-84749159D01*
X116179600Y-84516641D01*
X116334963Y-84749159D01*
X116534841Y-84949037D01*
X116769873Y-85106080D01*
X117031026Y-85214253D01*
X117308265Y-85269400D01*
X117590935Y-85269400D01*
X117868174Y-85214253D01*
X118129327Y-85106080D01*
X118364359Y-84949037D01*
X118564237Y-84749159D01*
X118719600Y-84516641D01*
X118874963Y-84749159D01*
X119074841Y-84949037D01*
X119309873Y-85106080D01*
X119571026Y-85214253D01*
X119848265Y-85269400D01*
X120130935Y-85269400D01*
X120408174Y-85214253D01*
X120669327Y-85106080D01*
X120904359Y-84949037D01*
X121104237Y-84749159D01*
X121259600Y-84516641D01*
X121414963Y-84749159D01*
X121614841Y-84949037D01*
X121849873Y-85106080D01*
X122111026Y-85214253D01*
X122388265Y-85269400D01*
X122670935Y-85269400D01*
X122948174Y-85214253D01*
X123209327Y-85106080D01*
X123444359Y-84949037D01*
X123644237Y-84749159D01*
X123799600Y-84516641D01*
X123954963Y-84749159D01*
X124154841Y-84949037D01*
X124389873Y-85106080D01*
X124651026Y-85214253D01*
X124928265Y-85269400D01*
X125210935Y-85269400D01*
X125488174Y-85214253D01*
X125749327Y-85106080D01*
X125984359Y-84949037D01*
X126184237Y-84749159D01*
X126339600Y-84516641D01*
X126494963Y-84749159D01*
X126694841Y-84949037D01*
X126929873Y-85106080D01*
X127191026Y-85214253D01*
X127468265Y-85269400D01*
X127750935Y-85269400D01*
X128028174Y-85214253D01*
X128289327Y-85106080D01*
X128524359Y-84949037D01*
X128724237Y-84749159D01*
X128881280Y-84514127D01*
X128989453Y-84252974D01*
X129044600Y-83975735D01*
X129044600Y-83693065D01*
X128989453Y-83415826D01*
X128881280Y-83154673D01*
X128724237Y-82919641D01*
X128524359Y-82719763D01*
X128289327Y-82562720D01*
X128028174Y-82454547D01*
X127750935Y-82399400D01*
X127468265Y-82399400D01*
X127191026Y-82454547D01*
X126929873Y-82562720D01*
X126694841Y-82719763D01*
X126494963Y-82919641D01*
X126339600Y-83152159D01*
X126184237Y-82919641D01*
X125984359Y-82719763D01*
X125749327Y-82562720D01*
X125488174Y-82454547D01*
X125210935Y-82399400D01*
X124928265Y-82399400D01*
X124651026Y-82454547D01*
X124389873Y-82562720D01*
X124154841Y-82719763D01*
X123954963Y-82919641D01*
X123799600Y-83152159D01*
X123644237Y-82919641D01*
X123444359Y-82719763D01*
X123209327Y-82562720D01*
X122948174Y-82454547D01*
X122670935Y-82399400D01*
X122388265Y-82399400D01*
X122111026Y-82454547D01*
X121849873Y-82562720D01*
X121614841Y-82719763D01*
X121414963Y-82919641D01*
X121259600Y-83152159D01*
X121104237Y-82919641D01*
X120904359Y-82719763D01*
X120669327Y-82562720D01*
X120408174Y-82454547D01*
X120130935Y-82399400D01*
X119848265Y-82399400D01*
X119571026Y-82454547D01*
X119309873Y-82562720D01*
X119074841Y-82719763D01*
X118874963Y-82919641D01*
X118719600Y-83152159D01*
X118564237Y-82919641D01*
X118364359Y-82719763D01*
X118129327Y-82562720D01*
X117868174Y-82454547D01*
X117590935Y-82399400D01*
X117308265Y-82399400D01*
X117031026Y-82454547D01*
X116769873Y-82562720D01*
X116534841Y-82719763D01*
X116334963Y-82919641D01*
X116179600Y-83152159D01*
X116024237Y-82919641D01*
X115824359Y-82719763D01*
X115589327Y-82562720D01*
X115328174Y-82454547D01*
X115050935Y-82399400D01*
X114768265Y-82399400D01*
X114491026Y-82454547D01*
X114229873Y-82562720D01*
X113994841Y-82719763D01*
X113794963Y-82919641D01*
X113639600Y-83152159D01*
X113484237Y-82919641D01*
X113284359Y-82719763D01*
X113049327Y-82562720D01*
X112788174Y-82454547D01*
X112510935Y-82399400D01*
X112228265Y-82399400D01*
X111951026Y-82454547D01*
X111689873Y-82562720D01*
X111454841Y-82719763D01*
X111254963Y-82919641D01*
X111099600Y-83152159D01*
X110944237Y-82919641D01*
X110744359Y-82719763D01*
X110509327Y-82562720D01*
X110248174Y-82454547D01*
X109970935Y-82399400D01*
X109688265Y-82399400D01*
X109411026Y-82454547D01*
X109149873Y-82562720D01*
X108914841Y-82719763D01*
X108714963Y-82919641D01*
X108559600Y-83152159D01*
X108404237Y-82919641D01*
X108204359Y-82719763D01*
X107969327Y-82562720D01*
X107708174Y-82454547D01*
X107430935Y-82399400D01*
X107148265Y-82399400D01*
X106871026Y-82454547D01*
X106609873Y-82562720D01*
X106374841Y-82719763D01*
X106174963Y-82919641D01*
X106019600Y-83152159D01*
X105864237Y-82919641D01*
X105664359Y-82719763D01*
X105429327Y-82562720D01*
X105168174Y-82454547D01*
X104890935Y-82399400D01*
X104608265Y-82399400D01*
X104331026Y-82454547D01*
X104069873Y-82562720D01*
X103834841Y-82719763D01*
X103634963Y-82919641D01*
X103479600Y-83152159D01*
X103324237Y-82919641D01*
X103124359Y-82719763D01*
X102889327Y-82562720D01*
X102628174Y-82454547D01*
X102350935Y-82399400D01*
X102068265Y-82399400D01*
X101791026Y-82454547D01*
X101529873Y-82562720D01*
X101294841Y-82719763D01*
X101094963Y-82919641D01*
X100937920Y-83154673D01*
X100933533Y-83165265D01*
X100821985Y-82979269D01*
X100633014Y-82770881D01*
X100407020Y-82603363D01*
X100152687Y-82483154D01*
X100018639Y-82442496D01*
X99796600Y-82564485D01*
X99542600Y-82564485D01*
X99320561Y-82442496D01*
X99186513Y-82483154D01*
X98932180Y-82603363D01*
X98706186Y-82770881D01*
X98517215Y-82979269D01*
X98405667Y-83165265D01*
X98401280Y-83154673D01*
X98244237Y-82919641D01*
X98044359Y-82719763D01*
X97809327Y-82562720D01*
X97548174Y-82454547D01*
X97270935Y-82399400D01*
X96988265Y-82399400D01*
X96711026Y-82454547D01*
X96449873Y-82562720D01*
X96214841Y-82719763D01*
X96014963Y-82919641D01*
X95859600Y-83152159D01*
X95704237Y-82919641D01*
X95504359Y-82719763D01*
X95269327Y-82562720D01*
X95008174Y-82454547D01*
X94730935Y-82399400D01*
X94448265Y-82399400D01*
X94171026Y-82454547D01*
X93909873Y-82562720D01*
X93674841Y-82719763D01*
X93476243Y-82918361D01*
X93475412Y-82909918D01*
X93439102Y-82790220D01*
X93380137Y-82679906D01*
X93300785Y-82583215D01*
X93204094Y-82503863D01*
X93093780Y-82444898D01*
X92974082Y-82408588D01*
X92849600Y-82396328D01*
X91249600Y-82396328D01*
X91125118Y-82408588D01*
X91005420Y-82444898D01*
X90895106Y-82503863D01*
X90798415Y-82583215D01*
X90719063Y-82679906D01*
X90660098Y-82790220D01*
X90623788Y-82909918D01*
X90611528Y-83034400D01*
X53685000Y-83034400D01*
X53685000Y-68453065D01*
X90614600Y-68453065D01*
X90614600Y-68735735D01*
X90669747Y-69012974D01*
X90777920Y-69274127D01*
X90934963Y-69509159D01*
X91134841Y-69709037D01*
X91369873Y-69866080D01*
X91631026Y-69974253D01*
X91908265Y-70029400D01*
X92190935Y-70029400D01*
X92468174Y-69974253D01*
X92729327Y-69866080D01*
X92964359Y-69709037D01*
X93164237Y-69509159D01*
X93321280Y-69274127D01*
X93325667Y-69263535D01*
X93437215Y-69449531D01*
X93626186Y-69657919D01*
X93852180Y-69825437D01*
X94106513Y-69945646D01*
X94240561Y-69986304D01*
X94462600Y-69864315D01*
X94462600Y-68721400D01*
X94442600Y-68721400D01*
X94442600Y-68467400D01*
X94462600Y-68467400D01*
X94462600Y-67324485D01*
X94716600Y-67324485D01*
X94716600Y-68467400D01*
X94736600Y-68467400D01*
X94736600Y-68721400D01*
X94716600Y-68721400D01*
X94716600Y-69864315D01*
X94938639Y-69986304D01*
X95072687Y-69945646D01*
X95327020Y-69825437D01*
X95553014Y-69657919D01*
X95741985Y-69449531D01*
X95853533Y-69263535D01*
X95857920Y-69274127D01*
X96014963Y-69509159D01*
X96214841Y-69709037D01*
X96449873Y-69866080D01*
X96711026Y-69974253D01*
X96988265Y-70029400D01*
X97270935Y-70029400D01*
X97548174Y-69974253D01*
X97809327Y-69866080D01*
X98044359Y-69709037D01*
X98244237Y-69509159D01*
X98399600Y-69276641D01*
X98554963Y-69509159D01*
X98754841Y-69709037D01*
X98989873Y-69866080D01*
X99251026Y-69974253D01*
X99528265Y-70029400D01*
X99810935Y-70029400D01*
X100088174Y-69974253D01*
X100349327Y-69866080D01*
X100584359Y-69709037D01*
X100784237Y-69509159D01*
X100939600Y-69276641D01*
X101094963Y-69509159D01*
X101294841Y-69709037D01*
X101529873Y-69866080D01*
X101791026Y-69974253D01*
X102068265Y-70029400D01*
X102350935Y-70029400D01*
X102628174Y-69974253D01*
X102889327Y-69866080D01*
X103124359Y-69709037D01*
X103324237Y-69509159D01*
X103479600Y-69276641D01*
X103634963Y-69509159D01*
X103834841Y-69709037D01*
X104069873Y-69866080D01*
X104331026Y-69974253D01*
X104608265Y-70029400D01*
X104890935Y-70029400D01*
X105168174Y-69974253D01*
X105429327Y-69866080D01*
X105664359Y-69709037D01*
X105864237Y-69509159D01*
X106019600Y-69276641D01*
X106174963Y-69509159D01*
X106374841Y-69709037D01*
X106609873Y-69866080D01*
X106871026Y-69974253D01*
X107148265Y-70029400D01*
X107430935Y-70029400D01*
X107708174Y-69974253D01*
X107969327Y-69866080D01*
X108204359Y-69709037D01*
X108404237Y-69509159D01*
X108559600Y-69276641D01*
X108714963Y-69509159D01*
X108914841Y-69709037D01*
X109149873Y-69866080D01*
X109411026Y-69974253D01*
X109688265Y-70029400D01*
X109970935Y-70029400D01*
X110248174Y-69974253D01*
X110509327Y-69866080D01*
X110744359Y-69709037D01*
X110944237Y-69509159D01*
X111099600Y-69276641D01*
X111254963Y-69509159D01*
X111454841Y-69709037D01*
X111689873Y-69866080D01*
X111951026Y-69974253D01*
X112228265Y-70029400D01*
X112510935Y-70029400D01*
X112788174Y-69974253D01*
X113049327Y-69866080D01*
X113284359Y-69709037D01*
X113484237Y-69509159D01*
X113639600Y-69276641D01*
X113794963Y-69509159D01*
X113994841Y-69709037D01*
X114229873Y-69866080D01*
X114491026Y-69974253D01*
X114768265Y-70029400D01*
X115050935Y-70029400D01*
X115328174Y-69974253D01*
X115589327Y-69866080D01*
X115824359Y-69709037D01*
X116024237Y-69509159D01*
X116179600Y-69276641D01*
X116334963Y-69509159D01*
X116534841Y-69709037D01*
X116769873Y-69866080D01*
X117031026Y-69974253D01*
X117308265Y-70029400D01*
X117590935Y-70029400D01*
X117868174Y-69974253D01*
X118129327Y-69866080D01*
X118364359Y-69709037D01*
X118564237Y-69509159D01*
X118719600Y-69276641D01*
X118874963Y-69509159D01*
X119074841Y-69709037D01*
X119309873Y-69866080D01*
X119571026Y-69974253D01*
X119848265Y-70029400D01*
X120130935Y-70029400D01*
X120408174Y-69974253D01*
X120669327Y-69866080D01*
X120904359Y-69709037D01*
X121104237Y-69509159D01*
X121259600Y-69276641D01*
X121414963Y-69509159D01*
X121614841Y-69709037D01*
X121849873Y-69866080D01*
X122111026Y-69974253D01*
X122388265Y-70029400D01*
X122670935Y-70029400D01*
X122948174Y-69974253D01*
X123209327Y-69866080D01*
X123444359Y-69709037D01*
X123644237Y-69509159D01*
X123799600Y-69276641D01*
X123954963Y-69509159D01*
X124154841Y-69709037D01*
X124389873Y-69866080D01*
X124651026Y-69974253D01*
X124928265Y-70029400D01*
X125210935Y-70029400D01*
X125488174Y-69974253D01*
X125749327Y-69866080D01*
X125984359Y-69709037D01*
X126184237Y-69509159D01*
X126339600Y-69276641D01*
X126494963Y-69509159D01*
X126694841Y-69709037D01*
X126929873Y-69866080D01*
X127191026Y-69974253D01*
X127468265Y-70029400D01*
X127750935Y-70029400D01*
X128028174Y-69974253D01*
X128289327Y-69866080D01*
X128524359Y-69709037D01*
X128724237Y-69509159D01*
X128881280Y-69274127D01*
X128989453Y-69012974D01*
X129044600Y-68735735D01*
X129044600Y-68453065D01*
X128989453Y-68175826D01*
X128881280Y-67914673D01*
X128724237Y-67679641D01*
X128524359Y-67479763D01*
X128289327Y-67322720D01*
X128028174Y-67214547D01*
X127750935Y-67159400D01*
X127468265Y-67159400D01*
X127191026Y-67214547D01*
X126929873Y-67322720D01*
X126694841Y-67479763D01*
X126494963Y-67679641D01*
X126339600Y-67912159D01*
X126184237Y-67679641D01*
X125984359Y-67479763D01*
X125749327Y-67322720D01*
X125488174Y-67214547D01*
X125210935Y-67159400D01*
X124928265Y-67159400D01*
X124651026Y-67214547D01*
X124389873Y-67322720D01*
X124154841Y-67479763D01*
X123954963Y-67679641D01*
X123799600Y-67912159D01*
X123644237Y-67679641D01*
X123444359Y-67479763D01*
X123209327Y-67322720D01*
X122948174Y-67214547D01*
X122670935Y-67159400D01*
X122388265Y-67159400D01*
X122111026Y-67214547D01*
X121849873Y-67322720D01*
X121614841Y-67479763D01*
X121414963Y-67679641D01*
X121259600Y-67912159D01*
X121104237Y-67679641D01*
X120904359Y-67479763D01*
X120669327Y-67322720D01*
X120408174Y-67214547D01*
X120130935Y-67159400D01*
X119848265Y-67159400D01*
X119571026Y-67214547D01*
X119309873Y-67322720D01*
X119074841Y-67479763D01*
X118874963Y-67679641D01*
X118719600Y-67912159D01*
X118564237Y-67679641D01*
X118364359Y-67479763D01*
X118129327Y-67322720D01*
X117868174Y-67214547D01*
X117590935Y-67159400D01*
X117308265Y-67159400D01*
X117031026Y-67214547D01*
X116769873Y-67322720D01*
X116534841Y-67479763D01*
X116334963Y-67679641D01*
X116179600Y-67912159D01*
X116024237Y-67679641D01*
X115824359Y-67479763D01*
X115589327Y-67322720D01*
X115328174Y-67214547D01*
X115050935Y-67159400D01*
X114768265Y-67159400D01*
X114491026Y-67214547D01*
X114229873Y-67322720D01*
X113994841Y-67479763D01*
X113794963Y-67679641D01*
X113639600Y-67912159D01*
X113484237Y-67679641D01*
X113284359Y-67479763D01*
X113049327Y-67322720D01*
X112788174Y-67214547D01*
X112510935Y-67159400D01*
X112228265Y-67159400D01*
X111951026Y-67214547D01*
X111689873Y-67322720D01*
X111454841Y-67479763D01*
X111254963Y-67679641D01*
X111099600Y-67912159D01*
X110944237Y-67679641D01*
X110744359Y-67479763D01*
X110509327Y-67322720D01*
X110248174Y-67214547D01*
X109970935Y-67159400D01*
X109688265Y-67159400D01*
X109411026Y-67214547D01*
X109149873Y-67322720D01*
X108914841Y-67479763D01*
X108714963Y-67679641D01*
X108559600Y-67912159D01*
X108404237Y-67679641D01*
X108204359Y-67479763D01*
X107969327Y-67322720D01*
X107708174Y-67214547D01*
X107430935Y-67159400D01*
X107148265Y-67159400D01*
X106871026Y-67214547D01*
X106609873Y-67322720D01*
X106374841Y-67479763D01*
X106174963Y-67679641D01*
X106019600Y-67912159D01*
X105864237Y-67679641D01*
X105664359Y-67479763D01*
X105429327Y-67322720D01*
X105168174Y-67214547D01*
X104890935Y-67159400D01*
X104608265Y-67159400D01*
X104331026Y-67214547D01*
X104069873Y-67322720D01*
X103834841Y-67479763D01*
X103634963Y-67679641D01*
X103479600Y-67912159D01*
X103324237Y-67679641D01*
X103124359Y-67479763D01*
X102889327Y-67322720D01*
X102628174Y-67214547D01*
X102350935Y-67159400D01*
X102068265Y-67159400D01*
X101791026Y-67214547D01*
X101529873Y-67322720D01*
X101294841Y-67479763D01*
X101094963Y-67679641D01*
X100939600Y-67912159D01*
X100784237Y-67679641D01*
X100584359Y-67479763D01*
X100349327Y-67322720D01*
X100088174Y-67214547D01*
X99810935Y-67159400D01*
X99528265Y-67159400D01*
X99251026Y-67214547D01*
X98989873Y-67322720D01*
X98754841Y-67479763D01*
X98554963Y-67679641D01*
X98399600Y-67912159D01*
X98244237Y-67679641D01*
X98044359Y-67479763D01*
X97809327Y-67322720D01*
X97548174Y-67214547D01*
X97270935Y-67159400D01*
X96988265Y-67159400D01*
X96711026Y-67214547D01*
X96449873Y-67322720D01*
X96214841Y-67479763D01*
X96014963Y-67679641D01*
X95857920Y-67914673D01*
X95853533Y-67925265D01*
X95741985Y-67739269D01*
X95553014Y-67530881D01*
X95327020Y-67363363D01*
X95072687Y-67243154D01*
X94938639Y-67202496D01*
X94716600Y-67324485D01*
X94462600Y-67324485D01*
X94240561Y-67202496D01*
X94106513Y-67243154D01*
X93852180Y-67363363D01*
X93626186Y-67530881D01*
X93437215Y-67739269D01*
X93325667Y-67925265D01*
X93321280Y-67914673D01*
X93164237Y-67679641D01*
X92964359Y-67479763D01*
X92729327Y-67322720D01*
X92468174Y-67214547D01*
X92190935Y-67159400D01*
X91908265Y-67159400D01*
X91631026Y-67214547D01*
X91369873Y-67322720D01*
X91134841Y-67479763D01*
X90934963Y-67679641D01*
X90777920Y-67914673D01*
X90669747Y-68175826D01*
X90614600Y-68453065D01*
X53685000Y-68453065D01*
X53685000Y-62187357D01*
X55341000Y-62187357D01*
X55341000Y-62612643D01*
X55423970Y-63029757D01*
X55586719Y-63422670D01*
X55822996Y-63776282D01*
X56123718Y-64077004D01*
X56477330Y-64313281D01*
X56870243Y-64476030D01*
X57287357Y-64559000D01*
X57712643Y-64559000D01*
X58129757Y-64476030D01*
X58522670Y-64313281D01*
X58876282Y-64077004D01*
X59177004Y-63776282D01*
X59413281Y-63422670D01*
X59576030Y-63029757D01*
X59659000Y-62612643D01*
X59659000Y-62187357D01*
X59652171Y-62153024D01*
X121410781Y-62153024D01*
X121542717Y-62448112D01*
X121883445Y-62618959D01*
X122250957Y-62720050D01*
X122631129Y-62747501D01*
X123009351Y-62700257D01*
X123371090Y-62580133D01*
X123618083Y-62448112D01*
X123734668Y-62187357D01*
X135341000Y-62187357D01*
X135341000Y-62612643D01*
X135423970Y-63029757D01*
X135586719Y-63422670D01*
X135822996Y-63776282D01*
X136123718Y-64077004D01*
X136477330Y-64313281D01*
X136870243Y-64476030D01*
X137287357Y-64559000D01*
X137712643Y-64559000D01*
X138129757Y-64476030D01*
X138522670Y-64313281D01*
X138876282Y-64077004D01*
X139177004Y-63776282D01*
X139413281Y-63422670D01*
X139576030Y-63029757D01*
X139659000Y-62612643D01*
X139659000Y-62187357D01*
X139576030Y-61770243D01*
X139413281Y-61377330D01*
X139177004Y-61023718D01*
X138876282Y-60722996D01*
X138522670Y-60486719D01*
X138129757Y-60323970D01*
X137712643Y-60241000D01*
X137287357Y-60241000D01*
X136870243Y-60323970D01*
X136477330Y-60486719D01*
X136123718Y-60722996D01*
X135822996Y-61023718D01*
X135586719Y-61377330D01*
X135423970Y-61770243D01*
X135341000Y-62187357D01*
X123734668Y-62187357D01*
X123750019Y-62153024D01*
X122580400Y-60983405D01*
X121410781Y-62153024D01*
X59652171Y-62153024D01*
X59576030Y-61770243D01*
X59413281Y-61377330D01*
X59177004Y-61023718D01*
X59007815Y-60854529D01*
X120636699Y-60854529D01*
X120683943Y-61232751D01*
X120804067Y-61594490D01*
X120936088Y-61841483D01*
X121231176Y-61973419D01*
X122400795Y-60803800D01*
X122760005Y-60803800D01*
X123929624Y-61973419D01*
X124224712Y-61841483D01*
X124395559Y-61500755D01*
X124496650Y-61133243D01*
X124524101Y-60753071D01*
X124476857Y-60374849D01*
X124356733Y-60013110D01*
X124224712Y-59766117D01*
X123929624Y-59634181D01*
X122760005Y-60803800D01*
X122400795Y-60803800D01*
X121231176Y-59634181D01*
X120936088Y-59766117D01*
X120765241Y-60106845D01*
X120664150Y-60474357D01*
X120636699Y-60854529D01*
X59007815Y-60854529D01*
X58876282Y-60722996D01*
X58522670Y-60486719D01*
X58129757Y-60323970D01*
X57712643Y-60241000D01*
X57287357Y-60241000D01*
X56870243Y-60323970D01*
X56477330Y-60486719D01*
X56123718Y-60722996D01*
X55822996Y-61023718D01*
X55586719Y-61377330D01*
X55423970Y-61770243D01*
X55341000Y-62187357D01*
X53685000Y-62187357D01*
X53685000Y-59208740D01*
X56170865Y-59208740D01*
X56329764Y-59526758D01*
X56708632Y-59719959D01*
X57117913Y-59835534D01*
X57541876Y-59869042D01*
X57964230Y-59819194D01*
X58368744Y-59687908D01*
X58670236Y-59526758D01*
X58829135Y-59208740D01*
X57500000Y-57879605D01*
X56170865Y-59208740D01*
X53685000Y-59208740D01*
X53685000Y-57741876D01*
X55330958Y-57741876D01*
X55380806Y-58164230D01*
X55512092Y-58568744D01*
X55673242Y-58870236D01*
X55991260Y-59029135D01*
X57320395Y-57700000D01*
X57679605Y-57700000D01*
X59008740Y-59029135D01*
X59326758Y-58870236D01*
X59519959Y-58491368D01*
X59635534Y-58082087D01*
X59669042Y-57658124D01*
X59632133Y-57345400D01*
X98007728Y-57345400D01*
X98007728Y-59545400D01*
X98019988Y-59669882D01*
X98056298Y-59789580D01*
X98115263Y-59899894D01*
X98194615Y-59996585D01*
X98291306Y-60075937D01*
X98401620Y-60134902D01*
X98521318Y-60171212D01*
X98645800Y-60183472D01*
X100845800Y-60183472D01*
X100970282Y-60171212D01*
X101089980Y-60134902D01*
X101200294Y-60075937D01*
X101296985Y-59996585D01*
X101376337Y-59899894D01*
X101435302Y-59789580D01*
X101471612Y-59669882D01*
X101483872Y-59545400D01*
X101483872Y-58274517D01*
X108170800Y-58274517D01*
X108170800Y-58616283D01*
X108237475Y-58951481D01*
X108368263Y-59267231D01*
X108558137Y-59551398D01*
X108799802Y-59793063D01*
X109083969Y-59982937D01*
X109399719Y-60113725D01*
X109734917Y-60180400D01*
X110076683Y-60180400D01*
X110411881Y-60113725D01*
X110727631Y-59982937D01*
X111011798Y-59793063D01*
X111253463Y-59551398D01*
X111318157Y-59454576D01*
X121410781Y-59454576D01*
X122580400Y-60624195D01*
X123750019Y-59454576D01*
X123640104Y-59208740D01*
X136170865Y-59208740D01*
X136329764Y-59526758D01*
X136708632Y-59719959D01*
X137117913Y-59835534D01*
X137541876Y-59869042D01*
X137964230Y-59819194D01*
X138368744Y-59687908D01*
X138670236Y-59526758D01*
X138829135Y-59208740D01*
X137500000Y-57879605D01*
X136170865Y-59208740D01*
X123640104Y-59208740D01*
X123618083Y-59159488D01*
X123277355Y-58988641D01*
X122909843Y-58887550D01*
X122529671Y-58860099D01*
X122151449Y-58907343D01*
X121789710Y-59027467D01*
X121542717Y-59159488D01*
X121410781Y-59454576D01*
X111318157Y-59454576D01*
X111443337Y-59267231D01*
X111574125Y-58951481D01*
X111640800Y-58616283D01*
X111640800Y-58274517D01*
X111574125Y-57939319D01*
X111492342Y-57741876D01*
X135330958Y-57741876D01*
X135380806Y-58164230D01*
X135512092Y-58568744D01*
X135673242Y-58870236D01*
X135991260Y-59029135D01*
X137320395Y-57700000D01*
X137679605Y-57700000D01*
X139008740Y-59029135D01*
X139326758Y-58870236D01*
X139519959Y-58491368D01*
X139635534Y-58082087D01*
X139669042Y-57658124D01*
X139619194Y-57235770D01*
X139487908Y-56831256D01*
X139326758Y-56529764D01*
X139008740Y-56370865D01*
X137679605Y-57700000D01*
X137320395Y-57700000D01*
X135991260Y-56370865D01*
X135673242Y-56529764D01*
X135480041Y-56908632D01*
X135364466Y-57317913D01*
X135330958Y-57741876D01*
X111492342Y-57741876D01*
X111443337Y-57623569D01*
X111253463Y-57339402D01*
X111011798Y-57097737D01*
X110727631Y-56907863D01*
X110411881Y-56777075D01*
X110076683Y-56710400D01*
X109734917Y-56710400D01*
X109399719Y-56777075D01*
X109083969Y-56907863D01*
X108799802Y-57097737D01*
X108558137Y-57339402D01*
X108368263Y-57623569D01*
X108237475Y-57939319D01*
X108170800Y-58274517D01*
X101483872Y-58274517D01*
X101483872Y-57345400D01*
X101471612Y-57220918D01*
X101435302Y-57101220D01*
X101376337Y-56990906D01*
X101296985Y-56894215D01*
X101200294Y-56814863D01*
X101089980Y-56755898D01*
X100970282Y-56719588D01*
X100845800Y-56707328D01*
X98645800Y-56707328D01*
X98521318Y-56719588D01*
X98401620Y-56755898D01*
X98291306Y-56814863D01*
X98194615Y-56894215D01*
X98115263Y-56990906D01*
X98056298Y-57101220D01*
X98019988Y-57220918D01*
X98007728Y-57345400D01*
X59632133Y-57345400D01*
X59619194Y-57235770D01*
X59487908Y-56831256D01*
X59326758Y-56529764D01*
X59008740Y-56370865D01*
X57679605Y-57700000D01*
X57320395Y-57700000D01*
X55991260Y-56370865D01*
X55673242Y-56529764D01*
X55480041Y-56908632D01*
X55364466Y-57317913D01*
X55330958Y-57741876D01*
X53685000Y-57741876D01*
X53685000Y-56191260D01*
X56170865Y-56191260D01*
X57500000Y-57520395D01*
X58829135Y-56191260D01*
X58670236Y-55873242D01*
X58291368Y-55680041D01*
X57882087Y-55564466D01*
X57458124Y-55530958D01*
X57035770Y-55580806D01*
X56631256Y-55712092D01*
X56329764Y-55873242D01*
X56170865Y-56191260D01*
X53685000Y-56191260D01*
X53685000Y-52787357D01*
X55341000Y-52787357D01*
X55341000Y-53212643D01*
X55423970Y-53629757D01*
X55586719Y-54022670D01*
X55822996Y-54376282D01*
X56123718Y-54677004D01*
X56477330Y-54913281D01*
X56870243Y-55076030D01*
X57287357Y-55159000D01*
X57712643Y-55159000D01*
X58129757Y-55076030D01*
X58522670Y-54913281D01*
X58876282Y-54677004D01*
X59049486Y-54503800D01*
X120642328Y-54503800D01*
X120642328Y-57103800D01*
X120654588Y-57228282D01*
X120690898Y-57347980D01*
X120749863Y-57458294D01*
X120829215Y-57554985D01*
X120925906Y-57634337D01*
X121036220Y-57693302D01*
X121155918Y-57729612D01*
X121280400Y-57741872D01*
X123880400Y-57741872D01*
X124004882Y-57729612D01*
X124124580Y-57693302D01*
X124234894Y-57634337D01*
X124331585Y-57554985D01*
X124410937Y-57458294D01*
X124469902Y-57347980D01*
X124506212Y-57228282D01*
X124518472Y-57103800D01*
X124518472Y-56191260D01*
X136170865Y-56191260D01*
X137500000Y-57520395D01*
X138829135Y-56191260D01*
X138670236Y-55873242D01*
X138291368Y-55680041D01*
X137882087Y-55564466D01*
X137458124Y-55530958D01*
X137035770Y-55580806D01*
X136631256Y-55712092D01*
X136329764Y-55873242D01*
X136170865Y-56191260D01*
X124518472Y-56191260D01*
X124518472Y-54503800D01*
X124506212Y-54379318D01*
X124469902Y-54259620D01*
X124410937Y-54149306D01*
X124331585Y-54052615D01*
X124234894Y-53973263D01*
X124124580Y-53914298D01*
X124004882Y-53877988D01*
X123880400Y-53865728D01*
X121280400Y-53865728D01*
X121155918Y-53877988D01*
X121036220Y-53914298D01*
X120925906Y-53973263D01*
X120829215Y-54052615D01*
X120749863Y-54149306D01*
X120690898Y-54259620D01*
X120654588Y-54379318D01*
X120642328Y-54503800D01*
X59049486Y-54503800D01*
X59177004Y-54376282D01*
X59413281Y-54022670D01*
X59576030Y-53629757D01*
X59659000Y-53212643D01*
X59659000Y-52787357D01*
X135341000Y-52787357D01*
X135341000Y-53212643D01*
X135423970Y-53629757D01*
X135586719Y-54022670D01*
X135822996Y-54376282D01*
X136123718Y-54677004D01*
X136477330Y-54913281D01*
X136870243Y-55076030D01*
X137287357Y-55159000D01*
X137712643Y-55159000D01*
X138129757Y-55076030D01*
X138522670Y-54913281D01*
X138876282Y-54677004D01*
X139177004Y-54376282D01*
X139413281Y-54022670D01*
X139576030Y-53629757D01*
X139659000Y-53212643D01*
X139659000Y-52787357D01*
X139576030Y-52370243D01*
X139413281Y-51977330D01*
X139177004Y-51623718D01*
X138876282Y-51322996D01*
X138522670Y-51086719D01*
X138129757Y-50923970D01*
X137712643Y-50841000D01*
X137287357Y-50841000D01*
X136870243Y-50923970D01*
X136477330Y-51086719D01*
X136123718Y-51322996D01*
X135822996Y-51623718D01*
X135586719Y-51977330D01*
X135423970Y-52370243D01*
X135341000Y-52787357D01*
X59659000Y-52787357D01*
X59576030Y-52370243D01*
X59413281Y-51977330D01*
X59177004Y-51623718D01*
X58876282Y-51322996D01*
X58522670Y-51086719D01*
X58129757Y-50923970D01*
X57712643Y-50841000D01*
X57287357Y-50841000D01*
X56870243Y-50923970D01*
X56477330Y-51086719D01*
X56123718Y-51322996D01*
X55822996Y-51623718D01*
X55586719Y-51977330D01*
X55423970Y-52370243D01*
X55341000Y-52787357D01*
X53685000Y-52787357D01*
X53685000Y-51966353D01*
X53683721Y-51953370D01*
X54469861Y-50774161D01*
X54481954Y-50767622D01*
X54731195Y-50690469D01*
X54871819Y-50675689D01*
X54966353Y-50685000D01*
G04 #@! TA.AperFunction,Conductor*
D18*
G36*
X54966353Y-50685000D02*
G01*
X140033647Y-50685000D01*
X140127955Y-50675711D01*
X140259659Y-50688625D01*
X140509429Y-50764035D01*
X140531054Y-50775533D01*
X141316279Y-51953370D01*
X141315000Y-51966354D01*
X141315001Y-99586018D01*
X140487019Y-101241983D01*
X140268805Y-101309531D01*
X140128181Y-101324311D01*
X140033647Y-101315000D01*
X138518520Y-101315000D01*
X138522670Y-101313281D01*
X138876282Y-101077004D01*
X139177004Y-100776282D01*
X139413281Y-100422670D01*
X139576030Y-100029757D01*
X139659000Y-99612643D01*
X139659000Y-99187357D01*
X139576030Y-98770243D01*
X139413281Y-98377330D01*
X139177004Y-98023718D01*
X138876282Y-97722996D01*
X138522670Y-97486719D01*
X138129757Y-97323970D01*
X137712643Y-97241000D01*
X137287357Y-97241000D01*
X136870243Y-97323970D01*
X136477330Y-97486719D01*
X136123718Y-97722996D01*
X135822996Y-98023718D01*
X135586719Y-98377330D01*
X135423970Y-98770243D01*
X135341000Y-99187357D01*
X135341000Y-99612643D01*
X135423970Y-100029757D01*
X135586719Y-100422670D01*
X135822996Y-100776282D01*
X136123718Y-101077004D01*
X136477330Y-101313281D01*
X136481480Y-101315000D01*
X118518520Y-101315000D01*
X118522670Y-101313281D01*
X118876282Y-101077004D01*
X119177004Y-100776282D01*
X119413281Y-100422670D01*
X119576030Y-100029757D01*
X119659000Y-99612643D01*
X119659000Y-99187357D01*
X119576030Y-98770243D01*
X119413281Y-98377330D01*
X119177004Y-98023718D01*
X118876282Y-97722996D01*
X118522670Y-97486719D01*
X118129757Y-97323970D01*
X117712643Y-97241000D01*
X117287357Y-97241000D01*
X116870243Y-97323970D01*
X116477330Y-97486719D01*
X116123718Y-97722996D01*
X115822996Y-98023718D01*
X115586719Y-98377330D01*
X115423970Y-98770243D01*
X115341000Y-99187357D01*
X115341000Y-99612643D01*
X115423970Y-100029757D01*
X115586719Y-100422670D01*
X115822996Y-100776282D01*
X116123718Y-101077004D01*
X116477330Y-101313281D01*
X116481480Y-101315000D01*
X98518520Y-101315000D01*
X98522670Y-101313281D01*
X98876282Y-101077004D01*
X99177004Y-100776282D01*
X99413281Y-100422670D01*
X99576030Y-100029757D01*
X99659000Y-99612643D01*
X99659000Y-99187357D01*
X99576030Y-98770243D01*
X99413281Y-98377330D01*
X99177004Y-98023718D01*
X98876282Y-97722996D01*
X98522670Y-97486719D01*
X98129757Y-97323970D01*
X97712643Y-97241000D01*
X97287357Y-97241000D01*
X96870243Y-97323970D01*
X96477330Y-97486719D01*
X96123718Y-97722996D01*
X95822996Y-98023718D01*
X95586719Y-98377330D01*
X95423970Y-98770243D01*
X95341000Y-99187357D01*
X95341000Y-99612643D01*
X95423970Y-100029757D01*
X95586719Y-100422670D01*
X95822996Y-100776282D01*
X96123718Y-101077004D01*
X96477330Y-101313281D01*
X96481480Y-101315000D01*
X78518520Y-101315000D01*
X78522670Y-101313281D01*
X78876282Y-101077004D01*
X79177004Y-100776282D01*
X79413281Y-100422670D01*
X79576030Y-100029757D01*
X79659000Y-99612643D01*
X79659000Y-99187357D01*
X79576030Y-98770243D01*
X79413281Y-98377330D01*
X79177004Y-98023718D01*
X78876282Y-97722996D01*
X78522670Y-97486719D01*
X78129757Y-97323970D01*
X77712643Y-97241000D01*
X77287357Y-97241000D01*
X76870243Y-97323970D01*
X76477330Y-97486719D01*
X76123718Y-97722996D01*
X75822996Y-98023718D01*
X75586719Y-98377330D01*
X75423970Y-98770243D01*
X75341000Y-99187357D01*
X75341000Y-99612643D01*
X75423970Y-100029757D01*
X75586719Y-100422670D01*
X75822996Y-100776282D01*
X76123718Y-101077004D01*
X76477330Y-101313281D01*
X76481480Y-101315000D01*
X58518520Y-101315000D01*
X58522670Y-101313281D01*
X58876282Y-101077004D01*
X59177004Y-100776282D01*
X59413281Y-100422670D01*
X59576030Y-100029757D01*
X59659000Y-99612643D01*
X59659000Y-99187357D01*
X59576030Y-98770243D01*
X59413281Y-98377330D01*
X59177004Y-98023718D01*
X58876282Y-97722996D01*
X58522670Y-97486719D01*
X58129757Y-97323970D01*
X57712643Y-97241000D01*
X57287357Y-97241000D01*
X56870243Y-97323970D01*
X56477330Y-97486719D01*
X56123718Y-97722996D01*
X55822996Y-98023718D01*
X55586719Y-98377330D01*
X55423970Y-98770243D01*
X55341000Y-99187357D01*
X55341000Y-99612643D01*
X55423970Y-100029757D01*
X55586719Y-100422670D01*
X55822996Y-100776282D01*
X56123718Y-101077004D01*
X56477330Y-101313281D01*
X56481480Y-101315000D01*
X54966353Y-101315000D01*
X54873922Y-101324104D01*
X54290727Y-101129706D01*
X54260206Y-101113477D01*
X54058021Y-100948579D01*
X53891712Y-100747546D01*
X53767622Y-100518046D01*
X53690469Y-100268805D01*
X53675689Y-100128181D01*
X53685000Y-100033647D01*
X53685000Y-96208740D01*
X56170865Y-96208740D01*
X56329764Y-96526758D01*
X56708632Y-96719959D01*
X57117913Y-96835534D01*
X57541876Y-96869042D01*
X57964230Y-96819194D01*
X58368744Y-96687908D01*
X58670236Y-96526758D01*
X58829135Y-96208740D01*
X76170865Y-96208740D01*
X76329764Y-96526758D01*
X76708632Y-96719959D01*
X77117913Y-96835534D01*
X77541876Y-96869042D01*
X77964230Y-96819194D01*
X78368744Y-96687908D01*
X78670236Y-96526758D01*
X78829135Y-96208740D01*
X96170865Y-96208740D01*
X96329764Y-96526758D01*
X96708632Y-96719959D01*
X97117913Y-96835534D01*
X97541876Y-96869042D01*
X97964230Y-96819194D01*
X98368744Y-96687908D01*
X98670236Y-96526758D01*
X98829135Y-96208740D01*
X116170865Y-96208740D01*
X116329764Y-96526758D01*
X116708632Y-96719959D01*
X117117913Y-96835534D01*
X117541876Y-96869042D01*
X117964230Y-96819194D01*
X118368744Y-96687908D01*
X118670236Y-96526758D01*
X118829135Y-96208740D01*
X136170865Y-96208740D01*
X136329764Y-96526758D01*
X136708632Y-96719959D01*
X137117913Y-96835534D01*
X137541876Y-96869042D01*
X137964230Y-96819194D01*
X138368744Y-96687908D01*
X138670236Y-96526758D01*
X138829135Y-96208740D01*
X137500000Y-94879605D01*
X136170865Y-96208740D01*
X118829135Y-96208740D01*
X117500000Y-94879605D01*
X116170865Y-96208740D01*
X98829135Y-96208740D01*
X97500000Y-94879605D01*
X96170865Y-96208740D01*
X78829135Y-96208740D01*
X77500000Y-94879605D01*
X76170865Y-96208740D01*
X58829135Y-96208740D01*
X57500000Y-94879605D01*
X56170865Y-96208740D01*
X53685000Y-96208740D01*
X53685000Y-94741876D01*
X55330958Y-94741876D01*
X55380806Y-95164230D01*
X55512092Y-95568744D01*
X55673242Y-95870236D01*
X55991260Y-96029135D01*
X57320395Y-94700000D01*
X57679605Y-94700000D01*
X59008740Y-96029135D01*
X59326758Y-95870236D01*
X59519959Y-95491368D01*
X59635534Y-95082087D01*
X59662422Y-94741876D01*
X75330958Y-94741876D01*
X75380806Y-95164230D01*
X75512092Y-95568744D01*
X75673242Y-95870236D01*
X75991260Y-96029135D01*
X77320395Y-94700000D01*
X77679605Y-94700000D01*
X79008740Y-96029135D01*
X79326758Y-95870236D01*
X79519959Y-95491368D01*
X79635534Y-95082087D01*
X79662422Y-94741876D01*
X95330958Y-94741876D01*
X95380806Y-95164230D01*
X95512092Y-95568744D01*
X95673242Y-95870236D01*
X95991260Y-96029135D01*
X97320395Y-94700000D01*
X97679605Y-94700000D01*
X99008740Y-96029135D01*
X99326758Y-95870236D01*
X99519959Y-95491368D01*
X99635534Y-95082087D01*
X99662422Y-94741876D01*
X115330958Y-94741876D01*
X115380806Y-95164230D01*
X115512092Y-95568744D01*
X115673242Y-95870236D01*
X115991260Y-96029135D01*
X117320395Y-94700000D01*
X117679605Y-94700000D01*
X119008740Y-96029135D01*
X119326758Y-95870236D01*
X119519959Y-95491368D01*
X119635534Y-95082087D01*
X119662422Y-94741876D01*
X135330958Y-94741876D01*
X135380806Y-95164230D01*
X135512092Y-95568744D01*
X135673242Y-95870236D01*
X135991260Y-96029135D01*
X137320395Y-94700000D01*
X137679605Y-94700000D01*
X139008740Y-96029135D01*
X139326758Y-95870236D01*
X139519959Y-95491368D01*
X139635534Y-95082087D01*
X139669042Y-94658124D01*
X139619194Y-94235770D01*
X139487908Y-93831256D01*
X139326758Y-93529764D01*
X139008740Y-93370865D01*
X137679605Y-94700000D01*
X137320395Y-94700000D01*
X135991260Y-93370865D01*
X135673242Y-93529764D01*
X135480041Y-93908632D01*
X135364466Y-94317913D01*
X135330958Y-94741876D01*
X119662422Y-94741876D01*
X119669042Y-94658124D01*
X119619194Y-94235770D01*
X119487908Y-93831256D01*
X119326758Y-93529764D01*
X119008740Y-93370865D01*
X117679605Y-94700000D01*
X117320395Y-94700000D01*
X115991260Y-93370865D01*
X115673242Y-93529764D01*
X115480041Y-93908632D01*
X115364466Y-94317913D01*
X115330958Y-94741876D01*
X99662422Y-94741876D01*
X99669042Y-94658124D01*
X99619194Y-94235770D01*
X99487908Y-93831256D01*
X99326758Y-93529764D01*
X99008740Y-93370865D01*
X97679605Y-94700000D01*
X97320395Y-94700000D01*
X95991260Y-93370865D01*
X95673242Y-93529764D01*
X95480041Y-93908632D01*
X95364466Y-94317913D01*
X95330958Y-94741876D01*
X79662422Y-94741876D01*
X79669042Y-94658124D01*
X79619194Y-94235770D01*
X79487908Y-93831256D01*
X79326758Y-93529764D01*
X79008740Y-93370865D01*
X77679605Y-94700000D01*
X77320395Y-94700000D01*
X75991260Y-93370865D01*
X75673242Y-93529764D01*
X75480041Y-93908632D01*
X75364466Y-94317913D01*
X75330958Y-94741876D01*
X59662422Y-94741876D01*
X59669042Y-94658124D01*
X59619194Y-94235770D01*
X59487908Y-93831256D01*
X59326758Y-93529764D01*
X59008740Y-93370865D01*
X57679605Y-94700000D01*
X57320395Y-94700000D01*
X55991260Y-93370865D01*
X55673242Y-93529764D01*
X55480041Y-93908632D01*
X55364466Y-94317913D01*
X55330958Y-94741876D01*
X53685000Y-94741876D01*
X53685000Y-93191260D01*
X56170865Y-93191260D01*
X57500000Y-94520395D01*
X58829135Y-93191260D01*
X76170865Y-93191260D01*
X77500000Y-94520395D01*
X78829135Y-93191260D01*
X96170865Y-93191260D01*
X97500000Y-94520395D01*
X98829135Y-93191260D01*
X116170865Y-93191260D01*
X117500000Y-94520395D01*
X118829135Y-93191260D01*
X136170865Y-93191260D01*
X137500000Y-94520395D01*
X138829135Y-93191260D01*
X138670236Y-92873242D01*
X138291368Y-92680041D01*
X137882087Y-92564466D01*
X137458124Y-92530958D01*
X137035770Y-92580806D01*
X136631256Y-92712092D01*
X136329764Y-92873242D01*
X136170865Y-93191260D01*
X118829135Y-93191260D01*
X118670236Y-92873242D01*
X118291368Y-92680041D01*
X117882087Y-92564466D01*
X117458124Y-92530958D01*
X117035770Y-92580806D01*
X116631256Y-92712092D01*
X116329764Y-92873242D01*
X116170865Y-93191260D01*
X98829135Y-93191260D01*
X98670236Y-92873242D01*
X98291368Y-92680041D01*
X97882087Y-92564466D01*
X97458124Y-92530958D01*
X97035770Y-92580806D01*
X96631256Y-92712092D01*
X96329764Y-92873242D01*
X96170865Y-93191260D01*
X78829135Y-93191260D01*
X78670236Y-92873242D01*
X78291368Y-92680041D01*
X77882087Y-92564466D01*
X77458124Y-92530958D01*
X77035770Y-92580806D01*
X76631256Y-92712092D01*
X76329764Y-92873242D01*
X76170865Y-93191260D01*
X58829135Y-93191260D01*
X58670236Y-92873242D01*
X58291368Y-92680041D01*
X57882087Y-92564466D01*
X57458124Y-92530958D01*
X57035770Y-92580806D01*
X56631256Y-92712092D01*
X56329764Y-92873242D01*
X56170865Y-93191260D01*
X53685000Y-93191260D01*
X53685000Y-89787357D01*
X55341000Y-89787357D01*
X55341000Y-90212643D01*
X55423970Y-90629757D01*
X55586719Y-91022670D01*
X55822996Y-91376282D01*
X56123718Y-91677004D01*
X56477330Y-91913281D01*
X56870243Y-92076030D01*
X57287357Y-92159000D01*
X57712643Y-92159000D01*
X58129757Y-92076030D01*
X58522670Y-91913281D01*
X58876282Y-91677004D01*
X59177004Y-91376282D01*
X59413281Y-91022670D01*
X59576030Y-90629757D01*
X59659000Y-90212643D01*
X59659000Y-89787357D01*
X75341000Y-89787357D01*
X75341000Y-90212643D01*
X75423970Y-90629757D01*
X75586719Y-91022670D01*
X75822996Y-91376282D01*
X76123718Y-91677004D01*
X76477330Y-91913281D01*
X76870243Y-92076030D01*
X77287357Y-92159000D01*
X77712643Y-92159000D01*
X78129757Y-92076030D01*
X78522670Y-91913281D01*
X78876282Y-91677004D01*
X79177004Y-91376282D01*
X79413281Y-91022670D01*
X79576030Y-90629757D01*
X79659000Y-90212643D01*
X79659000Y-89787357D01*
X95341000Y-89787357D01*
X95341000Y-90212643D01*
X95423970Y-90629757D01*
X95586719Y-91022670D01*
X95822996Y-91376282D01*
X96123718Y-91677004D01*
X96477330Y-91913281D01*
X96870243Y-92076030D01*
X97287357Y-92159000D01*
X97712643Y-92159000D01*
X98129757Y-92076030D01*
X98522670Y-91913281D01*
X98876282Y-91677004D01*
X99177004Y-91376282D01*
X99413281Y-91022670D01*
X99576030Y-90629757D01*
X99659000Y-90212643D01*
X99659000Y-89787357D01*
X115341000Y-89787357D01*
X115341000Y-90212643D01*
X115423970Y-90629757D01*
X115586719Y-91022670D01*
X115822996Y-91376282D01*
X116123718Y-91677004D01*
X116477330Y-91913281D01*
X116870243Y-92076030D01*
X117287357Y-92159000D01*
X117712643Y-92159000D01*
X118129757Y-92076030D01*
X118522670Y-91913281D01*
X118876282Y-91677004D01*
X119177004Y-91376282D01*
X119413281Y-91022670D01*
X119576030Y-90629757D01*
X119659000Y-90212643D01*
X119659000Y-89787357D01*
X135341000Y-89787357D01*
X135341000Y-90212643D01*
X135423970Y-90629757D01*
X135586719Y-91022670D01*
X135822996Y-91376282D01*
X136123718Y-91677004D01*
X136477330Y-91913281D01*
X136870243Y-92076030D01*
X137287357Y-92159000D01*
X137712643Y-92159000D01*
X138129757Y-92076030D01*
X138522670Y-91913281D01*
X138876282Y-91677004D01*
X139177004Y-91376282D01*
X139413281Y-91022670D01*
X139576030Y-90629757D01*
X139659000Y-90212643D01*
X139659000Y-89787357D01*
X139576030Y-89370243D01*
X139413281Y-88977330D01*
X139177004Y-88623718D01*
X138876282Y-88322996D01*
X138522670Y-88086719D01*
X138129757Y-87923970D01*
X137712643Y-87841000D01*
X137287357Y-87841000D01*
X136870243Y-87923970D01*
X136477330Y-88086719D01*
X136123718Y-88322996D01*
X135822996Y-88623718D01*
X135586719Y-88977330D01*
X135423970Y-89370243D01*
X135341000Y-89787357D01*
X119659000Y-89787357D01*
X119576030Y-89370243D01*
X119413281Y-88977330D01*
X119177004Y-88623718D01*
X118876282Y-88322996D01*
X118522670Y-88086719D01*
X118129757Y-87923970D01*
X117712643Y-87841000D01*
X117287357Y-87841000D01*
X116870243Y-87923970D01*
X116477330Y-88086719D01*
X116123718Y-88322996D01*
X115822996Y-88623718D01*
X115586719Y-88977330D01*
X115423970Y-89370243D01*
X115341000Y-89787357D01*
X99659000Y-89787357D01*
X99576030Y-89370243D01*
X99413281Y-88977330D01*
X99177004Y-88623718D01*
X98876282Y-88322996D01*
X98522670Y-88086719D01*
X98129757Y-87923970D01*
X97712643Y-87841000D01*
X97287357Y-87841000D01*
X96870243Y-87923970D01*
X96477330Y-88086719D01*
X96123718Y-88322996D01*
X95822996Y-88623718D01*
X95586719Y-88977330D01*
X95423970Y-89370243D01*
X95341000Y-89787357D01*
X79659000Y-89787357D01*
X79576030Y-89370243D01*
X79413281Y-88977330D01*
X79177004Y-88623718D01*
X78876282Y-88322996D01*
X78522670Y-88086719D01*
X78129757Y-87923970D01*
X77712643Y-87841000D01*
X77287357Y-87841000D01*
X76870243Y-87923970D01*
X76477330Y-88086719D01*
X76123718Y-88322996D01*
X75822996Y-88623718D01*
X75586719Y-88977330D01*
X75423970Y-89370243D01*
X75341000Y-89787357D01*
X59659000Y-89787357D01*
X59576030Y-89370243D01*
X59413281Y-88977330D01*
X59177004Y-88623718D01*
X58876282Y-88322996D01*
X58522670Y-88086719D01*
X58129757Y-87923970D01*
X57712643Y-87841000D01*
X57287357Y-87841000D01*
X56870243Y-87923970D01*
X56477330Y-88086719D01*
X56123718Y-88322996D01*
X55822996Y-88623718D01*
X55586719Y-88977330D01*
X55423970Y-89370243D01*
X55341000Y-89787357D01*
X53685000Y-89787357D01*
X53685000Y-83034400D01*
X90611528Y-83034400D01*
X90611528Y-84634400D01*
X90623788Y-84758882D01*
X90660098Y-84878580D01*
X90719063Y-84988894D01*
X90798415Y-85085585D01*
X90895106Y-85164937D01*
X91005420Y-85223902D01*
X91125118Y-85260212D01*
X91249600Y-85272472D01*
X92849600Y-85272472D01*
X92974082Y-85260212D01*
X93093780Y-85223902D01*
X93204094Y-85164937D01*
X93300785Y-85085585D01*
X93380137Y-84988894D01*
X93439102Y-84878580D01*
X93475412Y-84758882D01*
X93476243Y-84750439D01*
X93674841Y-84949037D01*
X93909873Y-85106080D01*
X94171026Y-85214253D01*
X94448265Y-85269400D01*
X94730935Y-85269400D01*
X95008174Y-85214253D01*
X95269327Y-85106080D01*
X95504359Y-84949037D01*
X95704237Y-84749159D01*
X95859600Y-84516641D01*
X96014963Y-84749159D01*
X96214841Y-84949037D01*
X96449873Y-85106080D01*
X96711026Y-85214253D01*
X96988265Y-85269400D01*
X97270935Y-85269400D01*
X97548174Y-85214253D01*
X97809327Y-85106080D01*
X98044359Y-84949037D01*
X98244237Y-84749159D01*
X98401280Y-84514127D01*
X98405667Y-84503535D01*
X98517215Y-84689531D01*
X98706186Y-84897919D01*
X98932180Y-85065437D01*
X99186513Y-85185646D01*
X99320561Y-85226304D01*
X99542600Y-85104315D01*
X99542600Y-83961400D01*
X99522600Y-83961400D01*
X99522600Y-83707400D01*
X99542600Y-83707400D01*
X99542600Y-82564485D01*
X99796600Y-82564485D01*
X99796600Y-83707400D01*
X99816600Y-83707400D01*
X99816600Y-83961400D01*
X99796600Y-83961400D01*
X99796600Y-85104315D01*
X100018639Y-85226304D01*
X100152687Y-85185646D01*
X100407020Y-85065437D01*
X100633014Y-84897919D01*
X100821985Y-84689531D01*
X100933533Y-84503535D01*
X100937920Y-84514127D01*
X101094963Y-84749159D01*
X101294841Y-84949037D01*
X101529873Y-85106080D01*
X101791026Y-85214253D01*
X102068265Y-85269400D01*
X102350935Y-85269400D01*
X102628174Y-85214253D01*
X102889327Y-85106080D01*
X103124359Y-84949037D01*
X103324237Y-84749159D01*
X103479600Y-84516641D01*
X103634963Y-84749159D01*
X103834841Y-84949037D01*
X104069873Y-85106080D01*
X104331026Y-85214253D01*
X104608265Y-85269400D01*
X104890935Y-85269400D01*
X105168174Y-85214253D01*
X105429327Y-85106080D01*
X105664359Y-84949037D01*
X105864237Y-84749159D01*
X106019600Y-84516641D01*
X106174963Y-84749159D01*
X106374841Y-84949037D01*
X106609873Y-85106080D01*
X106871026Y-85214253D01*
X107148265Y-85269400D01*
X107430935Y-85269400D01*
X107708174Y-85214253D01*
X107969327Y-85106080D01*
X108204359Y-84949037D01*
X108404237Y-84749159D01*
X108559600Y-84516641D01*
X108714963Y-84749159D01*
X108914841Y-84949037D01*
X109149873Y-85106080D01*
X109411026Y-85214253D01*
X109688265Y-85269400D01*
X109970935Y-85269400D01*
X110248174Y-85214253D01*
X110509327Y-85106080D01*
X110744359Y-84949037D01*
X110944237Y-84749159D01*
X111099600Y-84516641D01*
X111254963Y-84749159D01*
X111454841Y-84949037D01*
X111689873Y-85106080D01*
X111951026Y-85214253D01*
X112228265Y-85269400D01*
X112510935Y-85269400D01*
X112788174Y-85214253D01*
X113049327Y-85106080D01*
X113284359Y-84949037D01*
X113484237Y-84749159D01*
X113639600Y-84516641D01*
X113794963Y-84749159D01*
X113994841Y-84949037D01*
X114229873Y-85106080D01*
X114491026Y-85214253D01*
X114768265Y-85269400D01*
X115050935Y-85269400D01*
X115328174Y-85214253D01*
X115589327Y-85106080D01*
X115824359Y-84949037D01*
X116024237Y-84749159D01*
X116179600Y-84516641D01*
X116334963Y-84749159D01*
X116534841Y-84949037D01*
X116769873Y-85106080D01*
X117031026Y-85214253D01*
X117308265Y-85269400D01*
X117590935Y-85269400D01*
X117868174Y-85214253D01*
X118129327Y-85106080D01*
X118364359Y-84949037D01*
X118564237Y-84749159D01*
X118719600Y-84516641D01*
X118874963Y-84749159D01*
X119074841Y-84949037D01*
X119309873Y-85106080D01*
X119571026Y-85214253D01*
X119848265Y-85269400D01*
X120130935Y-85269400D01*
X120408174Y-85214253D01*
X120669327Y-85106080D01*
X120904359Y-84949037D01*
X121104237Y-84749159D01*
X121259600Y-84516641D01*
X121414963Y-84749159D01*
X121614841Y-84949037D01*
X121849873Y-85106080D01*
X122111026Y-85214253D01*
X122388265Y-85269400D01*
X122670935Y-85269400D01*
X122948174Y-85214253D01*
X123209327Y-85106080D01*
X123444359Y-84949037D01*
X123644237Y-84749159D01*
X123799600Y-84516641D01*
X123954963Y-84749159D01*
X124154841Y-84949037D01*
X124389873Y-85106080D01*
X124651026Y-85214253D01*
X124928265Y-85269400D01*
X125210935Y-85269400D01*
X125488174Y-85214253D01*
X125749327Y-85106080D01*
X125984359Y-84949037D01*
X126184237Y-84749159D01*
X126339600Y-84516641D01*
X126494963Y-84749159D01*
X126694841Y-84949037D01*
X126929873Y-85106080D01*
X127191026Y-85214253D01*
X127468265Y-85269400D01*
X127750935Y-85269400D01*
X128028174Y-85214253D01*
X128289327Y-85106080D01*
X128524359Y-84949037D01*
X128724237Y-84749159D01*
X128881280Y-84514127D01*
X128989453Y-84252974D01*
X129044600Y-83975735D01*
X129044600Y-83693065D01*
X128989453Y-83415826D01*
X128881280Y-83154673D01*
X128724237Y-82919641D01*
X128524359Y-82719763D01*
X128289327Y-82562720D01*
X128028174Y-82454547D01*
X127750935Y-82399400D01*
X127468265Y-82399400D01*
X127191026Y-82454547D01*
X126929873Y-82562720D01*
X126694841Y-82719763D01*
X126494963Y-82919641D01*
X126339600Y-83152159D01*
X126184237Y-82919641D01*
X125984359Y-82719763D01*
X125749327Y-82562720D01*
X125488174Y-82454547D01*
X125210935Y-82399400D01*
X124928265Y-82399400D01*
X124651026Y-82454547D01*
X124389873Y-82562720D01*
X124154841Y-82719763D01*
X123954963Y-82919641D01*
X123799600Y-83152159D01*
X123644237Y-82919641D01*
X123444359Y-82719763D01*
X123209327Y-82562720D01*
X122948174Y-82454547D01*
X122670935Y-82399400D01*
X122388265Y-82399400D01*
X122111026Y-82454547D01*
X121849873Y-82562720D01*
X121614841Y-82719763D01*
X121414963Y-82919641D01*
X121259600Y-83152159D01*
X121104237Y-82919641D01*
X120904359Y-82719763D01*
X120669327Y-82562720D01*
X120408174Y-82454547D01*
X120130935Y-82399400D01*
X119848265Y-82399400D01*
X119571026Y-82454547D01*
X119309873Y-82562720D01*
X119074841Y-82719763D01*
X118874963Y-82919641D01*
X118719600Y-83152159D01*
X118564237Y-82919641D01*
X118364359Y-82719763D01*
X118129327Y-82562720D01*
X117868174Y-82454547D01*
X117590935Y-82399400D01*
X117308265Y-82399400D01*
X117031026Y-82454547D01*
X116769873Y-82562720D01*
X116534841Y-82719763D01*
X116334963Y-82919641D01*
X116179600Y-83152159D01*
X116024237Y-82919641D01*
X115824359Y-82719763D01*
X115589327Y-82562720D01*
X115328174Y-82454547D01*
X115050935Y-82399400D01*
X114768265Y-82399400D01*
X114491026Y-82454547D01*
X114229873Y-82562720D01*
X113994841Y-82719763D01*
X113794963Y-82919641D01*
X113639600Y-83152159D01*
X113484237Y-82919641D01*
X113284359Y-82719763D01*
X113049327Y-82562720D01*
X112788174Y-82454547D01*
X112510935Y-82399400D01*
X112228265Y-82399400D01*
X111951026Y-82454547D01*
X111689873Y-82562720D01*
X111454841Y-82719763D01*
X111254963Y-82919641D01*
X111099600Y-83152159D01*
X110944237Y-82919641D01*
X110744359Y-82719763D01*
X110509327Y-82562720D01*
X110248174Y-82454547D01*
X109970935Y-82399400D01*
X109688265Y-82399400D01*
X109411026Y-82454547D01*
X109149873Y-82562720D01*
X108914841Y-82719763D01*
X108714963Y-82919641D01*
X108559600Y-83152159D01*
X108404237Y-82919641D01*
X108204359Y-82719763D01*
X107969327Y-82562720D01*
X107708174Y-82454547D01*
X107430935Y-82399400D01*
X107148265Y-82399400D01*
X106871026Y-82454547D01*
X106609873Y-82562720D01*
X106374841Y-82719763D01*
X106174963Y-82919641D01*
X106019600Y-83152159D01*
X105864237Y-82919641D01*
X105664359Y-82719763D01*
X105429327Y-82562720D01*
X105168174Y-82454547D01*
X104890935Y-82399400D01*
X104608265Y-82399400D01*
X104331026Y-82454547D01*
X104069873Y-82562720D01*
X103834841Y-82719763D01*
X103634963Y-82919641D01*
X103479600Y-83152159D01*
X103324237Y-82919641D01*
X103124359Y-82719763D01*
X102889327Y-82562720D01*
X102628174Y-82454547D01*
X102350935Y-82399400D01*
X102068265Y-82399400D01*
X101791026Y-82454547D01*
X101529873Y-82562720D01*
X101294841Y-82719763D01*
X101094963Y-82919641D01*
X100937920Y-83154673D01*
X100933533Y-83165265D01*
X100821985Y-82979269D01*
X100633014Y-82770881D01*
X100407020Y-82603363D01*
X100152687Y-82483154D01*
X100018639Y-82442496D01*
X99796600Y-82564485D01*
X99542600Y-82564485D01*
X99320561Y-82442496D01*
X99186513Y-82483154D01*
X98932180Y-82603363D01*
X98706186Y-82770881D01*
X98517215Y-82979269D01*
X98405667Y-83165265D01*
X98401280Y-83154673D01*
X98244237Y-82919641D01*
X98044359Y-82719763D01*
X97809327Y-82562720D01*
X97548174Y-82454547D01*
X97270935Y-82399400D01*
X96988265Y-82399400D01*
X96711026Y-82454547D01*
X96449873Y-82562720D01*
X96214841Y-82719763D01*
X96014963Y-82919641D01*
X95859600Y-83152159D01*
X95704237Y-82919641D01*
X95504359Y-82719763D01*
X95269327Y-82562720D01*
X95008174Y-82454547D01*
X94730935Y-82399400D01*
X94448265Y-82399400D01*
X94171026Y-82454547D01*
X93909873Y-82562720D01*
X93674841Y-82719763D01*
X93476243Y-82918361D01*
X93475412Y-82909918D01*
X93439102Y-82790220D01*
X93380137Y-82679906D01*
X93300785Y-82583215D01*
X93204094Y-82503863D01*
X93093780Y-82444898D01*
X92974082Y-82408588D01*
X92849600Y-82396328D01*
X91249600Y-82396328D01*
X91125118Y-82408588D01*
X91005420Y-82444898D01*
X90895106Y-82503863D01*
X90798415Y-82583215D01*
X90719063Y-82679906D01*
X90660098Y-82790220D01*
X90623788Y-82909918D01*
X90611528Y-83034400D01*
X53685000Y-83034400D01*
X53685000Y-68453065D01*
X90614600Y-68453065D01*
X90614600Y-68735735D01*
X90669747Y-69012974D01*
X90777920Y-69274127D01*
X90934963Y-69509159D01*
X91134841Y-69709037D01*
X91369873Y-69866080D01*
X91631026Y-69974253D01*
X91908265Y-70029400D01*
X92190935Y-70029400D01*
X92468174Y-69974253D01*
X92729327Y-69866080D01*
X92964359Y-69709037D01*
X93164237Y-69509159D01*
X93321280Y-69274127D01*
X93325667Y-69263535D01*
X93437215Y-69449531D01*
X93626186Y-69657919D01*
X93852180Y-69825437D01*
X94106513Y-69945646D01*
X94240561Y-69986304D01*
X94462600Y-69864315D01*
X94462600Y-68721400D01*
X94442600Y-68721400D01*
X94442600Y-68467400D01*
X94462600Y-68467400D01*
X94462600Y-67324485D01*
X94716600Y-67324485D01*
X94716600Y-68467400D01*
X94736600Y-68467400D01*
X94736600Y-68721400D01*
X94716600Y-68721400D01*
X94716600Y-69864315D01*
X94938639Y-69986304D01*
X95072687Y-69945646D01*
X95327020Y-69825437D01*
X95553014Y-69657919D01*
X95741985Y-69449531D01*
X95853533Y-69263535D01*
X95857920Y-69274127D01*
X96014963Y-69509159D01*
X96214841Y-69709037D01*
X96449873Y-69866080D01*
X96711026Y-69974253D01*
X96988265Y-70029400D01*
X97270935Y-70029400D01*
X97548174Y-69974253D01*
X97809327Y-69866080D01*
X98044359Y-69709037D01*
X98244237Y-69509159D01*
X98399600Y-69276641D01*
X98554963Y-69509159D01*
X98754841Y-69709037D01*
X98989873Y-69866080D01*
X99251026Y-69974253D01*
X99528265Y-70029400D01*
X99810935Y-70029400D01*
X100088174Y-69974253D01*
X100349327Y-69866080D01*
X100584359Y-69709037D01*
X100784237Y-69509159D01*
X100939600Y-69276641D01*
X101094963Y-69509159D01*
X101294841Y-69709037D01*
X101529873Y-69866080D01*
X101791026Y-69974253D01*
X102068265Y-70029400D01*
X102350935Y-70029400D01*
X102628174Y-69974253D01*
X102889327Y-69866080D01*
X103124359Y-69709037D01*
X103324237Y-69509159D01*
X103479600Y-69276641D01*
X103634963Y-69509159D01*
X103834841Y-69709037D01*
X104069873Y-69866080D01*
X104331026Y-69974253D01*
X104608265Y-70029400D01*
X104890935Y-70029400D01*
X105168174Y-69974253D01*
X105429327Y-69866080D01*
X105664359Y-69709037D01*
X105864237Y-69509159D01*
X106019600Y-69276641D01*
X106174963Y-69509159D01*
X106374841Y-69709037D01*
X106609873Y-69866080D01*
X106871026Y-69974253D01*
X107148265Y-70029400D01*
X107430935Y-70029400D01*
X107708174Y-69974253D01*
X107969327Y-69866080D01*
X108204359Y-69709037D01*
X108404237Y-69509159D01*
X108559600Y-69276641D01*
X108714963Y-69509159D01*
X108914841Y-69709037D01*
X109149873Y-69866080D01*
X109411026Y-69974253D01*
X109688265Y-70029400D01*
X109970935Y-70029400D01*
X110248174Y-69974253D01*
X110509327Y-69866080D01*
X110744359Y-69709037D01*
X110944237Y-69509159D01*
X111099600Y-69276641D01*
X111254963Y-69509159D01*
X111454841Y-69709037D01*
X111689873Y-69866080D01*
X111951026Y-69974253D01*
X112228265Y-70029400D01*
X112510935Y-70029400D01*
X112788174Y-69974253D01*
X113049327Y-69866080D01*
X113284359Y-69709037D01*
X113484237Y-69509159D01*
X113639600Y-69276641D01*
X113794963Y-69509159D01*
X113994841Y-69709037D01*
X114229873Y-69866080D01*
X114491026Y-69974253D01*
X114768265Y-70029400D01*
X115050935Y-70029400D01*
X115328174Y-69974253D01*
X115589327Y-69866080D01*
X115824359Y-69709037D01*
X116024237Y-69509159D01*
X116179600Y-69276641D01*
X116334963Y-69509159D01*
X116534841Y-69709037D01*
X116769873Y-69866080D01*
X117031026Y-69974253D01*
X117308265Y-70029400D01*
X117590935Y-70029400D01*
X117868174Y-69974253D01*
X118129327Y-69866080D01*
X118364359Y-69709037D01*
X118564237Y-69509159D01*
X118719600Y-69276641D01*
X118874963Y-69509159D01*
X119074841Y-69709037D01*
X119309873Y-69866080D01*
X119571026Y-69974253D01*
X119848265Y-70029400D01*
X120130935Y-70029400D01*
X120408174Y-69974253D01*
X120669327Y-69866080D01*
X120904359Y-69709037D01*
X121104237Y-69509159D01*
X121259600Y-69276641D01*
X121414963Y-69509159D01*
X121614841Y-69709037D01*
X121849873Y-69866080D01*
X122111026Y-69974253D01*
X122388265Y-70029400D01*
X122670935Y-70029400D01*
X122948174Y-69974253D01*
X123209327Y-69866080D01*
X123444359Y-69709037D01*
X123644237Y-69509159D01*
X123799600Y-69276641D01*
X123954963Y-69509159D01*
X124154841Y-69709037D01*
X124389873Y-69866080D01*
X124651026Y-69974253D01*
X124928265Y-70029400D01*
X125210935Y-70029400D01*
X125488174Y-69974253D01*
X125749327Y-69866080D01*
X125984359Y-69709037D01*
X126184237Y-69509159D01*
X126339600Y-69276641D01*
X126494963Y-69509159D01*
X126694841Y-69709037D01*
X126929873Y-69866080D01*
X127191026Y-69974253D01*
X127468265Y-70029400D01*
X127750935Y-70029400D01*
X128028174Y-69974253D01*
X128289327Y-69866080D01*
X128524359Y-69709037D01*
X128724237Y-69509159D01*
X128881280Y-69274127D01*
X128989453Y-69012974D01*
X129044600Y-68735735D01*
X129044600Y-68453065D01*
X128989453Y-68175826D01*
X128881280Y-67914673D01*
X128724237Y-67679641D01*
X128524359Y-67479763D01*
X128289327Y-67322720D01*
X128028174Y-67214547D01*
X127750935Y-67159400D01*
X127468265Y-67159400D01*
X127191026Y-67214547D01*
X126929873Y-67322720D01*
X126694841Y-67479763D01*
X126494963Y-67679641D01*
X126339600Y-67912159D01*
X126184237Y-67679641D01*
X125984359Y-67479763D01*
X125749327Y-67322720D01*
X125488174Y-67214547D01*
X125210935Y-67159400D01*
X124928265Y-67159400D01*
X124651026Y-67214547D01*
X124389873Y-67322720D01*
X124154841Y-67479763D01*
X123954963Y-67679641D01*
X123799600Y-67912159D01*
X123644237Y-67679641D01*
X123444359Y-67479763D01*
X123209327Y-67322720D01*
X122948174Y-67214547D01*
X122670935Y-67159400D01*
X122388265Y-67159400D01*
X122111026Y-67214547D01*
X121849873Y-67322720D01*
X121614841Y-67479763D01*
X121414963Y-67679641D01*
X121259600Y-67912159D01*
X121104237Y-67679641D01*
X120904359Y-67479763D01*
X120669327Y-67322720D01*
X120408174Y-67214547D01*
X120130935Y-67159400D01*
X119848265Y-67159400D01*
X119571026Y-67214547D01*
X119309873Y-67322720D01*
X119074841Y-67479763D01*
X118874963Y-67679641D01*
X118719600Y-67912159D01*
X118564237Y-67679641D01*
X118364359Y-67479763D01*
X118129327Y-67322720D01*
X117868174Y-67214547D01*
X117590935Y-67159400D01*
X117308265Y-67159400D01*
X117031026Y-67214547D01*
X116769873Y-67322720D01*
X116534841Y-67479763D01*
X116334963Y-67679641D01*
X116179600Y-67912159D01*
X116024237Y-67679641D01*
X115824359Y-67479763D01*
X115589327Y-67322720D01*
X115328174Y-67214547D01*
X115050935Y-67159400D01*
X114768265Y-67159400D01*
X114491026Y-67214547D01*
X114229873Y-67322720D01*
X113994841Y-67479763D01*
X113794963Y-67679641D01*
X113639600Y-67912159D01*
X113484237Y-67679641D01*
X113284359Y-67479763D01*
X113049327Y-67322720D01*
X112788174Y-67214547D01*
X112510935Y-67159400D01*
X112228265Y-67159400D01*
X111951026Y-67214547D01*
X111689873Y-67322720D01*
X111454841Y-67479763D01*
X111254963Y-67679641D01*
X111099600Y-67912159D01*
X110944237Y-67679641D01*
X110744359Y-67479763D01*
X110509327Y-67322720D01*
X110248174Y-67214547D01*
X109970935Y-67159400D01*
X109688265Y-67159400D01*
X109411026Y-67214547D01*
X109149873Y-67322720D01*
X108914841Y-67479763D01*
X108714963Y-67679641D01*
X108559600Y-67912159D01*
X108404237Y-67679641D01*
X108204359Y-67479763D01*
X107969327Y-67322720D01*
X107708174Y-67214547D01*
X107430935Y-67159400D01*
X107148265Y-67159400D01*
X106871026Y-67214547D01*
X106609873Y-67322720D01*
X106374841Y-67479763D01*
X106174963Y-67679641D01*
X106019600Y-67912159D01*
X105864237Y-67679641D01*
X105664359Y-67479763D01*
X105429327Y-67322720D01*
X105168174Y-67214547D01*
X104890935Y-67159400D01*
X104608265Y-67159400D01*
X104331026Y-67214547D01*
X104069873Y-67322720D01*
X103834841Y-67479763D01*
X103634963Y-67679641D01*
X103479600Y-67912159D01*
X103324237Y-67679641D01*
X103124359Y-67479763D01*
X102889327Y-67322720D01*
X102628174Y-67214547D01*
X102350935Y-67159400D01*
X102068265Y-67159400D01*
X101791026Y-67214547D01*
X101529873Y-67322720D01*
X101294841Y-67479763D01*
X101094963Y-67679641D01*
X100939600Y-67912159D01*
X100784237Y-67679641D01*
X100584359Y-67479763D01*
X100349327Y-67322720D01*
X100088174Y-67214547D01*
X99810935Y-67159400D01*
X99528265Y-67159400D01*
X99251026Y-67214547D01*
X98989873Y-67322720D01*
X98754841Y-67479763D01*
X98554963Y-67679641D01*
X98399600Y-67912159D01*
X98244237Y-67679641D01*
X98044359Y-67479763D01*
X97809327Y-67322720D01*
X97548174Y-67214547D01*
X97270935Y-67159400D01*
X96988265Y-67159400D01*
X96711026Y-67214547D01*
X96449873Y-67322720D01*
X96214841Y-67479763D01*
X96014963Y-67679641D01*
X95857920Y-67914673D01*
X95853533Y-67925265D01*
X95741985Y-67739269D01*
X95553014Y-67530881D01*
X95327020Y-67363363D01*
X95072687Y-67243154D01*
X94938639Y-67202496D01*
X94716600Y-67324485D01*
X94462600Y-67324485D01*
X94240561Y-67202496D01*
X94106513Y-67243154D01*
X93852180Y-67363363D01*
X93626186Y-67530881D01*
X93437215Y-67739269D01*
X93325667Y-67925265D01*
X93321280Y-67914673D01*
X93164237Y-67679641D01*
X92964359Y-67479763D01*
X92729327Y-67322720D01*
X92468174Y-67214547D01*
X92190935Y-67159400D01*
X91908265Y-67159400D01*
X91631026Y-67214547D01*
X91369873Y-67322720D01*
X91134841Y-67479763D01*
X90934963Y-67679641D01*
X90777920Y-67914673D01*
X90669747Y-68175826D01*
X90614600Y-68453065D01*
X53685000Y-68453065D01*
X53685000Y-62187357D01*
X55341000Y-62187357D01*
X55341000Y-62612643D01*
X55423970Y-63029757D01*
X55586719Y-63422670D01*
X55822996Y-63776282D01*
X56123718Y-64077004D01*
X56477330Y-64313281D01*
X56870243Y-64476030D01*
X57287357Y-64559000D01*
X57712643Y-64559000D01*
X58129757Y-64476030D01*
X58522670Y-64313281D01*
X58876282Y-64077004D01*
X59177004Y-63776282D01*
X59413281Y-63422670D01*
X59576030Y-63029757D01*
X59659000Y-62612643D01*
X59659000Y-62187357D01*
X59652171Y-62153024D01*
X121410781Y-62153024D01*
X121542717Y-62448112D01*
X121883445Y-62618959D01*
X122250957Y-62720050D01*
X122631129Y-62747501D01*
X123009351Y-62700257D01*
X123371090Y-62580133D01*
X123618083Y-62448112D01*
X123734668Y-62187357D01*
X135341000Y-62187357D01*
X135341000Y-62612643D01*
X135423970Y-63029757D01*
X135586719Y-63422670D01*
X135822996Y-63776282D01*
X136123718Y-64077004D01*
X136477330Y-64313281D01*
X136870243Y-64476030D01*
X137287357Y-64559000D01*
X137712643Y-64559000D01*
X138129757Y-64476030D01*
X138522670Y-64313281D01*
X138876282Y-64077004D01*
X139177004Y-63776282D01*
X139413281Y-63422670D01*
X139576030Y-63029757D01*
X139659000Y-62612643D01*
X139659000Y-62187357D01*
X139576030Y-61770243D01*
X139413281Y-61377330D01*
X139177004Y-61023718D01*
X138876282Y-60722996D01*
X138522670Y-60486719D01*
X138129757Y-60323970D01*
X137712643Y-60241000D01*
X137287357Y-60241000D01*
X136870243Y-60323970D01*
X136477330Y-60486719D01*
X136123718Y-60722996D01*
X135822996Y-61023718D01*
X135586719Y-61377330D01*
X135423970Y-61770243D01*
X135341000Y-62187357D01*
X123734668Y-62187357D01*
X123750019Y-62153024D01*
X122580400Y-60983405D01*
X121410781Y-62153024D01*
X59652171Y-62153024D01*
X59576030Y-61770243D01*
X59413281Y-61377330D01*
X59177004Y-61023718D01*
X59007815Y-60854529D01*
X120636699Y-60854529D01*
X120683943Y-61232751D01*
X120804067Y-61594490D01*
X120936088Y-61841483D01*
X121231176Y-61973419D01*
X122400795Y-60803800D01*
X122760005Y-60803800D01*
X123929624Y-61973419D01*
X124224712Y-61841483D01*
X124395559Y-61500755D01*
X124496650Y-61133243D01*
X124524101Y-60753071D01*
X124476857Y-60374849D01*
X124356733Y-60013110D01*
X124224712Y-59766117D01*
X123929624Y-59634181D01*
X122760005Y-60803800D01*
X122400795Y-60803800D01*
X121231176Y-59634181D01*
X120936088Y-59766117D01*
X120765241Y-60106845D01*
X120664150Y-60474357D01*
X120636699Y-60854529D01*
X59007815Y-60854529D01*
X58876282Y-60722996D01*
X58522670Y-60486719D01*
X58129757Y-60323970D01*
X57712643Y-60241000D01*
X57287357Y-60241000D01*
X56870243Y-60323970D01*
X56477330Y-60486719D01*
X56123718Y-60722996D01*
X55822996Y-61023718D01*
X55586719Y-61377330D01*
X55423970Y-61770243D01*
X55341000Y-62187357D01*
X53685000Y-62187357D01*
X53685000Y-59208740D01*
X56170865Y-59208740D01*
X56329764Y-59526758D01*
X56708632Y-59719959D01*
X57117913Y-59835534D01*
X57541876Y-59869042D01*
X57964230Y-59819194D01*
X58368744Y-59687908D01*
X58670236Y-59526758D01*
X58829135Y-59208740D01*
X57500000Y-57879605D01*
X56170865Y-59208740D01*
X53685000Y-59208740D01*
X53685000Y-57741876D01*
X55330958Y-57741876D01*
X55380806Y-58164230D01*
X55512092Y-58568744D01*
X55673242Y-58870236D01*
X55991260Y-59029135D01*
X57320395Y-57700000D01*
X57679605Y-57700000D01*
X59008740Y-59029135D01*
X59326758Y-58870236D01*
X59519959Y-58491368D01*
X59635534Y-58082087D01*
X59669042Y-57658124D01*
X59632133Y-57345400D01*
X98007728Y-57345400D01*
X98007728Y-59545400D01*
X98019988Y-59669882D01*
X98056298Y-59789580D01*
X98115263Y-59899894D01*
X98194615Y-59996585D01*
X98291306Y-60075937D01*
X98401620Y-60134902D01*
X98521318Y-60171212D01*
X98645800Y-60183472D01*
X100845800Y-60183472D01*
X100970282Y-60171212D01*
X101089980Y-60134902D01*
X101200294Y-60075937D01*
X101296985Y-59996585D01*
X101376337Y-59899894D01*
X101435302Y-59789580D01*
X101471612Y-59669882D01*
X101483872Y-59545400D01*
X101483872Y-58274517D01*
X108170800Y-58274517D01*
X108170800Y-58616283D01*
X108237475Y-58951481D01*
X108368263Y-59267231D01*
X108558137Y-59551398D01*
X108799802Y-59793063D01*
X109083969Y-59982937D01*
X109399719Y-60113725D01*
X109734917Y-60180400D01*
X110076683Y-60180400D01*
X110411881Y-60113725D01*
X110727631Y-59982937D01*
X111011798Y-59793063D01*
X111253463Y-59551398D01*
X111318157Y-59454576D01*
X121410781Y-59454576D01*
X122580400Y-60624195D01*
X123750019Y-59454576D01*
X123640104Y-59208740D01*
X136170865Y-59208740D01*
X136329764Y-59526758D01*
X136708632Y-59719959D01*
X137117913Y-59835534D01*
X137541876Y-59869042D01*
X137964230Y-59819194D01*
X138368744Y-59687908D01*
X138670236Y-59526758D01*
X138829135Y-59208740D01*
X137500000Y-57879605D01*
X136170865Y-59208740D01*
X123640104Y-59208740D01*
X123618083Y-59159488D01*
X123277355Y-58988641D01*
X122909843Y-58887550D01*
X122529671Y-58860099D01*
X122151449Y-58907343D01*
X121789710Y-59027467D01*
X121542717Y-59159488D01*
X121410781Y-59454576D01*
X111318157Y-59454576D01*
X111443337Y-59267231D01*
X111574125Y-58951481D01*
X111640800Y-58616283D01*
X111640800Y-58274517D01*
X111574125Y-57939319D01*
X111492342Y-57741876D01*
X135330958Y-57741876D01*
X135380806Y-58164230D01*
X135512092Y-58568744D01*
X135673242Y-58870236D01*
X135991260Y-59029135D01*
X137320395Y-57700000D01*
X137679605Y-57700000D01*
X139008740Y-59029135D01*
X139326758Y-58870236D01*
X139519959Y-58491368D01*
X139635534Y-58082087D01*
X139669042Y-57658124D01*
X139619194Y-57235770D01*
X139487908Y-56831256D01*
X139326758Y-56529764D01*
X139008740Y-56370865D01*
X137679605Y-57700000D01*
X137320395Y-57700000D01*
X135991260Y-56370865D01*
X135673242Y-56529764D01*
X135480041Y-56908632D01*
X135364466Y-57317913D01*
X135330958Y-57741876D01*
X111492342Y-57741876D01*
X111443337Y-57623569D01*
X111253463Y-57339402D01*
X111011798Y-57097737D01*
X110727631Y-56907863D01*
X110411881Y-56777075D01*
X110076683Y-56710400D01*
X109734917Y-56710400D01*
X109399719Y-56777075D01*
X109083969Y-56907863D01*
X108799802Y-57097737D01*
X108558137Y-57339402D01*
X108368263Y-57623569D01*
X108237475Y-57939319D01*
X108170800Y-58274517D01*
X101483872Y-58274517D01*
X101483872Y-57345400D01*
X101471612Y-57220918D01*
X101435302Y-57101220D01*
X101376337Y-56990906D01*
X101296985Y-56894215D01*
X101200294Y-56814863D01*
X101089980Y-56755898D01*
X100970282Y-56719588D01*
X100845800Y-56707328D01*
X98645800Y-56707328D01*
X98521318Y-56719588D01*
X98401620Y-56755898D01*
X98291306Y-56814863D01*
X98194615Y-56894215D01*
X98115263Y-56990906D01*
X98056298Y-57101220D01*
X98019988Y-57220918D01*
X98007728Y-57345400D01*
X59632133Y-57345400D01*
X59619194Y-57235770D01*
X59487908Y-56831256D01*
X59326758Y-56529764D01*
X59008740Y-56370865D01*
X57679605Y-57700000D01*
X57320395Y-57700000D01*
X55991260Y-56370865D01*
X55673242Y-56529764D01*
X55480041Y-56908632D01*
X55364466Y-57317913D01*
X55330958Y-57741876D01*
X53685000Y-57741876D01*
X53685000Y-56191260D01*
X56170865Y-56191260D01*
X57500000Y-57520395D01*
X58829135Y-56191260D01*
X58670236Y-55873242D01*
X58291368Y-55680041D01*
X57882087Y-55564466D01*
X57458124Y-55530958D01*
X57035770Y-55580806D01*
X56631256Y-55712092D01*
X56329764Y-55873242D01*
X56170865Y-56191260D01*
X53685000Y-56191260D01*
X53685000Y-52787357D01*
X55341000Y-52787357D01*
X55341000Y-53212643D01*
X55423970Y-53629757D01*
X55586719Y-54022670D01*
X55822996Y-54376282D01*
X56123718Y-54677004D01*
X56477330Y-54913281D01*
X56870243Y-55076030D01*
X57287357Y-55159000D01*
X57712643Y-55159000D01*
X58129757Y-55076030D01*
X58522670Y-54913281D01*
X58876282Y-54677004D01*
X59049486Y-54503800D01*
X120642328Y-54503800D01*
X120642328Y-57103800D01*
X120654588Y-57228282D01*
X120690898Y-57347980D01*
X120749863Y-57458294D01*
X120829215Y-57554985D01*
X120925906Y-57634337D01*
X121036220Y-57693302D01*
X121155918Y-57729612D01*
X121280400Y-57741872D01*
X123880400Y-57741872D01*
X124004882Y-57729612D01*
X124124580Y-57693302D01*
X124234894Y-57634337D01*
X124331585Y-57554985D01*
X124410937Y-57458294D01*
X124469902Y-57347980D01*
X124506212Y-57228282D01*
X124518472Y-57103800D01*
X124518472Y-56191260D01*
X136170865Y-56191260D01*
X137500000Y-57520395D01*
X138829135Y-56191260D01*
X138670236Y-55873242D01*
X138291368Y-55680041D01*
X137882087Y-55564466D01*
X137458124Y-55530958D01*
X137035770Y-55580806D01*
X136631256Y-55712092D01*
X136329764Y-55873242D01*
X136170865Y-56191260D01*
X124518472Y-56191260D01*
X124518472Y-54503800D01*
X124506212Y-54379318D01*
X124469902Y-54259620D01*
X124410937Y-54149306D01*
X124331585Y-54052615D01*
X124234894Y-53973263D01*
X124124580Y-53914298D01*
X124004882Y-53877988D01*
X123880400Y-53865728D01*
X121280400Y-53865728D01*
X121155918Y-53877988D01*
X121036220Y-53914298D01*
X120925906Y-53973263D01*
X120829215Y-54052615D01*
X120749863Y-54149306D01*
X120690898Y-54259620D01*
X120654588Y-54379318D01*
X120642328Y-54503800D01*
X59049486Y-54503800D01*
X59177004Y-54376282D01*
X59413281Y-54022670D01*
X59576030Y-53629757D01*
X59659000Y-53212643D01*
X59659000Y-52787357D01*
X135341000Y-52787357D01*
X135341000Y-53212643D01*
X135423970Y-53629757D01*
X135586719Y-54022670D01*
X135822996Y-54376282D01*
X136123718Y-54677004D01*
X136477330Y-54913281D01*
X136870243Y-55076030D01*
X137287357Y-55159000D01*
X137712643Y-55159000D01*
X138129757Y-55076030D01*
X138522670Y-54913281D01*
X138876282Y-54677004D01*
X139177004Y-54376282D01*
X139413281Y-54022670D01*
X139576030Y-53629757D01*
X139659000Y-53212643D01*
X139659000Y-52787357D01*
X139576030Y-52370243D01*
X139413281Y-51977330D01*
X139177004Y-51623718D01*
X138876282Y-51322996D01*
X138522670Y-51086719D01*
X138129757Y-50923970D01*
X137712643Y-50841000D01*
X137287357Y-50841000D01*
X136870243Y-50923970D01*
X136477330Y-51086719D01*
X136123718Y-51322996D01*
X135822996Y-51623718D01*
X135586719Y-51977330D01*
X135423970Y-52370243D01*
X135341000Y-52787357D01*
X59659000Y-52787357D01*
X59576030Y-52370243D01*
X59413281Y-51977330D01*
X59177004Y-51623718D01*
X58876282Y-51322996D01*
X58522670Y-51086719D01*
X58129757Y-50923970D01*
X57712643Y-50841000D01*
X57287357Y-50841000D01*
X56870243Y-50923970D01*
X56477330Y-51086719D01*
X56123718Y-51322996D01*
X55822996Y-51623718D01*
X55586719Y-51977330D01*
X55423970Y-52370243D01*
X55341000Y-52787357D01*
X53685000Y-52787357D01*
X53685000Y-51966353D01*
X53683721Y-51953370D01*
X54469861Y-50774161D01*
X54481954Y-50767622D01*
X54731195Y-50690469D01*
X54871819Y-50675689D01*
X54966353Y-50685000D01*
G37*
G04 #@! TD.AperFunction*
M02*
