M48
; DRILL file {KiCad (5.1.9)-1} date 03/01/21 16:48:04
; FORMAT={-:-/ absolute / inch / decimal}
; #@! TF.CreationDate,2021-03-01T16:48:04-06:00
; #@! TF.GenerationSoftware,Kicad,Pcbnew,(5.1.9)-1
; #@! TF.FileFunction,Plated,1,2,PTH
FMAT,2
INCH
T1C0.0315
T2C0.0433
T3C0.0512
T4C0.0730
%
G90
G05
T1
X3.624Y-2.7006
X3.624Y-3.3006
X3.724Y-2.7006
X3.724Y-3.3006
X3.824Y-2.7006
X3.824Y-3.3006
X3.924Y-2.7006
X3.924Y-3.3006
X4.024Y-2.7006
X4.024Y-3.3006
X4.124Y-2.7006
X4.124Y-3.3006
X4.224Y-2.7006
X4.224Y-3.3006
X4.324Y-2.7006
X4.324Y-3.3006
X4.424Y-2.7006
X4.424Y-3.3006
X4.524Y-2.7006
X4.524Y-3.3006
X4.624Y-2.7006
X4.624Y-3.3006
X4.724Y-2.7006
X4.724Y-3.3006
X4.824Y-2.7006
X4.824Y-3.3006
X4.924Y-2.7006
X4.924Y-3.3006
X5.024Y-2.7006
X5.024Y-3.3006
T2
X3.927Y-2.301
X4.327Y-2.301
T3
X4.826Y-2.197
X4.826Y-2.3939
T4
X2.2638Y-2.0866
X2.2638Y-2.2717
X2.2638Y-2.4567
X2.2638Y-3.5433
X2.2638Y-3.7283
X2.2638Y-3.9134
X3.0512Y-3.5433
X3.0512Y-3.7283
X3.0512Y-3.9134
X3.8386Y-3.5433
X3.8386Y-3.7283
X3.8386Y-3.9134
X4.626Y-3.5433
X4.626Y-3.7283
X4.626Y-3.9134
X5.4134Y-2.0866
X5.4134Y-2.2717
X5.4134Y-2.4567
X5.4134Y-3.5433
X5.4134Y-3.7283
X5.4134Y-3.9134
T0
M30
