G04 #@! TF.GenerationSoftware,KiCad,Pcbnew,(5.1.9)-1*
G04 #@! TF.CreationDate,2021-03-01T16:48:06-06:00*
G04 #@! TF.ProjectId,SW2,5357322e-6b69-4636-9164-5f7063625858,rev?*
G04 #@! TF.SameCoordinates,Original*
G04 #@! TF.FileFunction,Legend,Top*
G04 #@! TF.FilePolarity,Positive*
%FSLAX46Y46*%
G04 Gerber Fmt 4.6, Leading zero omitted, Abs format (unit mm)*
G04 Created by KiCad (PCBNEW (5.1.9)-1) date 2021-03-01 16:48:06*
%MOMM*%
%LPD*%
G01*
G04 APERTURE LIST*
%ADD10C,0.300000*%
%ADD11C,0.150000*%
%ADD12C,0.120000*%
G04 APERTURE END LIST*
D10*
X94073257Y-52293057D02*
X94287542Y-52364485D01*
X94358971Y-52435914D01*
X94430400Y-52578771D01*
X94430400Y-52793057D01*
X94358971Y-52935914D01*
X94287542Y-53007342D01*
X94144685Y-53078771D01*
X93573257Y-53078771D01*
X93573257Y-51578771D01*
X94073257Y-51578771D01*
X94216114Y-51650200D01*
X94287542Y-51721628D01*
X94358971Y-51864485D01*
X94358971Y-52007342D01*
X94287542Y-52150200D01*
X94216114Y-52221628D01*
X94073257Y-52293057D01*
X93573257Y-52293057D01*
X95287542Y-53078771D02*
X95144685Y-53007342D01*
X95073257Y-52935914D01*
X95001828Y-52793057D01*
X95001828Y-52364485D01*
X95073257Y-52221628D01*
X95144685Y-52150200D01*
X95287542Y-52078771D01*
X95501828Y-52078771D01*
X95644685Y-52150200D01*
X95716114Y-52221628D01*
X95787542Y-52364485D01*
X95787542Y-52793057D01*
X95716114Y-52935914D01*
X95644685Y-53007342D01*
X95501828Y-53078771D01*
X95287542Y-53078771D01*
X96216114Y-52078771D02*
X96787542Y-52078771D01*
X96430400Y-51578771D02*
X96430400Y-52864485D01*
X96501828Y-53007342D01*
X96644685Y-53078771D01*
X96787542Y-53078771D01*
X97073257Y-52078771D02*
X97644685Y-52078771D01*
X97287542Y-51578771D02*
X97287542Y-52864485D01*
X97358971Y-53007342D01*
X97501828Y-53078771D01*
X97644685Y-53078771D01*
X98358971Y-53078771D02*
X98216114Y-53007342D01*
X98144685Y-52935914D01*
X98073257Y-52793057D01*
X98073257Y-52364485D01*
X98144685Y-52221628D01*
X98216114Y-52150200D01*
X98358971Y-52078771D01*
X98573257Y-52078771D01*
X98716114Y-52150200D01*
X98787542Y-52221628D01*
X98858971Y-52364485D01*
X98858971Y-52793057D01*
X98787542Y-52935914D01*
X98716114Y-53007342D01*
X98573257Y-53078771D01*
X98358971Y-53078771D01*
X99501828Y-53078771D02*
X99501828Y-52078771D01*
X99501828Y-52221628D02*
X99573257Y-52150200D01*
X99716114Y-52078771D01*
X99930400Y-52078771D01*
X100073257Y-52150200D01*
X100144685Y-52293057D01*
X100144685Y-53078771D01*
X100144685Y-52293057D02*
X100216114Y-52150200D01*
X100358971Y-52078771D01*
X100573257Y-52078771D01*
X100716114Y-52150200D01*
X100787542Y-52293057D01*
X100787542Y-53078771D01*
X58462828Y-75776971D02*
X57319971Y-76205542D01*
X58462828Y-76634114D01*
X59177114Y-76205542D02*
X60319971Y-76205542D01*
X61034257Y-76205542D02*
X62177114Y-76205542D01*
X62891400Y-75991257D02*
X63391400Y-75991257D01*
X63605685Y-76776971D02*
X62891400Y-76776971D01*
X62891400Y-75276971D01*
X63605685Y-75276971D01*
X64034257Y-75776971D02*
X64605685Y-75776971D01*
X64248542Y-75276971D02*
X64248542Y-76562685D01*
X64319971Y-76705542D01*
X64462828Y-76776971D01*
X64605685Y-76776971D01*
X65105685Y-76776971D02*
X65105685Y-75276971D01*
X65748542Y-76776971D02*
X65748542Y-75991257D01*
X65677114Y-75848400D01*
X65534257Y-75776971D01*
X65319971Y-75776971D01*
X65177114Y-75848400D01*
X65105685Y-75919828D01*
X67034257Y-76705542D02*
X66891400Y-76776971D01*
X66605685Y-76776971D01*
X66462828Y-76705542D01*
X66391400Y-76562685D01*
X66391400Y-75991257D01*
X66462828Y-75848400D01*
X66605685Y-75776971D01*
X66891400Y-75776971D01*
X67034257Y-75848400D01*
X67105685Y-75991257D01*
X67105685Y-76134114D01*
X66391400Y-76276971D01*
X67748542Y-76776971D02*
X67748542Y-75776971D01*
X67748542Y-76062685D02*
X67819971Y-75919828D01*
X67891400Y-75848400D01*
X68034257Y-75776971D01*
X68177114Y-75776971D01*
X68677114Y-75776971D02*
X68677114Y-76776971D01*
X68677114Y-75919828D02*
X68748542Y-75848400D01*
X68891400Y-75776971D01*
X69105685Y-75776971D01*
X69248542Y-75848400D01*
X69319971Y-75991257D01*
X69319971Y-76776971D01*
X70605685Y-76705542D02*
X70462828Y-76776971D01*
X70177114Y-76776971D01*
X70034257Y-76705542D01*
X69962828Y-76562685D01*
X69962828Y-75991257D01*
X70034257Y-75848400D01*
X70177114Y-75776971D01*
X70462828Y-75776971D01*
X70605685Y-75848400D01*
X70677114Y-75991257D01*
X70677114Y-76134114D01*
X69962828Y-76276971D01*
X71105685Y-75776971D02*
X71677114Y-75776971D01*
X71319971Y-75276971D02*
X71319971Y-76562685D01*
X71391400Y-76705542D01*
X71534257Y-76776971D01*
X71677114Y-76776971D01*
X74177114Y-76634114D02*
X74105685Y-76705542D01*
X73891400Y-76776971D01*
X73748542Y-76776971D01*
X73534257Y-76705542D01*
X73391400Y-76562685D01*
X73319971Y-76419828D01*
X73248542Y-76134114D01*
X73248542Y-75919828D01*
X73319971Y-75634114D01*
X73391400Y-75491257D01*
X73534257Y-75348400D01*
X73748542Y-75276971D01*
X73891400Y-75276971D01*
X74105685Y-75348400D01*
X74177114Y-75419828D01*
X75462828Y-76776971D02*
X75462828Y-75991257D01*
X75391400Y-75848400D01*
X75248542Y-75776971D01*
X74962828Y-75776971D01*
X74819971Y-75848400D01*
X75462828Y-76705542D02*
X75319971Y-76776971D01*
X74962828Y-76776971D01*
X74819971Y-76705542D01*
X74748542Y-76562685D01*
X74748542Y-76419828D01*
X74819971Y-76276971D01*
X74962828Y-76205542D01*
X75319971Y-76205542D01*
X75462828Y-76134114D01*
X76177114Y-76776971D02*
X76177114Y-75276971D01*
X76177114Y-75848400D02*
X76319971Y-75776971D01*
X76605685Y-75776971D01*
X76748542Y-75848400D01*
X76819971Y-75919828D01*
X76891400Y-76062685D01*
X76891400Y-76491257D01*
X76819971Y-76634114D01*
X76748542Y-76705542D01*
X76605685Y-76776971D01*
X76319971Y-76776971D01*
X76177114Y-76705542D01*
X77748542Y-76776971D02*
X77605685Y-76705542D01*
X77534257Y-76562685D01*
X77534257Y-75276971D01*
X78891400Y-76705542D02*
X78748542Y-76776971D01*
X78462828Y-76776971D01*
X78319971Y-76705542D01*
X78248542Y-76562685D01*
X78248542Y-75991257D01*
X78319971Y-75848400D01*
X78462828Y-75776971D01*
X78748542Y-75776971D01*
X78891400Y-75848400D01*
X78962828Y-75991257D01*
X78962828Y-76134114D01*
X78248542Y-76276971D01*
X79605685Y-76205542D02*
X80748542Y-76205542D01*
X81462828Y-76205542D02*
X82605685Y-76205542D01*
X83319971Y-75776971D02*
X84462828Y-76205542D01*
X83319971Y-76634114D01*
D11*
X115481123Y-55383180D02*
X115004933Y-55383180D01*
X114957314Y-55859371D01*
X115004933Y-55811752D01*
X115100171Y-55764133D01*
X115338266Y-55764133D01*
X115433504Y-55811752D01*
X115481123Y-55859371D01*
X115528742Y-55954609D01*
X115528742Y-56192704D01*
X115481123Y-56287942D01*
X115433504Y-56335561D01*
X115338266Y-56383180D01*
X115100171Y-56383180D01*
X115004933Y-56335561D01*
X114957314Y-56287942D01*
X115814457Y-55383180D02*
X116147790Y-56383180D01*
X116481123Y-55383180D01*
X114477895Y-60282200D02*
X114382657Y-60234580D01*
X114239800Y-60234580D01*
X114096942Y-60282200D01*
X114001704Y-60377438D01*
X113954085Y-60472676D01*
X113906466Y-60663152D01*
X113906466Y-60806009D01*
X113954085Y-60996485D01*
X114001704Y-61091723D01*
X114096942Y-61186961D01*
X114239800Y-61234580D01*
X114335038Y-61234580D01*
X114477895Y-61186961D01*
X114525514Y-61139342D01*
X114525514Y-60806009D01*
X114335038Y-60806009D01*
X114954085Y-61234580D02*
X114954085Y-60234580D01*
X115525514Y-61234580D01*
X115525514Y-60234580D01*
X116001704Y-61234580D02*
X116001704Y-60234580D01*
X116239800Y-60234580D01*
X116382657Y-60282200D01*
X116477895Y-60377438D01*
X116525514Y-60472676D01*
X116573133Y-60663152D01*
X116573133Y-60806009D01*
X116525514Y-60996485D01*
X116477895Y-61091723D01*
X116382657Y-61186961D01*
X116239800Y-61234580D01*
X116001704Y-61234580D01*
X68523742Y-51915961D02*
X68666600Y-51963580D01*
X68904695Y-51963580D01*
X68999933Y-51915961D01*
X69047552Y-51868342D01*
X69095171Y-51773104D01*
X69095171Y-51677866D01*
X69047552Y-51582628D01*
X68999933Y-51535009D01*
X68904695Y-51487390D01*
X68714219Y-51439771D01*
X68618980Y-51392152D01*
X68571361Y-51344533D01*
X68523742Y-51249295D01*
X68523742Y-51154057D01*
X68571361Y-51058819D01*
X68618980Y-51011200D01*
X68714219Y-50963580D01*
X68952314Y-50963580D01*
X69095171Y-51011200D01*
X69428504Y-50963580D02*
X69666600Y-51963580D01*
X69857076Y-51249295D01*
X70047552Y-51963580D01*
X70285647Y-50963580D01*
X70618980Y-51058819D02*
X70666600Y-51011200D01*
X70761838Y-50963580D01*
X70999933Y-50963580D01*
X71095171Y-51011200D01*
X71142790Y-51058819D01*
X71190409Y-51154057D01*
X71190409Y-51249295D01*
X71142790Y-51392152D01*
X70571361Y-51963580D01*
X71190409Y-51963580D01*
X72571361Y-50963580D02*
X72666600Y-50963580D01*
X72761838Y-51011200D01*
X72809457Y-51058819D01*
X72857076Y-51154057D01*
X72904695Y-51344533D01*
X72904695Y-51582628D01*
X72857076Y-51773104D01*
X72809457Y-51868342D01*
X72761838Y-51915961D01*
X72666600Y-51963580D01*
X72571361Y-51963580D01*
X72476123Y-51915961D01*
X72428504Y-51868342D01*
X72380885Y-51773104D01*
X72333266Y-51582628D01*
X72333266Y-51344533D01*
X72380885Y-51154057D01*
X72428504Y-51058819D01*
X72476123Y-51011200D01*
X72571361Y-50963580D01*
X73857076Y-51963580D02*
X73285647Y-51963580D01*
X73571361Y-51963580D02*
X73571361Y-50963580D01*
X73476123Y-51106438D01*
X73380885Y-51201676D01*
X73285647Y-51249295D01*
X74285647Y-51582628D02*
X75047552Y-51582628D01*
X75523742Y-51963580D02*
X75523742Y-50963580D01*
X75857076Y-51677866D01*
X76190409Y-50963580D01*
X76190409Y-51963580D01*
X77095171Y-51963580D02*
X77095171Y-51439771D01*
X77047552Y-51344533D01*
X76952314Y-51296914D01*
X76761838Y-51296914D01*
X76666600Y-51344533D01*
X77095171Y-51915961D02*
X76999933Y-51963580D01*
X76761838Y-51963580D01*
X76666600Y-51915961D01*
X76618980Y-51820723D01*
X76618980Y-51725485D01*
X76666600Y-51630247D01*
X76761838Y-51582628D01*
X76999933Y-51582628D01*
X77095171Y-51535009D01*
X77571361Y-51963580D02*
X77571361Y-51296914D01*
X77571361Y-51487390D02*
X77618980Y-51392152D01*
X77666600Y-51344533D01*
X77761838Y-51296914D01*
X77857076Y-51296914D01*
X78190409Y-51582628D02*
X78952314Y-51582628D01*
X79380885Y-51058819D02*
X79428504Y-51011200D01*
X79523742Y-50963580D01*
X79761838Y-50963580D01*
X79857076Y-51011200D01*
X79904695Y-51058819D01*
X79952314Y-51154057D01*
X79952314Y-51249295D01*
X79904695Y-51392152D01*
X79333266Y-51963580D01*
X79952314Y-51963580D01*
X80571361Y-50963580D02*
X80666600Y-50963580D01*
X80761838Y-51011200D01*
X80809457Y-51058819D01*
X80857076Y-51154057D01*
X80904695Y-51344533D01*
X80904695Y-51582628D01*
X80857076Y-51773104D01*
X80809457Y-51868342D01*
X80761838Y-51915961D01*
X80666600Y-51963580D01*
X80571361Y-51963580D01*
X80476123Y-51915961D01*
X80428504Y-51868342D01*
X80380885Y-51773104D01*
X80333266Y-51582628D01*
X80333266Y-51344533D01*
X80380885Y-51154057D01*
X80428504Y-51058819D01*
X80476123Y-51011200D01*
X80571361Y-50963580D01*
X81285647Y-51058819D02*
X81333266Y-51011200D01*
X81428504Y-50963580D01*
X81666600Y-50963580D01*
X81761838Y-51011200D01*
X81809457Y-51058819D01*
X81857076Y-51154057D01*
X81857076Y-51249295D01*
X81809457Y-51392152D01*
X81238028Y-51963580D01*
X81857076Y-51963580D01*
X82809457Y-51963580D02*
X82238028Y-51963580D01*
X82523742Y-51963580D02*
X82523742Y-50963580D01*
X82428504Y-51106438D01*
X82333266Y-51201676D01*
X82238028Y-51249295D01*
D12*
X102105800Y-56975400D02*
X102105800Y-59915400D01*
X102105800Y-59915400D02*
X107545800Y-59915400D01*
X107545800Y-59915400D02*
X107545800Y-56975400D01*
X107545800Y-56975400D02*
X102105800Y-56975400D01*
X101085800Y-58445400D02*
X102105800Y-58445400D01*
X108565800Y-58445400D02*
X107545800Y-58445400D01*
X103005800Y-56975400D02*
X103005800Y-59915400D01*
X103125800Y-56975400D02*
X103125800Y-59915400D01*
X102885800Y-56975400D02*
X102885800Y-59915400D01*
X73563000Y-101226800D02*
X81462400Y-101226800D01*
X81462400Y-88222000D02*
X81462400Y-101226800D01*
X73563000Y-88222000D02*
X81462400Y-88222000D01*
X73563000Y-88222000D02*
X73563000Y-101226800D01*
X124760400Y-55803800D02*
G75*
G03*
X124760400Y-55803800I-2180000J0D01*
G01*
X124760400Y-60803800D02*
G75*
G03*
X124760400Y-60803800I-2180000J0D01*
G01*
X117980400Y-53243800D02*
X117980400Y-63363800D01*
X119080400Y-53243800D02*
X119080400Y-63363800D01*
X126640400Y-53243800D02*
X126640400Y-63363800D01*
X117520400Y-53243800D02*
X117520400Y-63363800D01*
X126640400Y-53243800D02*
X117520400Y-53243800D01*
X126640400Y-63363800D02*
X117520400Y-63363800D01*
X123968400Y-57457800D02*
X123861400Y-57350800D01*
X121033400Y-54521800D02*
X120926400Y-54415800D01*
X124234400Y-57191800D02*
X124127400Y-57084800D01*
X121299400Y-54255800D02*
X121192400Y-54149800D01*
X123968400Y-62457800D02*
X123572400Y-62062800D01*
X121306400Y-59796800D02*
X120926400Y-59416800D01*
X124234400Y-62191800D02*
X123854400Y-61811800D01*
X121588400Y-59545800D02*
X121192400Y-59150800D01*
X117920400Y-53003800D02*
X117280400Y-53003800D01*
X117280400Y-53003800D02*
X117280400Y-53403800D01*
X93319600Y-82564400D02*
X90779600Y-82564400D01*
X90779600Y-82564400D02*
X90779600Y-85234400D01*
X93319600Y-85234400D02*
X131549600Y-85234400D01*
X88109600Y-85234400D02*
X90779600Y-85234400D01*
X90779600Y-69864400D02*
X90779600Y-67194400D01*
X90779600Y-69864400D02*
X128879600Y-69864400D01*
X128879600Y-69864400D02*
X128879600Y-67194400D01*
X93319600Y-82564400D02*
X93319600Y-85234400D01*
X93319600Y-82564400D02*
X128879600Y-82564400D01*
X128879600Y-82564400D02*
X128879600Y-85234400D01*
X131549600Y-85234400D02*
X131549600Y-67194400D01*
X131549600Y-67194400D02*
X88109600Y-67194400D01*
X88109600Y-67194400D02*
X88109600Y-85234400D01*
X133563000Y-64226800D02*
X141462400Y-64226800D01*
X141462400Y-51222000D02*
X141462400Y-64226800D01*
X133563000Y-51222000D02*
X141462400Y-51222000D01*
X133563000Y-51222000D02*
X133563000Y-64226800D01*
X53563000Y-101226800D02*
X61462400Y-101226800D01*
X61462400Y-88222000D02*
X61462400Y-101226800D01*
X53563000Y-88222000D02*
X61462400Y-88222000D01*
X53563000Y-88222000D02*
X53563000Y-101226800D01*
X53563000Y-64226800D02*
X61462400Y-64226800D01*
X61462400Y-51222000D02*
X61462400Y-64226800D01*
X53563000Y-51222000D02*
X61462400Y-51222000D01*
X53563000Y-51222000D02*
X53563000Y-64226800D01*
X93563000Y-101226800D02*
X101462400Y-101226800D01*
X101462400Y-88222000D02*
X101462400Y-101226800D01*
X93563000Y-88222000D02*
X101462400Y-88222000D01*
X93563000Y-88222000D02*
X93563000Y-101226800D01*
X113563000Y-101226800D02*
X121462400Y-101226800D01*
X121462400Y-88222000D02*
X121462400Y-101226800D01*
X113563000Y-88222000D02*
X121462400Y-88222000D01*
X113563000Y-88222000D02*
X113563000Y-101226800D01*
X133563000Y-101226800D02*
X141462400Y-101226800D01*
X141462400Y-88222000D02*
X141462400Y-101226800D01*
X133563000Y-88222000D02*
X141462400Y-88222000D01*
X133563000Y-88222000D02*
X133563000Y-101226800D01*
D11*
X104087704Y-56427780D02*
X104087704Y-55427780D01*
X104325800Y-55427780D01*
X104468657Y-55475400D01*
X104563895Y-55570638D01*
X104611514Y-55665876D01*
X104659133Y-55856352D01*
X104659133Y-55999209D01*
X104611514Y-56189685D01*
X104563895Y-56284923D01*
X104468657Y-56380161D01*
X104325800Y-56427780D01*
X104087704Y-56427780D01*
X105611514Y-56427780D02*
X105040085Y-56427780D01*
X105325800Y-56427780D02*
X105325800Y-55427780D01*
X105230561Y-55570638D01*
X105135323Y-55665876D01*
X105040085Y-55713495D01*
X102682942Y-61367780D02*
X102111514Y-61367780D01*
X102397228Y-61367780D02*
X102397228Y-60367780D01*
X102301990Y-60510638D01*
X102206752Y-60605876D01*
X102111514Y-60653495D01*
X103111514Y-61367780D02*
X103111514Y-60367780D01*
X103682942Y-61367780D01*
X103682942Y-60367780D01*
X104587704Y-60701114D02*
X104587704Y-61367780D01*
X104349609Y-60320161D02*
X104111514Y-61034447D01*
X104730561Y-61034447D01*
X105301990Y-60367780D02*
X105397228Y-60367780D01*
X105492466Y-60415400D01*
X105540085Y-60463019D01*
X105587704Y-60558257D01*
X105635323Y-60748733D01*
X105635323Y-60986828D01*
X105587704Y-61177304D01*
X105540085Y-61272542D01*
X105492466Y-61320161D01*
X105397228Y-61367780D01*
X105301990Y-61367780D01*
X105206752Y-61320161D01*
X105159133Y-61272542D01*
X105111514Y-61177304D01*
X105063895Y-60986828D01*
X105063895Y-60748733D01*
X105111514Y-60558257D01*
X105159133Y-60463019D01*
X105206752Y-60415400D01*
X105301990Y-60367780D01*
X106254371Y-60367780D02*
X106349609Y-60367780D01*
X106444847Y-60415400D01*
X106492466Y-60463019D01*
X106540085Y-60558257D01*
X106587704Y-60748733D01*
X106587704Y-60986828D01*
X106540085Y-61177304D01*
X106492466Y-61272542D01*
X106444847Y-61320161D01*
X106349609Y-61367780D01*
X106254371Y-61367780D01*
X106159133Y-61320161D01*
X106111514Y-61272542D01*
X106063895Y-61177304D01*
X106016276Y-60986828D01*
X106016276Y-60748733D01*
X106063895Y-60558257D01*
X106111514Y-60463019D01*
X106159133Y-60415400D01*
X106254371Y-60367780D01*
X106921038Y-60367780D02*
X107587704Y-60367780D01*
X107159133Y-61367780D01*
X99483895Y-56797780D02*
X99483895Y-55797780D01*
X100055323Y-56797780D02*
X99626752Y-56226352D01*
X100055323Y-55797780D02*
X99483895Y-56369209D01*
X82166666Y-99904761D02*
X82309523Y-99952380D01*
X82547619Y-99952380D01*
X82642857Y-99904761D01*
X82690476Y-99857142D01*
X82738095Y-99761904D01*
X82738095Y-99666666D01*
X82690476Y-99571428D01*
X82642857Y-99523809D01*
X82547619Y-99476190D01*
X82357142Y-99428571D01*
X82261904Y-99380952D01*
X82214285Y-99333333D01*
X82166666Y-99238095D01*
X82166666Y-99142857D01*
X82214285Y-99047619D01*
X82261904Y-99000000D01*
X82357142Y-98952380D01*
X82595238Y-98952380D01*
X82738095Y-99000000D01*
X83071428Y-98952380D02*
X83309523Y-99952380D01*
X83500000Y-99238095D01*
X83690476Y-99952380D01*
X83928571Y-98952380D01*
X84738095Y-99285714D02*
X84738095Y-99952380D01*
X84500000Y-98904761D02*
X84261904Y-99619047D01*
X84880952Y-99619047D01*
X77449295Y-87305961D02*
X77592152Y-87353580D01*
X77830247Y-87353580D01*
X77925485Y-87305961D01*
X77973104Y-87258342D01*
X78020723Y-87163104D01*
X78020723Y-87067866D01*
X77973104Y-86972628D01*
X77925485Y-86925009D01*
X77830247Y-86877390D01*
X77639771Y-86829771D01*
X77544533Y-86782152D01*
X77496914Y-86734533D01*
X77449295Y-86639295D01*
X77449295Y-86544057D01*
X77496914Y-86448819D01*
X77544533Y-86401200D01*
X77639771Y-86353580D01*
X77877866Y-86353580D01*
X78020723Y-86401200D01*
X78877866Y-86686914D02*
X78877866Y-87353580D01*
X78639771Y-86305961D02*
X78401676Y-87020247D01*
X79020723Y-87020247D01*
X121942266Y-51344580D02*
X121942266Y-52058866D01*
X121894647Y-52201723D01*
X121799409Y-52296961D01*
X121656552Y-52344580D01*
X121561314Y-52344580D01*
X122942266Y-52344580D02*
X122370838Y-52344580D01*
X122656552Y-52344580D02*
X122656552Y-51344580D01*
X122561314Y-51487438D01*
X122466076Y-51582676D01*
X122370838Y-51630295D01*
X120070809Y-65196980D02*
X120070809Y-64196980D01*
X120451761Y-64196980D01*
X120547000Y-64244600D01*
X120594619Y-64292219D01*
X120642238Y-64387457D01*
X120642238Y-64530314D01*
X120594619Y-64625552D01*
X120547000Y-64673171D01*
X120451761Y-64720790D01*
X120070809Y-64720790D01*
X121213666Y-65196980D02*
X121118428Y-65149361D01*
X121070809Y-65101742D01*
X121023190Y-65006504D01*
X121023190Y-64720790D01*
X121070809Y-64625552D01*
X121118428Y-64577933D01*
X121213666Y-64530314D01*
X121356523Y-64530314D01*
X121451761Y-64577933D01*
X121499380Y-64625552D01*
X121547000Y-64720790D01*
X121547000Y-65006504D01*
X121499380Y-65101742D01*
X121451761Y-65149361D01*
X121356523Y-65196980D01*
X121213666Y-65196980D01*
X121880333Y-64530314D02*
X122070809Y-65196980D01*
X122261285Y-64720790D01*
X122451761Y-65196980D01*
X122642238Y-64530314D01*
X123404142Y-65149361D02*
X123308904Y-65196980D01*
X123118428Y-65196980D01*
X123023190Y-65149361D01*
X122975571Y-65054123D01*
X122975571Y-64673171D01*
X123023190Y-64577933D01*
X123118428Y-64530314D01*
X123308904Y-64530314D01*
X123404142Y-64577933D01*
X123451761Y-64673171D01*
X123451761Y-64768409D01*
X122975571Y-64863647D01*
X123880333Y-65196980D02*
X123880333Y-64530314D01*
X123880333Y-64720790D02*
X123927952Y-64625552D01*
X123975571Y-64577933D01*
X124070809Y-64530314D01*
X124166047Y-64530314D01*
X119808714Y-74069666D02*
X120284904Y-74069666D01*
X119713476Y-74355380D02*
X120046809Y-73355380D01*
X120380142Y-74355380D01*
X121237285Y-74355380D02*
X120665857Y-74355380D01*
X120951571Y-74355380D02*
X120951571Y-73355380D01*
X120856333Y-73498238D01*
X120761095Y-73593476D01*
X120665857Y-73641095D01*
X116811504Y-71501066D02*
X117287695Y-71501066D01*
X116716266Y-71786780D02*
X117049600Y-70786780D01*
X117382933Y-71786780D01*
X117716266Y-71786780D02*
X117716266Y-71120114D01*
X117716266Y-71310590D02*
X117763885Y-71215352D01*
X117811504Y-71167733D01*
X117906742Y-71120114D01*
X118001980Y-71120114D01*
X118763885Y-71786780D02*
X118763885Y-70786780D01*
X118763885Y-71739161D02*
X118668647Y-71786780D01*
X118478171Y-71786780D01*
X118382933Y-71739161D01*
X118335314Y-71691542D01*
X118287695Y-71596304D01*
X118287695Y-71310590D01*
X118335314Y-71215352D01*
X118382933Y-71167733D01*
X118478171Y-71120114D01*
X118668647Y-71120114D01*
X118763885Y-71167733D01*
X119668647Y-71120114D02*
X119668647Y-71786780D01*
X119240076Y-71120114D02*
X119240076Y-71643923D01*
X119287695Y-71739161D01*
X119382933Y-71786780D01*
X119525790Y-71786780D01*
X119621028Y-71739161D01*
X119668647Y-71691542D01*
X120144838Y-71786780D02*
X120144838Y-71120114D01*
X120144838Y-70786780D02*
X120097219Y-70834400D01*
X120144838Y-70882019D01*
X120192457Y-70834400D01*
X120144838Y-70786780D01*
X120144838Y-70882019D01*
X120621028Y-71120114D02*
X120621028Y-71786780D01*
X120621028Y-71215352D02*
X120668647Y-71167733D01*
X120763885Y-71120114D01*
X120906742Y-71120114D01*
X121001980Y-71167733D01*
X121049600Y-71262971D01*
X121049600Y-71786780D01*
X121668647Y-71786780D02*
X121573409Y-71739161D01*
X121525790Y-71691542D01*
X121478171Y-71596304D01*
X121478171Y-71310590D01*
X121525790Y-71215352D01*
X121573409Y-71167733D01*
X121668647Y-71120114D01*
X121811504Y-71120114D01*
X121906742Y-71167733D01*
X121954361Y-71215352D01*
X122001980Y-71310590D01*
X122001980Y-71596304D01*
X121954361Y-71691542D01*
X121906742Y-71739161D01*
X121811504Y-71786780D01*
X121668647Y-71786780D01*
X122192457Y-71882019D02*
X122954361Y-71882019D01*
X123192457Y-71786780D02*
X123192457Y-70786780D01*
X123763885Y-71786780D01*
X123763885Y-70786780D01*
X124668647Y-71786780D02*
X124668647Y-71262971D01*
X124621028Y-71167733D01*
X124525790Y-71120114D01*
X124335314Y-71120114D01*
X124240076Y-71167733D01*
X124668647Y-71739161D02*
X124573409Y-71786780D01*
X124335314Y-71786780D01*
X124240076Y-71739161D01*
X124192457Y-71643923D01*
X124192457Y-71548685D01*
X124240076Y-71453447D01*
X124335314Y-71405828D01*
X124573409Y-71405828D01*
X124668647Y-71358209D01*
X125144838Y-71120114D02*
X125144838Y-71786780D01*
X125144838Y-71215352D02*
X125192457Y-71167733D01*
X125287695Y-71120114D01*
X125430552Y-71120114D01*
X125525790Y-71167733D01*
X125573409Y-71262971D01*
X125573409Y-71786780D01*
X126192457Y-71786780D02*
X126097219Y-71739161D01*
X126049600Y-71691542D01*
X126001980Y-71596304D01*
X126001980Y-71310590D01*
X126049600Y-71215352D01*
X126097219Y-71167733D01*
X126192457Y-71120114D01*
X126335314Y-71120114D01*
X126430552Y-71167733D01*
X126478171Y-71215352D01*
X126525790Y-71310590D01*
X126525790Y-71596304D01*
X126478171Y-71691542D01*
X126430552Y-71739161D01*
X126335314Y-71786780D01*
X126192457Y-71786780D01*
X126716266Y-71882019D02*
X127478171Y-71882019D01*
X127621028Y-71120114D02*
X127859123Y-71786780D01*
X128097219Y-71120114D01*
X128382933Y-70786780D02*
X129001980Y-70786780D01*
X128668647Y-71167733D01*
X128811504Y-71167733D01*
X128906742Y-71215352D01*
X128954361Y-71262971D01*
X129001980Y-71358209D01*
X129001980Y-71596304D01*
X128954361Y-71691542D01*
X128906742Y-71739161D01*
X128811504Y-71786780D01*
X128525790Y-71786780D01*
X128430552Y-71739161D01*
X128382933Y-71691542D01*
X129430552Y-71691542D02*
X129478171Y-71739161D01*
X129430552Y-71786780D01*
X129382933Y-71739161D01*
X129430552Y-71691542D01*
X129430552Y-71786780D01*
X129811504Y-71786780D02*
X130335314Y-71120114D01*
X129811504Y-71120114D02*
X130335314Y-71786780D01*
X129984666Y-63142761D02*
X130127523Y-63190380D01*
X130365619Y-63190380D01*
X130460857Y-63142761D01*
X130508476Y-63095142D01*
X130556095Y-62999904D01*
X130556095Y-62904666D01*
X130508476Y-62809428D01*
X130460857Y-62761809D01*
X130365619Y-62714190D01*
X130175142Y-62666571D01*
X130079904Y-62618952D01*
X130032285Y-62571333D01*
X129984666Y-62476095D01*
X129984666Y-62380857D01*
X130032285Y-62285619D01*
X130079904Y-62238000D01*
X130175142Y-62190380D01*
X130413238Y-62190380D01*
X130556095Y-62238000D01*
X130889428Y-62190380D02*
X131127523Y-63190380D01*
X131318000Y-62476095D01*
X131508476Y-63190380D01*
X131746571Y-62190380D01*
X132032285Y-62190380D02*
X132698952Y-62190380D01*
X132270380Y-63190380D01*
X130038857Y-52690380D02*
X129705523Y-52214190D01*
X129467428Y-52690380D02*
X129467428Y-51690380D01*
X129848380Y-51690380D01*
X129943619Y-51738000D01*
X129991238Y-51785619D01*
X130038857Y-51880857D01*
X130038857Y-52023714D01*
X129991238Y-52118952D01*
X129943619Y-52166571D01*
X129848380Y-52214190D01*
X129467428Y-52214190D01*
X130896000Y-52690380D02*
X130896000Y-52166571D01*
X130848380Y-52071333D01*
X130753142Y-52023714D01*
X130562666Y-52023714D01*
X130467428Y-52071333D01*
X130896000Y-52642761D02*
X130800761Y-52690380D01*
X130562666Y-52690380D01*
X130467428Y-52642761D01*
X130419809Y-52547523D01*
X130419809Y-52452285D01*
X130467428Y-52357047D01*
X130562666Y-52309428D01*
X130800761Y-52309428D01*
X130896000Y-52261809D01*
X131229333Y-52023714D02*
X131610285Y-52023714D01*
X131372190Y-51690380D02*
X131372190Y-52547523D01*
X131419809Y-52642761D01*
X131515047Y-52690380D01*
X131610285Y-52690380D01*
X132324571Y-52642761D02*
X132229333Y-52690380D01*
X132038857Y-52690380D01*
X131943619Y-52642761D01*
X131896000Y-52547523D01*
X131896000Y-52166571D01*
X131943619Y-52071333D01*
X132038857Y-52023714D01*
X132229333Y-52023714D01*
X132324571Y-52071333D01*
X132372190Y-52166571D01*
X132372190Y-52261809D01*
X131896000Y-52357047D01*
X62166666Y-100404761D02*
X62309523Y-100452380D01*
X62547619Y-100452380D01*
X62642857Y-100404761D01*
X62690476Y-100357142D01*
X62738095Y-100261904D01*
X62738095Y-100166666D01*
X62690476Y-100071428D01*
X62642857Y-100023809D01*
X62547619Y-99976190D01*
X62357142Y-99928571D01*
X62261904Y-99880952D01*
X62214285Y-99833333D01*
X62166666Y-99738095D01*
X62166666Y-99642857D01*
X62214285Y-99547619D01*
X62261904Y-99500000D01*
X62357142Y-99452380D01*
X62595238Y-99452380D01*
X62738095Y-99500000D01*
X63071428Y-99452380D02*
X63309523Y-100452380D01*
X63500000Y-99738095D01*
X63690476Y-100452380D01*
X63928571Y-99452380D01*
X64738095Y-99452380D02*
X64547619Y-99452380D01*
X64452380Y-99500000D01*
X64404761Y-99547619D01*
X64309523Y-99690476D01*
X64261904Y-99880952D01*
X64261904Y-100261904D01*
X64309523Y-100357142D01*
X64357142Y-100404761D01*
X64452380Y-100452380D01*
X64642857Y-100452380D01*
X64738095Y-100404761D01*
X64785714Y-100357142D01*
X64833333Y-100261904D01*
X64833333Y-100023809D01*
X64785714Y-99928571D01*
X64738095Y-99880952D01*
X64642857Y-99833333D01*
X64452380Y-99833333D01*
X64357142Y-99880952D01*
X64309523Y-99928571D01*
X64261904Y-100023809D01*
X55285714Y-87452380D02*
X55285714Y-86452380D01*
X55619047Y-87166666D01*
X55952380Y-86452380D01*
X55952380Y-87452380D01*
X56857142Y-87452380D02*
X56857142Y-86928571D01*
X56809523Y-86833333D01*
X56714285Y-86785714D01*
X56523809Y-86785714D01*
X56428571Y-86833333D01*
X56857142Y-87404761D02*
X56761904Y-87452380D01*
X56523809Y-87452380D01*
X56428571Y-87404761D01*
X56380952Y-87309523D01*
X56380952Y-87214285D01*
X56428571Y-87119047D01*
X56523809Y-87071428D01*
X56761904Y-87071428D01*
X56857142Y-87023809D01*
X57285714Y-87404761D02*
X57380952Y-87452380D01*
X57571428Y-87452380D01*
X57666666Y-87404761D01*
X57714285Y-87309523D01*
X57714285Y-87261904D01*
X57666666Y-87166666D01*
X57571428Y-87119047D01*
X57428571Y-87119047D01*
X57333333Y-87071428D01*
X57285714Y-86976190D01*
X57285714Y-86928571D01*
X57333333Y-86833333D01*
X57428571Y-86785714D01*
X57571428Y-86785714D01*
X57666666Y-86833333D01*
X58000000Y-86785714D02*
X58380952Y-86785714D01*
X58142857Y-86452380D02*
X58142857Y-87309523D01*
X58190476Y-87404761D01*
X58285714Y-87452380D01*
X58380952Y-87452380D01*
X59095238Y-87404761D02*
X59000000Y-87452380D01*
X58809523Y-87452380D01*
X58714285Y-87404761D01*
X58666666Y-87309523D01*
X58666666Y-86928571D01*
X58714285Y-86833333D01*
X58809523Y-86785714D01*
X59000000Y-86785714D01*
X59095238Y-86833333D01*
X59142857Y-86928571D01*
X59142857Y-87023809D01*
X58666666Y-87119047D01*
X59571428Y-87452380D02*
X59571428Y-86785714D01*
X59571428Y-86976190D02*
X59619047Y-86880952D01*
X59666666Y-86833333D01*
X59761904Y-86785714D01*
X59857142Y-86785714D01*
X62674666Y-62634761D02*
X62817523Y-62682380D01*
X63055619Y-62682380D01*
X63150857Y-62634761D01*
X63198476Y-62587142D01*
X63246095Y-62491904D01*
X63246095Y-62396666D01*
X63198476Y-62301428D01*
X63150857Y-62253809D01*
X63055619Y-62206190D01*
X62865142Y-62158571D01*
X62769904Y-62110952D01*
X62722285Y-62063333D01*
X62674666Y-61968095D01*
X62674666Y-61872857D01*
X62722285Y-61777619D01*
X62769904Y-61730000D01*
X62865142Y-61682380D01*
X63103238Y-61682380D01*
X63246095Y-61730000D01*
X63579428Y-61682380D02*
X63817523Y-62682380D01*
X64008000Y-61968095D01*
X64198476Y-62682380D01*
X64436571Y-61682380D01*
X65293714Y-61682380D02*
X64817523Y-61682380D01*
X64769904Y-62158571D01*
X64817523Y-62110952D01*
X64912761Y-62063333D01*
X65150857Y-62063333D01*
X65246095Y-62110952D01*
X65293714Y-62158571D01*
X65341333Y-62253809D01*
X65341333Y-62491904D01*
X65293714Y-62587142D01*
X65246095Y-62634761D01*
X65150857Y-62682380D01*
X64912761Y-62682380D01*
X64817523Y-62634761D01*
X64769904Y-62587142D01*
X62833428Y-52998666D02*
X63309619Y-52998666D01*
X62738190Y-53284380D02*
X63071523Y-52284380D01*
X63404857Y-53284380D01*
X64166761Y-52617714D02*
X64166761Y-53284380D01*
X63738190Y-52617714D02*
X63738190Y-53141523D01*
X63785809Y-53236761D01*
X63881047Y-53284380D01*
X64023904Y-53284380D01*
X64119142Y-53236761D01*
X64166761Y-53189142D01*
X64500095Y-52617714D02*
X64881047Y-52617714D01*
X64642952Y-52284380D02*
X64642952Y-53141523D01*
X64690571Y-53236761D01*
X64785809Y-53284380D01*
X64881047Y-53284380D01*
X65357238Y-53284380D02*
X65262000Y-53236761D01*
X65214380Y-53189142D01*
X65166761Y-53093904D01*
X65166761Y-52808190D01*
X65214380Y-52712952D01*
X65262000Y-52665333D01*
X65357238Y-52617714D01*
X65500095Y-52617714D01*
X65595333Y-52665333D01*
X65642952Y-52712952D01*
X65690571Y-52808190D01*
X65690571Y-53093904D01*
X65642952Y-53189142D01*
X65595333Y-53236761D01*
X65500095Y-53284380D01*
X65357238Y-53284380D01*
X102166666Y-99904761D02*
X102309523Y-99952380D01*
X102547619Y-99952380D01*
X102642857Y-99904761D01*
X102690476Y-99857142D01*
X102738095Y-99761904D01*
X102738095Y-99666666D01*
X102690476Y-99571428D01*
X102642857Y-99523809D01*
X102547619Y-99476190D01*
X102357142Y-99428571D01*
X102261904Y-99380952D01*
X102214285Y-99333333D01*
X102166666Y-99238095D01*
X102166666Y-99142857D01*
X102214285Y-99047619D01*
X102261904Y-99000000D01*
X102357142Y-98952380D01*
X102595238Y-98952380D01*
X102738095Y-99000000D01*
X103071428Y-98952380D02*
X103309523Y-99952380D01*
X103500000Y-99238095D01*
X103690476Y-99952380D01*
X103928571Y-98952380D01*
X104214285Y-98952380D02*
X104833333Y-98952380D01*
X104500000Y-99333333D01*
X104642857Y-99333333D01*
X104738095Y-99380952D01*
X104785714Y-99428571D01*
X104833333Y-99523809D01*
X104833333Y-99761904D01*
X104785714Y-99857142D01*
X104738095Y-99904761D01*
X104642857Y-99952380D01*
X104357142Y-99952380D01*
X104261904Y-99904761D01*
X104214285Y-99857142D01*
X97449295Y-87305961D02*
X97592152Y-87353580D01*
X97830247Y-87353580D01*
X97925485Y-87305961D01*
X97973104Y-87258342D01*
X98020723Y-87163104D01*
X98020723Y-87067866D01*
X97973104Y-86972628D01*
X97925485Y-86925009D01*
X97830247Y-86877390D01*
X97639771Y-86829771D01*
X97544533Y-86782152D01*
X97496914Y-86734533D01*
X97449295Y-86639295D01*
X97449295Y-86544057D01*
X97496914Y-86448819D01*
X97544533Y-86401200D01*
X97639771Y-86353580D01*
X97877866Y-86353580D01*
X98020723Y-86401200D01*
X98354057Y-86353580D02*
X98973104Y-86353580D01*
X98639771Y-86734533D01*
X98782628Y-86734533D01*
X98877866Y-86782152D01*
X98925485Y-86829771D01*
X98973104Y-86925009D01*
X98973104Y-87163104D01*
X98925485Y-87258342D01*
X98877866Y-87305961D01*
X98782628Y-87353580D01*
X98496914Y-87353580D01*
X98401676Y-87305961D01*
X98354057Y-87258342D01*
X122166666Y-99904761D02*
X122309523Y-99952380D01*
X122547619Y-99952380D01*
X122642857Y-99904761D01*
X122690476Y-99857142D01*
X122738095Y-99761904D01*
X122738095Y-99666666D01*
X122690476Y-99571428D01*
X122642857Y-99523809D01*
X122547619Y-99476190D01*
X122357142Y-99428571D01*
X122261904Y-99380952D01*
X122214285Y-99333333D01*
X122166666Y-99238095D01*
X122166666Y-99142857D01*
X122214285Y-99047619D01*
X122261904Y-99000000D01*
X122357142Y-98952380D01*
X122595238Y-98952380D01*
X122738095Y-99000000D01*
X123071428Y-98952380D02*
X123309523Y-99952380D01*
X123500000Y-99238095D01*
X123690476Y-99952380D01*
X123928571Y-98952380D01*
X124261904Y-99047619D02*
X124309523Y-99000000D01*
X124404761Y-98952380D01*
X124642857Y-98952380D01*
X124738095Y-99000000D01*
X124785714Y-99047619D01*
X124833333Y-99142857D01*
X124833333Y-99238095D01*
X124785714Y-99380952D01*
X124214285Y-99952380D01*
X124833333Y-99952380D01*
X117449295Y-87305961D02*
X117592152Y-87353580D01*
X117830247Y-87353580D01*
X117925485Y-87305961D01*
X117973104Y-87258342D01*
X118020723Y-87163104D01*
X118020723Y-87067866D01*
X117973104Y-86972628D01*
X117925485Y-86925009D01*
X117830247Y-86877390D01*
X117639771Y-86829771D01*
X117544533Y-86782152D01*
X117496914Y-86734533D01*
X117449295Y-86639295D01*
X117449295Y-86544057D01*
X117496914Y-86448819D01*
X117544533Y-86401200D01*
X117639771Y-86353580D01*
X117877866Y-86353580D01*
X118020723Y-86401200D01*
X118401676Y-86448819D02*
X118449295Y-86401200D01*
X118544533Y-86353580D01*
X118782628Y-86353580D01*
X118877866Y-86401200D01*
X118925485Y-86448819D01*
X118973104Y-86544057D01*
X118973104Y-86639295D01*
X118925485Y-86782152D01*
X118354057Y-87353580D01*
X118973104Y-87353580D01*
X130543466Y-99921961D02*
X130686323Y-99969580D01*
X130924419Y-99969580D01*
X131019657Y-99921961D01*
X131067276Y-99874342D01*
X131114895Y-99779104D01*
X131114895Y-99683866D01*
X131067276Y-99588628D01*
X131019657Y-99541009D01*
X130924419Y-99493390D01*
X130733942Y-99445771D01*
X130638704Y-99398152D01*
X130591085Y-99350533D01*
X130543466Y-99255295D01*
X130543466Y-99160057D01*
X130591085Y-99064819D01*
X130638704Y-99017200D01*
X130733942Y-98969580D01*
X130972038Y-98969580D01*
X131114895Y-99017200D01*
X131448228Y-98969580D02*
X131686323Y-99969580D01*
X131876800Y-99255295D01*
X132067276Y-99969580D01*
X132305371Y-98969580D01*
X133210133Y-99969580D02*
X132638704Y-99969580D01*
X132924419Y-99969580D02*
X132924419Y-98969580D01*
X132829180Y-99112438D01*
X132733942Y-99207676D01*
X132638704Y-99255295D01*
X137449295Y-87305961D02*
X137592152Y-87353580D01*
X137830247Y-87353580D01*
X137925485Y-87305961D01*
X137973104Y-87258342D01*
X138020723Y-87163104D01*
X138020723Y-87067866D01*
X137973104Y-86972628D01*
X137925485Y-86925009D01*
X137830247Y-86877390D01*
X137639771Y-86829771D01*
X137544533Y-86782152D01*
X137496914Y-86734533D01*
X137449295Y-86639295D01*
X137449295Y-86544057D01*
X137496914Y-86448819D01*
X137544533Y-86401200D01*
X137639771Y-86353580D01*
X137877866Y-86353580D01*
X138020723Y-86401200D01*
X138973104Y-87353580D02*
X138401676Y-87353580D01*
X138687390Y-87353580D02*
X138687390Y-86353580D01*
X138592152Y-86496438D01*
X138496914Y-86591676D01*
X138401676Y-86639295D01*
M02*
