<?xml version='1.0' encoding='UTF-8' standalone='no'?>
<!-- Created with Fritzing (http://www.fritzing.org/) -->
<svg xmlns="http://www.w3.org/2000/svg"  width="1.6in" x="0in" version="1.2" y="0in" height="1.3in" viewBox="0 0 115.2 93.6" baseProfile="tiny">
 <desc >Fritzing schematic generated by brd2svg</desc>
 <g  id="schematic">
  <rect  width="85.95" x="14.4" y="14.4" fill="none" height="64.8" stroke="#000000" stroke-linejoin="round" stroke-linecap="round" stroke-width="0.9"/>
  <text  x="57.6" y="36" font-family="'Droid Sans'" fill="#000000" text-anchor="middle" stroke="none" id="label" font-size="3.5">9-DOF</text>
  <text  x="57.6" y="39.5" font-family="'Droid Sans'" fill="#000000" text-anchor="middle" stroke="none" id="label" font-size="3.5">Absolute</text>
  <text  x="57.6" y="43" font-family="'Droid Sans'" fill="#000000" text-anchor="middle" stroke="none" id="label" font-size="3.5">Orientation</text>
  <text  x="57.6" y="46.5" font-family="'Droid Sans'" fill="#000000" text-anchor="middle" stroke="none" id="label" font-size="3.5">IMU</text>
  <text  x="57.6" y="50" font-family="'Droid Sans'" fill="#000000" text-anchor="middle" stroke="none" id="label" font-size="3.5">Fusion</text>
  <text  x="57.6" y="53.5" font-family="'Droid Sans'" fill="#000000" text-anchor="middle" stroke="none" id="label" font-size="3.5">Breakout</text>
  <text  x="57.6" y="57" font-family="'Droid Sans'" fill="#000000" text-anchor="middle" stroke="none" id="label" font-size="3.5">BNO055</text>
  <line  fill="none" stroke="#787878" stroke-linejoin="round" stroke-linecap="round" y1="36" stroke-width="0.699998" x1="0.349999" y2="36" x2="14.4"/>
  <rect  width="14.4" x="0" y="35.65" fill="none" height="0.699998" id="connector19pin" stroke-width="0" connectorName="SDA_5V"/>
  <rect  width="0" x="0" y="35.65" fill="none" height="0.699998" id="connector19terminal" stroke-width="0"/>
  <text  x="15.8" y="36.7" font-family="'Droid Sans'" fill="#8c8c8c" text-anchor="start" stroke="none" id="label19" font-size="3.5">SDA_5V</text>
  <line  fill="none" stroke="#787878" stroke-linejoin="round" stroke-linecap="round" y1="43.2" stroke-width="0.699998" x1="0.349999" y2="43.2" x2="14.4"/>
  <rect  width="14.4" x="0" y="42.85" fill="none" height="0.699998" id="connector20pin" stroke-width="0" connectorName="SCL_5V"/>
  <rect  width="0" x="0" y="42.85" fill="none" height="0.699998" id="connector20terminal" stroke-width="0"/>
  <text  x="15.8" y="43.9" font-family="'Droid Sans'" fill="#8c8c8c" text-anchor="start" stroke="none" id="label20" font-size="3.5">SCL_5V</text>
  <line  fill="none" stroke="#787878" stroke-linejoin="round" stroke-linecap="round" y1="50.4" stroke-width="0.699998" x1="0.349999" y2="50.4" x2="14.4"/>
  <rect  width="14.4" x="0" y="50.05" fill="none" height="0.699998" id="connector21pin" stroke-width="0" connectorName="RST_5V"/>
  <rect  width="0" x="0" y="50.05" fill="none" height="0.699998" id="connector21terminal" stroke-width="0"/>
  <text  x="15.8" y="51.1" font-family="'Droid Sans'" fill="#8c8c8c" text-anchor="start" stroke="none" id="label21" font-size="3.5">RST_5V</text>
  <line  fill="none" stroke="#787878" stroke-linejoin="round" stroke-linecap="round" y1="36" stroke-width="0.699998" x1="100.45" y2="36" x2="114.85"/>
  <rect  width="14.4" x="100.8" y="35.65" fill="none" connectorname="I2CADDR_3V" height="0.699998" id="connector25pin" stroke-width="0"/>
  <rect  width="0" x="115.2" y="35.65" fill="none" height="0.699998" id="connector25terminal" stroke-width="0"/>
  <text  x="99.4003" y="36.7" font-family="'Droid Sans'" fill="#8c8c8c" text-anchor="end" stroke="none" id="label25" font-size="3.5">I2CADDR_3V</text>
  <line  fill="none" stroke="#787878" stroke-linejoin="round" stroke-linecap="round" y1="43.2" stroke-width="0.699998" x1="100.45" y2="43.2" x2="114.85"/>
  <rect  width="14.4" x="100.8" y="42.85" fill="none" connectorname="PS0_3V" height="0.699998" id="connector22pin" stroke-width="0"/>
  <rect  width="0" x="115.2" y="42.85" fill="none" height="0.699998" id="connector22terminal" stroke-width="0"/>
  <text  x="99.4003" y="43.9" font-family="'Droid Sans'" fill="#8c8c8c" text-anchor="end" stroke="none" id="label22" font-size="3.5">PS0_3V</text>
  <line  fill="none" stroke="#787878" stroke-linejoin="round" stroke-linecap="round" y1="50.4" stroke-width="0.699998" x1="100.45" y2="50.4" x2="114.85"/>
  <rect  width="14.4" x="100.8" y="50.05" fill="none" connectorname="PS1_3V" height="0.699998" id="connector23pin" stroke-width="0"/>
  <rect  width="0" x="115.2" y="50.05" fill="none" height="0.699998" id="connector23terminal" stroke-width="0"/>
  <text  x="99.4003" y="51.1" font-family="'Droid Sans'" fill="#8c8c8c" text-anchor="end" stroke="none" id="label23" font-size="3.5">PS1_3V</text>
  <line  fill="none" stroke="#787878" stroke-linejoin="round" stroke-linecap="round" y1="0.349999" stroke-width="0.699998" x1="43.2" y2="14.4" x2="43.2"/>
  <rect  width="0.699998" x="42.85" y="0" fill="none" connectorname="3.3V" height="14.4" id="connector17pin" stroke-width="0"/>
  <rect  width="0.699998" x="42.85" y="0" fill="none" height="0" id="connector17terminal" stroke-width="0"/>
  <g  transform="matrix(1, 0, 0, 1, 44.6, 16)">
   <g  transform="rotate(270)">
    <text  x="0" y="0" font-family="'Droid Sans'" fill="#8c8c8c" text-anchor="end" stroke="none" id="label17" font-size="3.5">3.3V</text>
   </g>
  </g>
  <line  fill="none" stroke="#787878" stroke-linejoin="round" stroke-linecap="round" y1="0.349999" stroke-width="0.699998" x1="50.4" y2="14.4" x2="50.4"/>
  <rect  width="0.699998" x="50.05" y="0" fill="none" connectorname="5.0V" height="14.4" id="connector16pin" stroke-width="0"/>
  <rect  width="0.699998" x="50.05" y="0" fill="none" height="0" id="connector16terminal" stroke-width="0"/>
  <g  transform="matrix(1, 0, 0, 1, 51.8, 16)">
   <g  transform="rotate(270)">
    <text  x="0" y="0" font-family="'Droid Sans'" fill="#8c8c8c" text-anchor="end" stroke="none" id="label16" font-size="3.5">5.0V</text>
   </g>
  </g>
  <line  fill="none" stroke="#787878" stroke-linejoin="round" stroke-linecap="round" y1="0.349999" stroke-width="0.699998" x1="57.6" y2="14.4" x2="57.6"/>
  <rect  width="0.699998" x="57.25" y="0" fill="none" connectorname="INT_3V" height="14.4" id="connector24pin" stroke-width="0"/>
  <rect  width="0.699998" x="57.25" y="0" fill="none" height="0" id="connector24terminal" stroke-width="0"/>
  <g  transform="matrix(1, 0, 0, 1, 59, 16)">
   <g  transform="rotate(270)">
    <text  x="0" y="0" font-family="'Droid Sans'" fill="#8c8c8c" text-anchor="end" stroke="none" id="label24" font-size="3.5">INT_3V</text>
   </g>
  </g>
  <line  fill="none" stroke="#787878" stroke-linejoin="round" stroke-linecap="round" y1="79.2" stroke-width="0.699998" x1="57.6" y2="93.2501" x2="57.6"/>
  <rect  width="0.699998" x="57.25" y="79.2" fill="none" connectorname="GND" height="14.4" id="connector18pin" stroke-width="0"/>
  <rect  width="0.699998" x="57.25" y="93.6" fill="none" height="0" id="connector18terminal" stroke-width="0"/>
  <g  transform="matrix(1, 0, 0, 1, 59, 77.6002)">
   <g  transform="rotate(270)">
    <text  x="0" y="0" font-family="'Droid Sans'" fill="#8c8c8c" text-anchor="start" stroke="none" id="label18" font-size="3.5">GND</text>
   </g>
  </g>
 </g>
</svg>
