<?xml version='1.0' encoding='UTF-8' standalone='no'?>
<!-- Created with Fritzing (http://www.fritzing.org/) -->
<svg xmlns="http://www.w3.org/2000/svg"  width="1.05in" x="0in" version="1.2" y="0in" height="0.8in" viewBox="0 0 75.6 57.6" baseProfile="tiny">
 <desc >Fritzing footprint generated by brd2svg</desc>
 <g  id="silkscreen">
  <path  fill="none" stroke="white" stroke-width="0.576" d="M7.43314,0.288L68.1669,0.288A6.912,6.912,0,0,1,75.312,7.416L75.312,50.184A6.912,6.912,0,0,1,68.1669,57.312L7.43314,57.312A6.912,6.912,0,0,1,0.288,50.184L0.288,7.416A6.912,6.912,0,0,1,7.43314,0.288"/>
  <g >
   <title >element:Q2</title>
   <g >
    <title >package:SOT23-WIDE</title>
    <line  stroke="white" stroke-linecap="round" y1="40.9907" x1="63.4207" y2="44.712" stroke-width="0.576" x2="63.4207"/>
    <line  stroke="white" stroke-linecap="round" y1="44.712" x1="63.4207" y2="44.712" stroke-width="0.576" x2="60.7028"/>
    <line  stroke="white" stroke-linecap="round" y1="44.712" x1="53.9393" y2="40.9907" stroke-width="0.576" x2="53.9393"/>
    <line  stroke="white" stroke-linecap="round" y1="44.712" x1="56.6572" y2="44.712" stroke-width="0.576" x2="53.9393"/>
    <line  stroke="white" stroke-linecap="round" y1="40.968" x1="58.0496" y2="40.968" stroke-width="0.576" x2="59.3501"/>
   </g>
  </g>
  <g >
   <title >element:U$2</title>
   <g >
    <title >package:BNO055</title>
    <line  stroke="white" stroke-linecap="round" y1="36.737" x1="31.8473" y2="20.863" stroke-width="0.36" x2="31.8473"/>
    <line  stroke="white" stroke-linecap="round" y1="20.863" x1="31.8473" y2="20.863" stroke-width="0.36" x2="43.7527"/>
    <line  stroke="white" stroke-linecap="round" y1="20.863" x1="43.7527" y2="36.737" stroke-width="0.36" x2="43.7527"/>
    <line  stroke="white" stroke-linecap="round" y1="36.737" x1="43.7527" y2="36.737" stroke-width="0.36" x2="31.8473"/>
    <circle  fill="none" cx="33.2646" cy="38.4378" stroke="white" r="0.566929" stroke-width="0.992124"/>
   </g>
  </g>
  <g >
   <title >element:U$28</title>
   <g >
    <title >package:ADAFRUIT_TEXT_20MM</title>
   </g>
  </g>
  <g >
   <title >element:Y1</title>
   <g >
    <title >package:CRYSTAL_8X3.8</title>
    <line  stroke="white" stroke-linecap="round" y1="29.7893" x1="27.7682" y2="29.7893" stroke-width="0.576" x2="28.902"/>
    <line  stroke="white" stroke-linecap="round" y1="29.7893" x1="28.902" y2="18.4507" stroke-width="0.576" x2="28.902"/>
    <line  stroke="white" stroke-linecap="round" y1="18.4507" x1="28.902" y2="18.4507" stroke-width="0.576" x2="27.7682"/>
    <line  stroke="white" stroke-linecap="round" y1="18.4507" x1="22.3824" y2="18.4507" stroke-width="0.576" x2="12.1776"/>
    <line  stroke="white" stroke-linecap="round" y1="29.7893" x1="22.3824" y2="29.7893" stroke-width="0.576" x2="12.1776"/>
    <line  stroke="white" stroke-linecap="round" y1="29.7893" x1="6.79181" y2="29.7893" stroke-width="0.576" x2="5.65795"/>
    <line  stroke="white" stroke-linecap="round" y1="29.7893" x1="5.65795" y2="18.4507" stroke-width="0.576" x2="5.65795"/>
    <line  stroke="white" stroke-linecap="round" y1="18.4507" x1="5.65795" y2="18.4507" stroke-width="0.576" x2="6.79181"/>
    <circle  fill="none" cx="7.704" cy="24.192" stroke="white" r="0.916409" stroke-width="0.864"/>
   </g>
  </g>
 </g>
 <g  id="copper1">
  <g  id="copper0">
   <circle  fill="none" cx="19.8" cy="54" connectorname="5.0V" stroke="#F7BD13" r="2.07666" id="connector16pad" stroke-width="1.31868"/>
   <circle  fill="none" cx="27" cy="54" connectorname="3.3V" stroke="#F7BD13" r="2.07666" id="connector17pad" stroke-width="1.31868"/>
   <circle  fill="none" cx="34.2" cy="54" connectorname="GND" stroke="#F7BD13" r="2.07666" id="connector18pad" stroke-width="1.31868"/>
   <circle  fill="none" cx="41.4" cy="54" connectorname="SDA_5V" stroke="#F7BD13" r="2.07666" id="connector19pad" stroke-width="1.31868"/>
   <circle  fill="none" cx="48.6" cy="54" connectorname="SCL_5V" stroke="#F7BD13" r="2.07666" id="connector20pad" stroke-width="1.31868"/>
   <circle  fill="none" cx="55.8" cy="54" connectorname="RST_5V" stroke="#F7BD13" r="2.07666" id="connector21pad" stroke-width="1.31868"/>
   <circle  fill="none" cx="27" cy="3.6" connectorname="PS0_3V" stroke="#F7BD13" r="2.07666" id="connector22pad" stroke-width="1.31868"/>
   <circle  fill="none" cx="34.2" cy="3.6" connectorname="PS1_3V" stroke="#F7BD13" r="2.07666" id="connector23pad" stroke-width="1.31868"/>
   <circle  fill="none" cx="41.4" cy="3.6" connectorname="INT_3V" stroke="#F7BD13" r="2.07666" id="connector24pad" stroke-width="1.31868"/>
   <circle  fill="none" cx="48.6" cy="3.6" connectorname="I2CADDR_3V" stroke="#F7BD13" r="2.07666" id="connector25pad" stroke-width="1.31868"/>
  </g>
 </g>
</svg>
