<?xml version='1.0' encoding='utf-8'?>
<!DOCTYPE svg>
<!-- Generator: Adobe Illustrator 15.0.0, SVG Export Plug-In . SVG Version: 6.00 Build 0)  -->
<svg xmlns="http://www.w3.org/2000/svg" width="0.913194in" x="0px" version="1.1" y="0px" gorn="0"  height="1.28207in" viewBox="0 0 65.75 92.309" xmlns:xml="http://www.w3.org/XML/1998/namespace" id="svg2" enable-background="new -57.206 87.898 65.75 92.309" xml:space="preserve">
    <desc >
        <referenceFile >keyes-relay.svg</referenceFile>
    </desc>
    <g  transform="translate(57.206,-87.898)">
        <g >
            <g >
                <path fill="#2E2E2E"  d="M-57.206,87.898v85h65.75v-85H-57.206z M-52.225,170.31c-1.653,0-2.998-1.344-2.998-3c0-1.653,1.346-2.999,2.998-2.999c1.656,0,3,1.346,3,2.999C-49.225,168.964-50.569,170.31-52.225,170.31z M-51.225,96.31c-1.653,0-2.998-1.344-2.998-3c0-1.653,1.346-2.999,2.998-2.999c1.656,0,3,1.346,3,2.999C-48.225,94.964-49.569,96.31-51.225,96.31z M3.775,170.262c-1.652,0-2.998-1.344-2.998-3c0-1.653,1.346-2.999,2.998-2.999c1.656,0,3,1.346,3,2.999C6.775,168.916,5.431,170.262,3.775,170.262z M3.775,96.31c-1.652,0-2.998-1.344-2.998-3c0-1.653,1.346-2.999,2.998-2.999c1.656,0,3,1.346,3,2.999C6.775,94.964,5.431,96.31,3.775,96.31z"/>
                <rect width="21.506" x="-25.431" y="163.555" fill="#FFFFFF"  height="7.415"/>
                <rect width="5.578" x="-24.667" y="164.048" fill="#231F20"  height="6.433"/>
                <rect width="5.578" x="-17.466" y="164.048" fill="#231F20"  height="6.433"/>
                <rect width="5.578" x="-10.267" y="164.048" fill="#231F20"  height="6.433"/>
                <path fill="#8C8C8C"  d="M-51.225,97.182c-2.133,0-3.871-1.735-3.871-3.873c0-2.137,1.738-3.87,3.871-3.87c2.139,0,3.873,1.733,3.873,3.87C-47.35,95.447-49.086,97.182-51.225,97.182z M-51.225,90.311c-1.653,0-2.998,1.346-2.998,2.999c0,1.654,1.345,3,2.998,3c1.656,0,3-1.346,3-3C-48.225,91.656-49.569,90.311-51.225,90.311z"/>
                <path fill="#8C8C8C"  d="M3.775,97.182c-2.133,0-3.871-1.735-3.871-3.873c0-2.137,1.738-3.87,3.871-3.87c2.139,0,3.873,1.733,3.873,3.87C7.65,95.447,5.914,97.182,3.775,97.182z M3.775,90.311c-1.652,0-2.998,1.346-2.998,2.999c0,1.654,1.346,3,2.998,3c1.656,0,3-1.346,3-3C6.775,91.656,5.431,90.311,3.775,90.311z"/>
                <path fill="#8C8C8C"  d="M3.775,171.182c-2.133,0-3.871-1.735-3.871-3.873c0-2.137,1.738-3.87,3.871-3.87c2.139,0,3.873,1.733,3.873,3.87C7.65,169.447,5.914,171.182,3.775,171.182z M3.775,164.311c-1.652,0-2.998,1.346-2.998,2.999c0,1.654,1.346,3,2.998,3c1.656,0,3-1.346,3-3C6.775,165.656,5.431,164.311,3.775,164.311z"/>
                <path fill="#8C8C8C"  d="M-52.225,171.182c-2.133,0-3.871-1.735-3.871-3.873c0-2.137,1.738-3.87,3.871-3.87c2.139,0,3.873,1.733,3.873,3.87C-48.35,169.447-50.086,171.182-52.225,171.182z M-52.225,164.311c-1.652,0-2.998,1.346-2.998,2.999c0,1.656,1.345,3,2.998,3c1.656,0,3-1.346,3-3C-49.225,165.656-50.569,164.311-52.225,164.311z"/>
                <rect width="202.667" x="-356.438" y="-110.549" display="none"  height="260" stroke="#FFFFFF" stroke-width="1" stroke-miterlimit="10"/>
                <g >
                    <path fill="#FFFFFF"  d="M-48.081,169.036l0.615-0.615h1.135l0.615,0.615v2.185l-0.615,0.615h-1.135l-0.615-0.615V169.036z M-47.38,171.487h0.965l0.35-0.351v-2.015l-0.35-0.351h-0.965l-0.35,0.351v2.015L-47.38,171.487z"/>
                    <path fill="#FFFFFF"  d="M-45.081,168.416c0.007,0,0.015,0,0.025,0c0.01,0,0.015,0.002,0.015,0.005c0.007,0.007,0.02,0.018,0.038,0.032c0.019,0.016,0.037,0.032,0.055,0.051c0.018,0.018,0.035,0.036,0.05,0.055c0.015,0.019,0.026,0.03,0.033,0.037l1.49,2.275l0.13,0.09v-2.455c0-0.003,0.017-0.017,0.052-0.04s0.061-0.038,0.078-0.045c0.003,0,0.01-0.001,0.02-0.003c0.01-0.001,0.018-0.002,0.025-0.002s0.021,0.002,0.045,0.005c0.013,0.007,0.031,0.021,0.053,0.043c0.021,0.021,0.032,0.035,0.032,0.042v3.24c0,0.007-0.011,0.021-0.032,0.045c-0.022,0.023-0.04,0.038-0.053,0.045c-0.003,0-0.01,0.001-0.02,0.003c-0.01,0.001-0.018,0.002-0.025,0.002s-0.015-0.001-0.025-0.002c-0.01-0.002-0.017-0.003-0.02-0.003c-0.007-0.003-0.02-0.014-0.038-0.03c-0.019-0.017-0.037-0.034-0.055-0.052c-0.018-0.019-0.036-0.037-0.052-0.056s-0.027-0.03-0.03-0.037l-1.485-2.28l-0.135-0.085v2.45c0,0.007-0.017,0.021-0.05,0.045s-0.055,0.037-0.065,0.04c-0.01,0.003-0.021,0.006-0.032,0.008c-0.012,0.001-0.021,0.002-0.028,0.002s-0.02-0.002-0.04-0.005c-0.017-0.007-0.036-0.021-0.057-0.045c-0.022-0.023-0.033-0.038-0.033-0.045v-3.24c0-0.007,0.011-0.021,0.033-0.042c0.021-0.022,0.041-0.036,0.057-0.043c0-0.003,0.005-0.005,0.015-0.005C-45.097,168.416-45.087,168.416-45.081,168.416z"/>
                    <path fill="#FFFFFF"  d="M-40.188,172.211v0.251h-2.502v-0.251H-40.188z"/>
                    <path fill="#FFFFFF"  d="M-39.94,168.596c0-0.007,0.011-0.021,0.033-0.045c0.021-0.023,0.037-0.036,0.045-0.04c0.008-0.003,0.018-0.006,0.027-0.007c0.01-0.002,0.018-0.003,0.025-0.003s0.022,0.002,0.045,0.005c0.02,0.007,0.047,0.021,0.08,0.045s0.05,0.038,0.05,0.045v2.936h1.885c0.007,0,0.021,0.017,0.042,0.05s0.036,0.06,0.042,0.08c0.003,0,0.005,0.007,0.005,0.02c0,0.011,0,0.019,0,0.025s0,0.015,0,0.024c0,0.011-0.001,0.016-0.005,0.016c-0.007,0.017-0.021,0.036-0.042,0.058s-0.036,0.032-0.042,0.032h-2.19V168.596z"/>
                    <path fill="#FFFFFF"  d="M-37.161,170.086l0.615-0.615h1.135l0.615,0.615v0.745h-1.945c0,0.01-0.005,0.03-0.015,0.06c-0.01,0.03-0.02,0.062-0.03,0.093c-0.01,0.032-0.019,0.062-0.025,0.093c-0.007,0.029-0.007,0.05,0,0.06c0.013,0.03,0.038,0.067,0.072,0.112c0.035,0.045,0.071,0.089,0.107,0.131c0.037,0.041,0.072,0.077,0.105,0.107c0.034,0.029,0.055,0.045,0.065,0.045h1.05c0.007,0,0.021,0.017,0.042,0.05s0.038,0.06,0.047,0.08v0.045v0.04c-0.006,0.017-0.021,0.036-0.045,0.058s-0.038,0.032-0.045,0.032h-1.135l-0.615-0.615V170.086z M-35.088,170.384c-0.005-0.025-0.011-0.052-0.017-0.08c-0.007-0.028-0.014-0.056-0.022-0.08c-0.009-0.025-0.015-0.043-0.018-0.053c-0.017-0.026-0.042-0.06-0.075-0.1s-0.069-0.079-0.107-0.115c-0.039-0.037-0.073-0.068-0.105-0.095c-0.032-0.027-0.053-0.04-0.062-0.04h-0.965c-0.01,0-0.032,0.013-0.065,0.04c-0.033,0.026-0.068,0.058-0.105,0.095c-0.037,0.036-0.072,0.075-0.107,0.115c-0.035,0.04-0.059,0.073-0.072,0.1c-0.007,0.01-0.014,0.027-0.02,0.053c-0.007,0.024-0.014,0.052-0.022,0.08s-0.015,0.055-0.02,0.08c-0.005,0.024-0.008,0.042-0.008,0.052h1.8C-35.081,170.426-35.083,170.408-35.088,170.384z"/>
                    <path fill="#FFFFFF"  d="M-32.325,169.426v-0.83c0-0.003,0.017-0.018,0.052-0.042c0.035-0.025,0.061-0.041,0.078-0.048c0.003,0,0.01-0.001,0.02-0.002c0.01-0.002,0.018-0.003,0.025-0.003s0.021,0.002,0.045,0.005c0.013,0.007,0.031,0.021,0.053,0.045c0.021,0.023,0.032,0.038,0.032,0.045v3.24h-1.835c-0.003,0-0.017-0.011-0.04-0.032s-0.04-0.041-0.05-0.058c-0.014-0.017-0.034-0.043-0.06-0.078c-0.027-0.034-0.053-0.07-0.08-0.107c-0.027-0.036-0.052-0.07-0.075-0.103c-0.023-0.031-0.038-0.052-0.045-0.062c-0.006-0.01-0.015-0.022-0.025-0.04c-0.01-0.017-0.02-0.034-0.03-0.055c-0.01-0.02-0.019-0.037-0.025-0.053c-0.006-0.015-0.01-0.023-0.01-0.027v-1.135c0-0.003,0.003-0.013,0.01-0.027c0.007-0.016,0.015-0.032,0.025-0.053c0.01-0.02,0.02-0.038,0.03-0.055c0.01-0.017,0.019-0.03,0.025-0.04c0.003-0.01,0.019-0.032,0.045-0.067c0.027-0.035,0.055-0.072,0.085-0.11c0.03-0.038,0.057-0.074,0.083-0.107c0.025-0.033,0.041-0.055,0.047-0.065c0.006-0.01,0.021-0.032,0.045-0.067s0.038-0.058,0.045-0.067H-32.325z M-33.956,170.656c0,0.026,0.001,0.061,0.002,0.103c0.002,0.041,0.003,0.084,0.003,0.127c0,0.04,0,0.076,0.002,0.107c0.001,0.032,0.002,0.05,0.002,0.053c0,0.014,0.012,0.042,0.035,0.085c0.023,0.043,0.042,0.073,0.055,0.09c0.013,0.021,0.034,0.045,0.062,0.075s0.057,0.06,0.085,0.088s0.053,0.052,0.075,0.072c0.021,0.02,0.034,0.03,0.038,0.03h1.225v-1.665h-1.225c-0.003,0-0.016,0.01-0.038,0.029c-0.022,0.021-0.047,0.045-0.075,0.073s-0.057,0.057-0.085,0.087s-0.049,0.056-0.062,0.075c-0.013,0.017-0.032,0.047-0.055,0.09c-0.023,0.044-0.035,0.072-0.035,0.085c0,0.004-0.001,0.021-0.002,0.053c-0.002,0.031-0.002,0.069-0.002,0.112c0,0.04-0.001,0.082-0.003,0.125C-33.955,170.595-33.956,170.629-33.956,170.656z"/>
                </g>
                <g >
                    <rect width="8.252" x="-36.303" y="163.588" fill="#E0E0E0"  height="3.597"/>
                    <rect width="3.6" x="-33.977" y="163.588" fill="#A5A39A"  height="3.597"/>
                </g>
                <g >
                    <path fill="#FFFFFF"  d="M-28.539,171.252c0-0.007,0.001-0.021,0.005-0.045c0.007-0.01,0.021-0.025,0.042-0.047c0.022-0.022,0.035-0.034,0.04-0.038c0.005-0.003,0.013-0.006,0.022-0.008c0.01-0.001,0.019-0.002,0.025-0.002c0.007,0,0.015,0.001,0.025,0.002c0.01,0.002,0.017,0.003,0.02,0.003c0.013,0.026,0.043,0.062,0.09,0.107c0.046,0.045,0.098,0.091,0.152,0.138c0.055,0.047,0.109,0.088,0.163,0.125s0.093,0.06,0.12,0.07c0.003,0.003,0.023,0.006,0.06,0.01c0.037,0.003,0.078,0.007,0.125,0.01c0.046,0.004,0.093,0.006,0.14,0.008c0.047,0.002,0.085,0.002,0.115,0.002c0.017,0,0.046,0,0.087-0.002s0.085-0.004,0.13-0.008c0.045-0.003,0.088-0.007,0.13-0.01c0.042-0.004,0.071-0.007,0.087-0.01c0.01-0.011,0.028-0.027,0.055-0.051c0.027-0.022,0.054-0.049,0.083-0.077s0.054-0.056,0.078-0.082c0.023-0.027,0.04-0.046,0.05-0.056c0.01-0.013,0.025-0.041,0.047-0.085c0.021-0.043,0.034-0.073,0.038-0.09c0.003-0.003,0.005-0.021,0.007-0.055c0.001-0.033,0.002-0.059,0.002-0.075s-0.001-0.042-0.002-0.075c-0.002-0.033-0.004-0.052-0.007-0.055c0-0.014-0.012-0.042-0.035-0.085c-0.023-0.044-0.04-0.073-0.05-0.09c-0.017-0.023-0.04-0.053-0.068-0.088s-0.057-0.069-0.085-0.103s-0.053-0.062-0.075-0.085c-0.022-0.023-0.034-0.035-0.038-0.035h-0.96l-0.615-0.655v-0.614l0.615-0.61h1.225c0.003,0,0.016,0.011,0.037,0.032c0.022,0.022,0.038,0.039,0.048,0.053c0.013,0.017,0.033,0.043,0.06,0.077c0.026,0.035,0.054,0.071,0.082,0.108c0.028,0.036,0.054,0.07,0.078,0.102c0.023,0.032,0.039,0.053,0.045,0.062c0.007,0.018,0.022,0.047,0.045,0.091c0.023,0.043,0.037,0.071,0.04,0.085c0.003,0.003,0.005,0.012,0.005,0.024c0,0.011,0,0.019,0,0.025s0,0.015,0,0.024c0,0.011-0.002,0.016-0.005,0.016c-0.006,0.01-0.021,0.025-0.042,0.047c-0.021,0.022-0.036,0.035-0.042,0.038c-0.003,0.003-0.017,0.006-0.042,0.008c-0.025,0.001-0.044,0.002-0.057,0.002c-0.01,0-0.024-0.001-0.042-0.002c-0.019-0.002-0.029-0.005-0.033-0.008l-0.44-0.436h-0.875c-0.017,0-0.042,0.014-0.075,0.04c-0.033,0.027-0.068,0.059-0.105,0.096c-0.037,0.036-0.072,0.074-0.105,0.114s-0.055,0.074-0.065,0.101c0,0.003-0.001,0.014-0.005,0.03s-0.006,0.036-0.008,0.06c-0.001,0.023-0.003,0.047-0.005,0.07c-0.001,0.023-0.002,0.041-0.002,0.055c0,0.017,0.001,0.037,0.002,0.06c0.002,0.023,0.003,0.047,0.005,0.07c0.002,0.023,0.004,0.044,0.008,0.062s0.005,0.029,0.005,0.032c0.013,0.03,0.036,0.067,0.067,0.11s0.067,0.086,0.105,0.128c0.039,0.041,0.074,0.077,0.107,0.107c0.034,0.029,0.057,0.045,0.07,0.045h1.14c0.006,0.01,0.021,0.032,0.042,0.067c0.021,0.035,0.036,0.058,0.042,0.067c0.006,0.01,0.023,0.031,0.05,0.065c0.027,0.033,0.055,0.068,0.085,0.107c0.03,0.038,0.058,0.074,0.083,0.109s0.041,0.058,0.047,0.067c0.007,0.011,0.015,0.023,0.025,0.04c0.01,0.017,0.019,0.035,0.027,0.056c0.008,0.02,0.016,0.037,0.022,0.052c0.007,0.016,0.01,0.024,0.01,0.028c0,0.003,0.001,0.018,0.003,0.042c0.001,0.025,0.003,0.054,0.005,0.085c0.001,0.032,0.002,0.064,0.002,0.098s0,0.06,0,0.08c0,0.02,0,0.047,0,0.08s-0.001,0.066-0.002,0.1c-0.002,0.033-0.003,0.062-0.005,0.085c-0.002,0.023-0.003,0.037-0.003,0.04c0,0.01-0.011,0.038-0.032,0.083c-0.022,0.045-0.039,0.075-0.053,0.092c-0.006,0.011-0.021,0.031-0.045,0.062c-0.023,0.032-0.049,0.066-0.078,0.103c-0.028,0.037-0.056,0.073-0.082,0.107c-0.027,0.035-0.047,0.062-0.06,0.078c-0.01,0.017-0.026,0.036-0.048,0.058c-0.021,0.021-0.034,0.032-0.037,0.032h-1.225c-0.41-0.41-0.616-0.62-0.618-0.63S-28.539,171.259-28.539,171.252z"/>
                </g>
                <g >
                    <path fill="#FFFFFF"  d="M-1.203,170.701v0.43h-1.632v-0.43H-1.203z"/>
                </g>
                <g >
                    <path fill="#FFFFFF"  d="M1.376,154.183c0-0.01,0.001-0.021,0.004-0.036c0.002-0.014,0.003-0.023,0.003-0.028c0.01-0.028,0.03-0.066,0.061-0.113c0.031-0.048,0.051-0.071,0.061-0.071h2.243c-1.576-1.79-2.365-2.692-2.367-2.706c-0.003-0.015-0.004-0.026-0.004-0.036c0-0.009,0.001-0.021,0.004-0.035c0.002-0.015,0.003-0.023,0.003-0.028c0.01-0.015,0.03-0.037,0.061-0.067c0.031-0.031,0.051-0.052,0.061-0.061c0.01,0,0.031-0.002,0.064-0.004s0.06-0.004,0.078-0.004c0.015,0,0.05,0.003,0.106,0.008l1.994,1.993c0.005,0.005,0.015,0.009,0.028,0.011c0.015,0.003,0.026,0.004,0.036,0.004c0.009,0,0.021-0.001,0.035-0.004c0.015-0.002,0.023-0.006,0.028-0.011c0.005,0,0.022-0.016,0.054-0.046c0.031-0.031,0.054-0.056,0.067-0.075c0.02-0.023,0.062-0.069,0.128-0.139c0.067-0.068,0.143-0.15,0.229-0.246c0.085-0.095,0.176-0.195,0.271-0.302c0.095-0.107,0.185-0.208,0.271-0.303c0.085-0.095,0.16-0.177,0.225-0.246c0.063-0.068,0.105-0.115,0.124-0.139L5.742,151c0.004,0,0.021-0.002,0.05-0.004c0.028-0.002,0.052-0.004,0.071-0.004c0.014,0,0.057,0.003,0.128,0.008c0.014,0.009,0.036,0.029,0.067,0.061c0.031,0.03,0.049,0.05,0.054,0.057s0.008,0.019,0.011,0.035c0.002,0.017,0.003,0.03,0.003,0.039c0,0.01-0.002,0.029-0.007,0.058c-0.01,0.014-0.035,0.049-0.078,0.103c-0.043,0.055-0.09,0.115-0.143,0.182c-0.052,0.067-0.104,0.132-0.156,0.196c-0.053,0.064-0.093,0.112-0.121,0.146c-0.015,0.02-0.048,0.058-0.1,0.114c-0.053,0.057-0.113,0.125-0.182,0.203c-0.069,0.078-0.143,0.16-0.221,0.245c-0.079,0.086-0.151,0.167-0.218,0.242c-0.066,0.076-0.126,0.143-0.178,0.2c-0.053,0.057-0.086,0.095-0.1,0.113c-0.028,0.038-0.065,0.085-0.11,0.139c-0.045,0.055-0.088,0.108-0.128,0.16c-0.041,0.053-0.087,0.119-0.14,0.2l0.378,0.441h1.367c0.01,0,0.03,0.023,0.063,0.071c0.033,0.047,0.055,0.085,0.064,0.113c0,0.005,0.001,0.015,0.004,0.028c0.002,0.015,0.003,0.026,0.003,0.036s-0.002,0.028-0.007,0.057c-0.01,0.024-0.031,0.051-0.064,0.082S6,154.367,5.991,154.367H1.504c-0.01,0-0.029-0.015-0.061-0.046c-0.03-0.031-0.049-0.052-0.054-0.064c-0.004-0.012-0.008-0.024-0.01-0.039C1.377,154.204,1.376,154.193,1.376,154.183z"/>
                    <path fill="#FFFFFF"  d="M3.626,150.281l-0.876-0.875v-1.617l0.876-0.875h1.061v2.77c0.015,0,0.043,0.007,0.086,0.021c0.043,0.014,0.087,0.028,0.132,0.043c0.045,0.014,0.089,0.025,0.132,0.035c0.042,0.01,0.071,0.01,0.085,0c0.043-0.019,0.097-0.054,0.16-0.104c0.064-0.05,0.126-0.101,0.186-0.152c0.06-0.053,0.11-0.103,0.153-0.15c0.042-0.047,0.063-0.078,0.063-0.092v-1.496c0-0.009,0.024-0.029,0.071-0.061c0.048-0.03,0.086-0.053,0.114-0.067h0.063h0.058c0.023,0.01,0.051,0.031,0.082,0.064c0.03,0.033,0.046,0.055,0.046,0.063v1.617l-0.876,0.875H3.626z M4.05,147.329c-0.036,0.007-0.073,0.016-0.114,0.025c-0.04,0.009-0.078,0.02-0.114,0.031c-0.035,0.013-0.06,0.021-0.074,0.025c-0.038,0.023-0.086,0.06-0.143,0.106c-0.057,0.048-0.111,0.099-0.164,0.153c-0.052,0.055-0.097,0.104-0.135,0.149s-0.057,0.075-0.057,0.089v1.375c0,0.014,0.019,0.045,0.057,0.092c0.038,0.048,0.083,0.098,0.135,0.15c0.053,0.052,0.107,0.103,0.164,0.152s0.104,0.085,0.143,0.104c0.015,0.01,0.039,0.02,0.074,0.028c0.036,0.01,0.074,0.021,0.114,0.032c0.041,0.012,0.078,0.021,0.114,0.028c0.035,0.007,0.061,0.011,0.074,0.011v-2.563C4.111,147.319,4.085,147.323,4.05,147.329z"/>
                    <path fill="#FFFFFF"  d="M7.458,144.833c-0.01,0-0.024,0-0.043,0c-0.015,0-0.021-0.002-0.021-0.007c-0.014-0.01-0.038-0.029-0.071-0.061c-0.033-0.03-0.052-0.051-0.057-0.061c-0.005-0.014-0.012-0.052-0.021-0.113c-0.01-0.062-0.021-0.129-0.032-0.2s-0.023-0.138-0.035-0.199s-0.022-0.1-0.032-0.113c0-0.005-0.016-0.027-0.046-0.068c-0.031-0.04-0.067-0.088-0.107-0.143c-0.04-0.054-0.081-0.107-0.121-0.16c-0.04-0.052-0.074-0.095-0.103-0.128c-0.015-0.019-0.037-0.044-0.068-0.074c-0.03-0.031-0.049-0.047-0.053-0.047c-0.015-0.005-0.043-0.005-0.086,0s-0.087,0.011-0.132,0.018c-0.045,0.008-0.089,0.014-0.132,0.019c-0.042,0.005-0.071,0.007-0.085,0.007v1.823c0,0.004-0.017,0.025-0.05,0.063s-0.074,0.085-0.121,0.139c-0.048,0.055-0.097,0.109-0.146,0.164s-0.091,0.099-0.124,0.132c-0.024,0.028-0.058,0.064-0.1,0.106c-0.043,0.043-0.083,0.085-0.121,0.125S5.461,146.144,5.4,146.2H3.028c-0.009,0-0.03-0.015-0.063-0.046s-0.053-0.052-0.057-0.064c-0.005-0.012-0.009-0.024-0.011-0.039c-0.003-0.014-0.004-0.025-0.004-0.035s0.002-0.031,0.007-0.064c0.01-0.028,0.031-0.066,0.064-0.113c0.033-0.048,0.055-0.071,0.063-0.071H5.15c0.01-0.015,0.03-0.047,0.061-0.097c0.031-0.05,0.052-0.082,0.061-0.096c0.015-0.02,0.039-0.051,0.075-0.097c0.035-0.045,0.073-0.095,0.114-0.149c0.04-0.055,0.078-0.105,0.113-0.153c0.036-0.047,0.061-0.08,0.075-0.1v-1.68H3.028c-0.004,0-0.024-0.025-0.06-0.075c-0.036-0.05-0.059-0.087-0.068-0.11c0-0.005-0.001-0.015-0.003-0.028c-0.003-0.015-0.004-0.026-0.004-0.036c0-0.009,0.002-0.03,0.007-0.063c0.01-0.02,0.031-0.044,0.064-0.075c0.033-0.03,0.055-0.046,0.063-0.046h3.867c0.005,0,0.022,0.014,0.053,0.043c0.031,0.028,0.065,0.062,0.104,0.1s0.077,0.078,0.117,0.121c0.041,0.042,0.073,0.078,0.097,0.106c0.028,0.028,0.062,0.07,0.104,0.125c0.04,0.054,0.08,0.107,0.121,0.16c0.04,0.052,0.075,0.1,0.106,0.142c0.031,0.043,0.046,0.067,0.046,0.071c0,0.005,0.003,0.025,0.008,0.061c0.004,0.036,0.008,0.077,0.011,0.125c0.002,0.048,0.004,0.094,0.007,0.139c0.002,0.045,0.004,0.082,0.004,0.11c0,0.02-0.002,0.05-0.004,0.093c-0.003,0.043-0.005,0.087-0.007,0.132c-0.003,0.045-0.007,0.089-0.011,0.132c-0.005,0.042-0.008,0.071-0.008,0.085c-0.009,0.01-0.029,0.031-0.061,0.064c-0.03,0.033-0.053,0.052-0.067,0.057c0,0.005-0.007,0.007-0.021,0.007C7.479,144.833,7.466,144.833,7.458,144.833z"/>
                    <path fill="#FFFFFF"  d="M3.626,142.248l-0.876-0.875v-1.617l0.876-0.875h1.061v2.77c0.015,0,0.043,0.007,0.086,0.021c0.043,0.014,0.087,0.028,0.132,0.043c0.045,0.014,0.089,0.025,0.132,0.035c0.042,0.01,0.071,0.01,0.085,0c0.043-0.019,0.097-0.054,0.16-0.104c0.064-0.05,0.126-0.101,0.186-0.152c0.06-0.053,0.11-0.103,0.153-0.15c0.042-0.047,0.063-0.078,0.063-0.092v-1.496c0-0.009,0.024-0.029,0.071-0.061c0.048-0.03,0.086-0.053,0.114-0.067h0.063h0.058c0.023,0.01,0.051,0.031,0.082,0.064c0.03,0.033,0.046,0.055,0.046,0.063v1.617l-0.876,0.875H3.626z M4.05,139.297c-0.036,0.007-0.073,0.016-0.114,0.025c-0.04,0.009-0.078,0.02-0.114,0.031c-0.035,0.013-0.06,0.021-0.074,0.025c-0.038,0.023-0.086,0.06-0.143,0.106c-0.057,0.048-0.111,0.099-0.164,0.153c-0.052,0.055-0.097,0.104-0.135,0.149s-0.057,0.075-0.057,0.089v1.375c0,0.014,0.019,0.045,0.057,0.092c0.038,0.048,0.083,0.098,0.135,0.15c0.053,0.052,0.107,0.103,0.164,0.152s0.104,0.085,0.143,0.104c0.015,0.01,0.039,0.02,0.074,0.028c0.036,0.01,0.074,0.021,0.114,0.032c0.041,0.012,0.078,0.021,0.114,0.028c0.035,0.007,0.061,0.011,0.074,0.011v-2.563C4.111,139.286,4.085,139.29,4.05,139.297z"/>
                    <path fill="#FFFFFF"  d="M5.933,138.161c-0.009,0-0.03-0.002-0.063-0.007c-0.028-0.01-0.066-0.031-0.114-0.064c-0.047-0.033-0.071-0.055-0.071-0.063v-2.115c0-0.005-0.017-0.023-0.05-0.057s-0.073-0.07-0.121-0.11c-0.047-0.041-0.096-0.08-0.146-0.118c-0.05-0.037-0.083-0.062-0.1-0.074s-0.033-0.02-0.05-0.021s-0.03-0.004-0.039-0.004c-0.01,0-0.029,0.003-0.058,0.008c-0.014,0.014-0.04,0.038-0.078,0.07c-0.038,0.034-0.077,0.07-0.117,0.111c-0.041,0.04-0.077,0.079-0.11,0.117s-0.058,0.063-0.071,0.078c0,0.053-0.006,0.144-0.018,0.274c-0.013,0.131-0.024,0.268-0.036,0.413c-0.012,0.145-0.023,0.282-0.035,0.413c-0.012,0.13-0.022,0.219-0.032,0.267c-0.005,0.015-0.022,0.054-0.054,0.117c-0.03,0.064-0.056,0.108-0.074,0.132c-0.01,0.015-0.031,0.044-0.064,0.089c-0.033,0.046-0.068,0.094-0.106,0.146c-0.038,0.052-0.076,0.104-0.114,0.153s-0.066,0.086-0.086,0.11c-0.014,0.019-0.037,0.045-0.071,0.078c-0.032,0.033-0.052,0.05-0.057,0.05c-0.005,0.005-0.033,0.008-0.085,0.011c-0.053,0.002-0.091,0.003-0.114,0.003s-0.058-0.001-0.104-0.003c-0.045-0.003-0.067-0.006-0.067-0.011c-0.005-0.005-0.023-0.022-0.057-0.054c-0.033-0.03-0.07-0.065-0.11-0.104c-0.041-0.037-0.08-0.078-0.118-0.121c-0.038-0.042-0.068-0.075-0.092-0.1c-0.029-0.033-0.064-0.075-0.107-0.128c-0.043-0.052-0.083-0.105-0.121-0.16s-0.071-0.102-0.1-0.143c-0.028-0.04-0.043-0.062-0.043-0.067v-2.243c0-0.01,0.016-0.029,0.047-0.061c0.03-0.03,0.056-0.051,0.074-0.061c0-0.005,0.01-0.007,0.028-0.007c0.015,0,0.026,0,0.036,0s0.021,0,0.035,0c0.015,0,0.024,0.002,0.029,0.007c0.023,0.01,0.061,0.031,0.11,0.064s0.074,0.052,0.074,0.057v1.994l0.435,0.498c0.01-0.005,0.027-0.019,0.054-0.043c0.025-0.023,0.052-0.048,0.078-0.074s0.051-0.053,0.074-0.078c0.024-0.026,0.038-0.044,0.043-0.054c0.02-0.023,0.044-0.066,0.075-0.128c0.03-0.062,0.049-0.103,0.053-0.121c0.01-0.058,0.021-0.155,0.032-0.296c0.012-0.14,0.024-0.289,0.036-0.448s0.023-0.31,0.035-0.452s0.018-0.242,0.018-0.299c0.01-0.01,0.031-0.03,0.064-0.061c0.033-0.031,0.055-0.052,0.064-0.061c0.023-0.02,0.061-0.048,0.11-0.086s0.101-0.077,0.152-0.117c0.053-0.04,0.102-0.077,0.146-0.11s0.074-0.055,0.089-0.064c0.01-0.005,0.026-0.013,0.05-0.024s0.049-0.025,0.075-0.039c0.025-0.015,0.051-0.027,0.074-0.04c0.024-0.012,0.041-0.018,0.05-0.018c0-0.005,0.01-0.007,0.028-0.007c0.015,0,0.026,0,0.036,0s0.021,0,0.035,0c0.015,0,0.021,0.002,0.021,0.007c0.01,0,0.026,0.006,0.05,0.018c0.024,0.013,0.049,0.025,0.075,0.04c0.026,0.014,0.051,0.027,0.074,0.039c0.024,0.012,0.041,0.02,0.05,0.024c0.015,0.01,0.044,0.031,0.089,0.064c0.046,0.033,0.095,0.07,0.146,0.11c0.053,0.04,0.104,0.079,0.153,0.117s0.086,0.066,0.11,0.086c0.023,0.014,0.051,0.036,0.082,0.067c0.03,0.031,0.046,0.049,0.046,0.054v2.492c0,0.009-0.016,0.03-0.046,0.063c-0.031,0.033-0.053,0.053-0.064,0.058c-0.012,0.004-0.025,0.008-0.039,0.01C5.955,138.16,5.943,138.161,5.933,138.161z"/>
                    <path fill="#FFFFFF"  d="M6.653,130.989h0.356v3.562H6.653V130.989z"/>
                    <path fill="#FFFFFF"  d="M5.186,130.635c-0.01,0-0.031-0.002-0.064-0.007c-0.014-0.01-0.036-0.029-0.067-0.061c-0.031-0.03-0.049-0.05-0.054-0.057s-0.008-0.018-0.011-0.032c-0.002-0.015-0.003-0.026-0.003-0.035c0-0.01,0.001-0.021,0.003-0.036c0.003-0.014,0.004-0.023,0.004-0.028c0.038-0.019,0.089-0.062,0.153-0.128c0.063-0.066,0.129-0.139,0.195-0.218c0.066-0.078,0.126-0.155,0.179-0.231c0.052-0.075,0.085-0.133,0.1-0.171c0.004-0.004,0.009-0.033,0.014-0.085c0.005-0.053,0.01-0.111,0.015-0.178s0.008-0.133,0.011-0.2c0.002-0.066,0.003-0.121,0.003-0.163c0-0.024-0.001-0.065-0.003-0.125c-0.003-0.06-0.006-0.121-0.011-0.186c-0.005-0.063-0.01-0.125-0.015-0.185s-0.01-0.101-0.014-0.125c-0.015-0.014-0.038-0.04-0.071-0.078s-0.07-0.077-0.11-0.117c-0.041-0.04-0.08-0.077-0.118-0.11c-0.037-0.033-0.063-0.058-0.078-0.071c-0.019-0.015-0.06-0.037-0.121-0.067c-0.062-0.031-0.104-0.049-0.128-0.054c-0.005-0.005-0.031-0.009-0.078-0.011c-0.048-0.002-0.083-0.004-0.107-0.004c-0.023,0-0.059,0.002-0.106,0.004s-0.073,0.006-0.078,0.011c-0.02,0-0.06,0.017-0.121,0.05s-0.104,0.057-0.128,0.071c-0.033,0.023-0.075,0.056-0.125,0.096c-0.05,0.041-0.099,0.081-0.146,0.121c-0.048,0.041-0.088,0.076-0.121,0.107c-0.033,0.03-0.05,0.049-0.05,0.053v1.367L3,130.628H2.124l-0.868-0.876v-1.744c0-0.005,0.016-0.022,0.046-0.054c0.031-0.03,0.057-0.054,0.075-0.067c0.023-0.019,0.061-0.048,0.11-0.086c0.05-0.037,0.101-0.077,0.153-0.117c0.052-0.04,0.101-0.077,0.146-0.11s0.075-0.055,0.089-0.064c0.024-0.009,0.066-0.03,0.129-0.063c0.062-0.033,0.102-0.053,0.12-0.057c0.005-0.005,0.018-0.008,0.036-0.008c0.015,0,0.026,0,0.035,0c0.01,0,0.021,0,0.036,0c0.014,0,0.021,0.003,0.021,0.008c0.014,0.009,0.036,0.029,0.067,0.06c0.031,0.031,0.049,0.052,0.054,0.061c0.005,0.005,0.008,0.025,0.011,0.061c0.002,0.036,0.003,0.063,0.003,0.082c0,0.015-0.001,0.035-0.003,0.061c-0.003,0.026-0.006,0.042-0.011,0.047l-0.62,0.626v1.246c0,0.024,0.02,0.06,0.058,0.107c0.038,0.047,0.083,0.097,0.135,0.149c0.053,0.052,0.107,0.102,0.164,0.149s0.104,0.078,0.143,0.093c0.005,0,0.019,0.002,0.042,0.007c0.024,0.005,0.053,0.009,0.086,0.011s0.066,0.005,0.1,0.007c0.033,0.003,0.06,0.004,0.078,0.004c0.024,0,0.053-0.001,0.086-0.004c0.033-0.002,0.066-0.005,0.1-0.007s0.062-0.006,0.089-0.011s0.042-0.007,0.046-0.007c0.043-0.02,0.096-0.051,0.157-0.097c0.062-0.045,0.122-0.095,0.182-0.149s0.11-0.105,0.152-0.153c0.043-0.047,0.064-0.08,0.064-0.1v-1.623c0.015-0.01,0.047-0.029,0.097-0.061s0.081-0.051,0.096-0.061s0.045-0.033,0.093-0.071c0.047-0.038,0.099-0.078,0.153-0.121c0.054-0.043,0.106-0.082,0.156-0.117c0.05-0.036,0.082-0.059,0.096-0.068c0.015-0.009,0.033-0.021,0.058-0.035c0.023-0.015,0.05-0.027,0.078-0.039s0.054-0.022,0.074-0.032c0.021-0.01,0.035-0.014,0.04-0.014c0.004,0,0.024-0.002,0.061-0.004c0.035-0.003,0.075-0.005,0.121-0.007c0.045-0.003,0.091-0.004,0.139-0.004c0.047,0,0.085,0,0.113,0c0.029,0,0.066,0,0.114,0s0.095,0.001,0.143,0.004c0.048,0.002,0.088,0.004,0.121,0.007c0.033,0.002,0.052,0.004,0.057,0.004c0.015,0,0.054,0.015,0.117,0.046c0.064,0.031,0.108,0.056,0.132,0.074c0.015,0.01,0.044,0.031,0.089,0.064c0.046,0.033,0.095,0.07,0.146,0.11c0.053,0.04,0.104,0.08,0.153,0.117c0.05,0.038,0.086,0.067,0.11,0.086c0.023,0.014,0.051,0.037,0.082,0.067c0.03,0.031,0.046,0.049,0.046,0.054v1.744c-0.584,0.584-0.883,0.877-0.897,0.88C5.208,130.634,5.196,130.635,5.186,130.635z"/>
                    <path fill="#FFFFFF"  d="M1.255,124.169l0.876-0.875h1.744c0.005,0,0.022,0.014,0.054,0.042s0.065,0.063,0.104,0.104s0.077,0.082,0.117,0.125c0.04,0.042,0.072,0.078,0.096,0.106c0.024,0.023,0.06,0.065,0.107,0.125c0.047,0.059,0.097,0.121,0.149,0.185c0.052,0.064,0.102,0.126,0.149,0.186s0.078,0.101,0.093,0.124c0.75-0.664,1.132-0.998,1.146-1c0.014-0.002,0.025-0.004,0.035-0.004s0.031,0.003,0.064,0.008c0.014,0.009,0.036,0.029,0.067,0.061c0.031,0.03,0.051,0.053,0.061,0.067c0,0.005,0.001,0.014,0.004,0.028c0.002,0.015,0.003,0.026,0.003,0.035c0,0.01-0.002,0.029-0.007,0.058l-1.374,1.495v1.189h1.246c0.01,0,0.03,0.023,0.063,0.071c0.033,0.047,0.055,0.085,0.064,0.113c0,0.005,0.001,0.015,0.004,0.028c0.002,0.015,0.003,0.026,0.003,0.036s-0.002,0.028-0.007,0.057c-0.01,0.024-0.031,0.051-0.064,0.082S6,126.661,5.991,126.661H1.255V124.169z M4.125,126.163c0-1.163-0.014-1.765-0.042-1.805c-0.029-0.041-0.063-0.087-0.104-0.14c-0.04-0.052-0.082-0.105-0.125-0.16c-0.042-0.054-0.078-0.101-0.106-0.139c-0.015-0.019-0.037-0.045-0.067-0.078c-0.031-0.033-0.049-0.05-0.054-0.05H2.252l-0.499,0.498v1.873H4.125z"/>
                    <path fill="#FFFFFF"  d="M5.933,122.574c-0.009,0-0.03-0.002-0.063-0.007c-0.015-0.01-0.037-0.029-0.067-0.061c-0.031-0.03-0.052-0.054-0.061-0.067c-0.005-0.019-0.015-0.051-0.029-0.097c-0.014-0.045-0.027-0.095-0.039-0.149c-0.012-0.054-0.023-0.105-0.035-0.152c-0.012-0.048-0.018-0.081-0.018-0.101H1.882c0,0.02-0.006,0.053-0.019,0.101c-0.012,0.047-0.023,0.099-0.035,0.152c-0.012,0.055-0.025,0.104-0.039,0.149c-0.015,0.046-0.026,0.078-0.036,0.097c-0.004,0.014-0.022,0.037-0.053,0.067c-0.031,0.031-0.05,0.049-0.058,0.054c-0.007,0.005-0.019,0.008-0.035,0.011c-0.017,0.002-0.029,0.003-0.039,0.003s-0.021-0.001-0.036-0.003c-0.014-0.003-0.023-0.004-0.028-0.004c-0.019-0.01-0.044-0.03-0.074-0.063c-0.031-0.033-0.047-0.055-0.047-0.064v-1.054h4.237c0-0.02,0.006-0.056,0.018-0.11s0.023-0.113,0.035-0.175s0.025-0.118,0.039-0.171c0.015-0.052,0.024-0.088,0.029-0.106c0.009-0.01,0.029-0.031,0.061-0.064c0.03-0.033,0.053-0.055,0.067-0.064h0.063h0.058c0.023,0.01,0.051,0.031,0.082,0.064c0.03,0.033,0.046,0.055,0.046,0.064v1.616c0,0.01-0.016,0.031-0.046,0.064c-0.031,0.033-0.053,0.052-0.064,0.057s-0.025,0.008-0.039,0.011C5.955,122.573,5.943,122.574,5.933,122.574z"/>
                    <path fill="#FFFFFF"  d="M7.458,118.615c-0.01,0-0.024,0-0.043,0c-0.015,0-0.021-0.002-0.021-0.007c-0.014-0.01-0.038-0.029-0.071-0.061c-0.033-0.03-0.052-0.051-0.057-0.061c-0.005-0.014-0.012-0.052-0.021-0.113c-0.01-0.062-0.021-0.129-0.032-0.2s-0.023-0.138-0.035-0.199s-0.022-0.1-0.032-0.113c0-0.005-0.016-0.027-0.046-0.068c-0.031-0.04-0.067-0.088-0.107-0.143c-0.04-0.054-0.081-0.107-0.121-0.16c-0.04-0.052-0.074-0.095-0.103-0.128c-0.015-0.019-0.037-0.044-0.068-0.074c-0.03-0.031-0.049-0.047-0.053-0.047c-0.015-0.005-0.043-0.005-0.086,0s-0.087,0.011-0.132,0.018c-0.045,0.008-0.089,0.014-0.132,0.019c-0.042,0.005-0.071,0.007-0.085,0.007v1.823c0,0.004-0.017,0.025-0.05,0.063s-0.074,0.085-0.121,0.139c-0.048,0.055-0.097,0.109-0.146,0.164s-0.091,0.099-0.124,0.132c-0.024,0.028-0.058,0.064-0.1,0.106c-0.043,0.043-0.083,0.085-0.121,0.125s-0.088,0.089-0.149,0.146H3.028c-0.009,0-0.03-0.015-0.063-0.046s-0.053-0.052-0.057-0.064c-0.005-0.012-0.009-0.024-0.011-0.039c-0.003-0.014-0.004-0.025-0.004-0.035s0.002-0.031,0.007-0.064c0.01-0.028,0.031-0.066,0.064-0.113c0.033-0.048,0.055-0.071,0.063-0.071H5.15c0.01-0.015,0.03-0.047,0.061-0.097c0.031-0.05,0.052-0.082,0.061-0.096c0.015-0.02,0.039-0.051,0.075-0.097c0.035-0.045,0.073-0.095,0.114-0.149c0.04-0.055,0.078-0.105,0.113-0.153c0.036-0.047,0.061-0.08,0.075-0.1v-1.68H3.028c-0.004,0-0.024-0.025-0.06-0.075c-0.036-0.05-0.059-0.087-0.068-0.11c0-0.005-0.001-0.015-0.003-0.028c-0.003-0.015-0.004-0.026-0.004-0.036c0-0.009,0.002-0.03,0.007-0.063c0.01-0.02,0.031-0.044,0.064-0.075c0.033-0.03,0.055-0.046,0.063-0.046h3.867c0.005,0,0.022,0.014,0.053,0.043c0.031,0.028,0.065,0.062,0.104,0.1s0.077,0.078,0.117,0.121c0.041,0.042,0.073,0.078,0.097,0.106c0.028,0.028,0.062,0.07,0.104,0.125c0.04,0.054,0.08,0.107,0.121,0.16c0.04,0.052,0.075,0.1,0.106,0.142c0.031,0.043,0.046,0.067,0.046,0.071c0,0.005,0.003,0.025,0.008,0.061c0.004,0.036,0.008,0.077,0.011,0.125c0.002,0.048,0.004,0.094,0.007,0.139c0.002,0.045,0.004,0.082,0.004,0.11c0,0.02-0.002,0.05-0.004,0.093c-0.003,0.043-0.005,0.087-0.007,0.132c-0.003,0.045-0.007,0.089-0.011,0.132c-0.005,0.042-0.008,0.071-0.008,0.085c-0.009,0.01-0.029,0.031-0.061,0.064c-0.03,0.033-0.053,0.052-0.067,0.057c0,0.005-0.007,0.007-0.021,0.007C7.479,118.615,7.466,118.615,7.458,118.615z"/>
                </g>
                <rect width="7.875" x="-52.956" y="107.939" fill="#FFFFFF"  height="17.959"/>
                <g >
                    <g >
                        <path fill="#FFFFFF"  d="M-46.343,156.264l0.596-0.593h1.183c0.005,0,0.013,0.009,0.036,0.027c0.02,0.02,0.041,0.043,0.068,0.07c0.025,0.028,0.051,0.053,0.078,0.082c0.03,0.033,0.05,0.053,0.068,0.075c0.015,0.017,0.037,0.044,0.071,0.083c0.032,0.043,0.062,0.081,0.102,0.126c0.035,0.044,0.069,0.086,0.102,0.124c0.029,0.043,0.051,0.07,0.063,0.086c0.508-0.449,0.765-0.678,0.775-0.68c0.007,0,0.019,0,0.023,0c0.006,0,0.019,0,0.043,0.004c0.011,0.006,0.025,0.018,0.044,0.042c0.021,0.021,0.037,0.035,0.042,0.042c0,0.005,0,0.013,0.003,0.021c0.001,0.006,0.001,0.017,0.001,0.023s-0.001,0.02-0.005,0.039l-0.93,1.014v0.805h0.843c0.007,0,0.021,0.016,0.042,0.049c0.026,0.033,0.042,0.06,0.048,0.076c0,0.006,0,0.013,0.004,0.021c0.002,0.01,0.002,0.018,0.002,0.025c0,0.004-0.001,0.019-0.006,0.039c-0.006,0.016-0.021,0.033-0.044,0.054c-0.021,0.021-0.035,0.032-0.043,0.032h-3.21V156.264z M-44.397,157.613c0-0.787-0.013-1.193-0.029-1.222c-0.019-0.026-0.043-0.059-0.07-0.093c-0.028-0.036-0.056-0.072-0.083-0.109c-0.03-0.037-0.054-0.068-0.071-0.093c-0.015-0.015-0.029-0.032-0.046-0.056c-0.024-0.021-0.034-0.034-0.039-0.034h-0.931l-0.339,0.34v1.267H-44.397L-44.397,157.613z"/>
                        <path fill="#FFFFFF"  d="M-43.17,155.185c-0.007,0-0.022-0.003-0.044-0.006c-0.01-0.007-0.024-0.021-0.049-0.042c-0.019-0.022-0.034-0.038-0.035-0.046c-0.006-0.014-0.014-0.033-0.024-0.064c-0.009-0.033-0.018-0.066-0.028-0.103c-0.006-0.038-0.015-0.071-0.02-0.104c-0.011-0.031-0.014-0.055-0.014-0.065h-2.283c0.012,0.008,0.022,0.024,0.039,0.048c0.018,0.025,0.031,0.051,0.052,0.075c0.02,0.026,0.036,0.052,0.049,0.081c0.017,0.023,0.025,0.041,0.032,0.052c0.001,0.003,0.004,0.007,0.004,0.019c0,0.011,0,0.02,0,0.022c0,0.009,0,0.017,0,0.026c0,0.009-0.002,0.015-0.004,0.015c-0.007,0.009-0.019,0.022-0.041,0.046c-0.019,0.02-0.033,0.035-0.045,0.042c0,0-0.011,0-0.019,0.003c-0.01,0-0.016,0.002-0.023,0.002c-0.005,0-0.015-0.002-0.023-0.002c-0.009-0.003-0.02-0.003-0.02-0.003c-0.392-0.399-0.589-0.6-0.591-0.608c-0.003-0.008-0.003-0.012-0.003-0.021c0-0.008,0-0.017,0.002-0.026c0.003-0.012,0.003-0.019,0.003-0.022c0.007-0.021,0.021-0.045,0.04-0.076c0.021-0.036,0.034-0.049,0.041-0.049h2.791c0-0.015,0.002-0.036,0.014-0.074c0.004-0.038,0.013-0.079,0.02-0.116c0.01-0.046,0.019-0.082,0.027-0.119c0.011-0.033,0.02-0.06,0.024-0.072c0.001-0.006,0.017-0.022,0.035-0.04c0.024-0.027,0.039-0.039,0.049-0.048h0.044h0.038c0.016,0.009,0.034,0.021,0.054,0.048c0.021,0.019,0.033,0.034,0.033,0.041v1.095c0,0.005-0.012,0.02-0.033,0.042c-0.02,0.021-0.034,0.036-0.043,0.04c-0.007,0.004-0.018,0.006-0.027,0.009C-43.158,155.182-43.165,155.185-43.17,155.185z"/>
                    </g>
                </g>
                <g >
                    <g >
                        <rect width="5.182" x="-52.518" y="150.8"  height="10.169"/>
                        <path fill="#E0E0E0"  d="M-52.956,161.404v-11.039h6.059v11.041h-6.059V161.404z M-52.084,151.238v9.293h4.314v-9.293H-52.084z"/>
                    </g>
                    <g >
                        <rect width="3.598" x="-51.727" y="151.757" fill="#E0E0E0"  height="8.252"/>
                        <rect width="3.598" x="-51.727" y="153.098"  height="5.572"/>
                    </g>
                </g>
                <g >
                    <path fill="#FFFFFF"  d="M-56.567,118.966v-1.664l0.615-0.61h2.274c0.004,0,0.018,0.011,0.04,0.032c0.023,0.021,0.04,0.039,0.051,0.053c0.013,0.017,0.033,0.043,0.06,0.078c0.026,0.034,0.054,0.07,0.08,0.107c0.026,0.036,0.052,0.07,0.075,0.102c0.023,0.032,0.038,0.053,0.045,0.062c0.017,0.021,0.036,0.053,0.058,0.098s0.032,0.07,0.032,0.078v1.664H-56.567z M-53.586,118.616v-1.141c0-0.01-0.011-0.037-0.033-0.082c-0.021-0.045-0.04-0.076-0.058-0.092c-0.013-0.021-0.034-0.045-0.062-0.076c-0.028-0.029-0.057-0.058-0.085-0.084c-0.028-0.027-0.053-0.051-0.074-0.07c-0.022-0.02-0.034-0.029-0.038-0.029h-1.93l-0.351,0.35v1.225H-53.586z"/>
                    <path fill="#FFFFFF"  d="M-53.367,116.192c-0.007,0-0.021-0.001-0.045-0.005c-0.01-0.007-0.026-0.021-0.048-0.043s-0.035-0.037-0.042-0.047c-0.004-0.014-0.011-0.036-0.021-0.068c-0.01-0.031-0.019-0.066-0.027-0.104c-0.008-0.038-0.017-0.074-0.025-0.107c-0.008-0.033-0.012-0.057-0.012-0.069h-2.365c0.01,0.01,0.023,0.027,0.04,0.052s0.034,0.051,0.053,0.077c0.018,0.027,0.035,0.054,0.052,0.08c0.017,0.027,0.027,0.045,0.03,0.055c0.003,0.004,0.005,0.011,0.005,0.021c0,0.011,0,0.019,0,0.025s0,0.015,0,0.024s-0.002,0.016-0.005,0.016c-0.003,0.01-0.016,0.025-0.037,0.047c-0.022,0.021-0.038,0.036-0.048,0.043c-0.003,0-0.01,0.001-0.02,0.002c-0.011,0.002-0.019,0.003-0.025,0.003s-0.015-0.001-0.025-0.003c-0.01-0.001-0.017-0.002-0.02-0.002c-0.407-0.41-0.611-0.619-0.612-0.627c-0.002-0.009-0.003-0.017-0.003-0.023c0-0.006,0.001-0.016,0.003-0.027c0.001-0.012,0.002-0.02,0.002-0.022c0.007-0.021,0.021-0.046,0.043-0.08c0.021-0.033,0.035-0.05,0.042-0.05h2.891c0-0.014,0.004-0.039,0.012-0.078c0.009-0.037,0.018-0.078,0.025-0.122c0.009-0.043,0.018-0.083,0.027-0.12c0.01-0.036,0.017-0.062,0.021-0.074c0.007-0.008,0.021-0.021,0.042-0.045s0.038-0.039,0.048-0.045h0.045h0.04c0.017,0.006,0.036,0.021,0.058,0.045s0.032,0.037,0.032,0.045v1.135c0,0.006-0.011,0.021-0.032,0.045s-0.037,0.037-0.045,0.04c-0.009,0.003-0.018,0.006-0.028,0.007C-53.352,116.191-53.36,116.192-53.367,116.192z"/>
                </g>
                <rect width="42.245" x="-42.957" y="107.485" fill="#4C87D6"  height="53.09"/>
                <rect width="42.334" x="-43.045" y="93.015" fill="#4C87D6"  height="13.666"/>
                <path fill="#8C8C8C"  d="M-49.018,131.732c-1.383,0-2.51-1.128-2.51-2.51c0-1.384,1.127-2.506,2.51-2.506c1.384,0,2.509,1.122,2.509,2.506C-46.509,130.604-47.634,131.732-49.018,131.732z M-49.018,127.587c-0.902,0-1.637,0.733-1.637,1.635c0,0.902,0.733,1.637,1.637,1.637c0.9,0,1.637-0.734,1.637-1.637C-47.381,128.322-48.116,127.587-49.018,127.587z"/>
                <path fill="#8C8C8C"  d="M-49.018,106.732c-1.383,0-2.51-1.128-2.51-2.51c0-1.384,1.127-2.506,2.51-2.506c1.384,0,2.509,1.122,2.509,2.506C-46.509,105.604-47.634,106.732-49.018,106.732z M-49.018,102.587c-0.902,0-1.637,0.733-1.637,1.635c0,0.902,0.733,1.637,1.637,1.637c0.9,0,1.637-0.734,1.637-1.637C-47.381,103.322-48.116,102.587-49.018,102.587z"/>
                <path fill="#8C8C8C"  d="M-48.298,103.976v12.942h-1.44v-12.942c0-0.398,0.322-0.721,0.721-0.721C-48.621,103.255-48.298,103.577-48.298,103.976z"/>
                <path fill="#8C8C8C"  d="M-49.739,129.473v-12.942h1.44v12.942c0,0.398-0.322,0.721-0.72,0.721C-49.417,130.194-49.739,129.871-49.739,129.473z"/>
                <rect width="6.5" x="-52.268" y="112.148"  height="13.5"/>
                <rect width="6.5" x="-52.268" y="112.148" fill="#6B7784"  height="3.812"/>
                <g >
                    <rect width="1.281" x="-49.676" y="140.023" fill="#B7B7B7"  height="1.281"/>
                    <rect width="1.281" x="-51.377" y="145.616" fill="#B7B7B7"  height="1.281"/>
                    <rect width="1.281" x="-47.94" y="145.616" fill="#B7B7B7"  height="1.281"/>
                    <rect width="6.062" x="-52.049" y="141.304"  height="4.312"/>
                    <g >
                        <polygon fill="#E0E0E0" points="-47.94,140.585 -47.94,141.304 -45.987,141.304 -45.987,143.46 -45.268,143.46 -45.268,140.585 " />
                        <polygon fill="#E0E0E0" points="-50.096,141.304 -50.096,140.585 -52.768,140.585 -52.768,143.46 -52.049,143.46 -52.049,141.304 " />
                    </g>
                </g>
                <g >
                    <g >
                        <path fill="#FFFFFF"  d="M-48.794,135.468v2.189c-0.003,0.007-0.009,0.019-0.018,0.035s-0.017,0.034-0.027,0.053c-0.01,0.019-0.019,0.036-0.025,0.053c-0.007,0.017-0.012,0.028-0.015,0.034c0,0.004-0.001,0.011-0.002,0.021c-0.002,0.01-0.002,0.019-0.002,0.025c0,0.006,0,0.015,0.002,0.024c0.001,0.01,0.002,0.017,0.002,0.021c0,0.006,0.004,0.018,0.013,0.034c0.008,0.018,0.018,0.034,0.027,0.053c0.01,0.019,0.02,0.037,0.03,0.056c0.01,0.018,0.015,0.028,0.015,0.032c0.003,0.003,0.005,0.01,0.005,0.02c0,0.011,0,0.019,0,0.025s0,0.015,0,0.024c0,0.011-0.001,0.016-0.005,0.016c-0.003,0.01-0.017,0.025-0.04,0.047c-0.023,0.022-0.037,0.035-0.04,0.038s-0.01,0.006-0.02,0.008c-0.01,0.001-0.018,0.002-0.025,0.002s-0.016-0.001-0.027-0.002c-0.012-0.002-0.019-0.003-0.022-0.003s-0.014-0.005-0.03-0.015c-0.017-0.011-0.035-0.021-0.055-0.03s-0.04-0.02-0.058-0.027c-0.019-0.009-0.029-0.015-0.033-0.018h-0.04h-0.045c-0.006,0.003-0.018,0.009-0.035,0.018c-0.017,0.008-0.034,0.018-0.053,0.027c-0.018,0.01-0.036,0.02-0.052,0.027c-0.017,0.009-0.028,0.015-0.035,0.018h-1.225c-0.003,0-0.017-0.011-0.04-0.032s-0.04-0.041-0.05-0.058c-0.014-0.017-0.034-0.043-0.06-0.078c-0.027-0.034-0.053-0.07-0.08-0.107c-0.027-0.036-0.052-0.07-0.075-0.103c-0.023-0.031-0.038-0.052-0.045-0.062c-0.006-0.01-0.015-0.022-0.025-0.04c-0.01-0.017-0.02-0.034-0.03-0.055c-0.01-0.02-0.019-0.037-0.025-0.053c-0.006-0.015-0.01-0.023-0.01-0.027v-2.189c0-0.007,0.011-0.033,0.033-0.078c0.021-0.045,0.041-0.077,0.057-0.098c0.007-0.01,0.022-0.03,0.045-0.062c0.023-0.031,0.048-0.065,0.075-0.102c0.027-0.037,0.053-0.073,0.08-0.108c0.026-0.034,0.046-0.061,0.06-0.077c0.01-0.014,0.026-0.03,0.05-0.053c0.023-0.021,0.037-0.032,0.04-0.032h1.225L-48.794,135.468z M-50.369,135.207c-0.003,0-0.016,0.011-0.038,0.03c-0.022,0.021-0.047,0.044-0.075,0.072s-0.057,0.057-0.085,0.085s-0.049,0.053-0.062,0.073c-0.007,0.01-0.015,0.023-0.025,0.04c-0.01,0.017-0.02,0.034-0.03,0.055c-0.01,0.02-0.018,0.037-0.025,0.053c-0.006,0.015-0.01,0.024-0.01,0.027v1.84c0,0.007,0.003,0.018,0.01,0.032c0.007,0.016,0.015,0.032,0.025,0.051c0.01,0.018,0.02,0.036,0.03,0.055c0.01,0.019,0.018,0.03,0.025,0.037c0.013,0.021,0.034,0.045,0.062,0.075s0.057,0.06,0.085,0.088s0.053,0.052,0.075,0.072c0.021,0.02,0.034,0.03,0.038,0.03h0.955l-0.69-0.79c-0.003,0-0.006-0.005-0.007-0.016c-0.002-0.01-0.002-0.018-0.002-0.024s0-0.016,0.002-0.027c0.001-0.012,0.004-0.018,0.007-0.018c0.003-0.011,0.017-0.026,0.04-0.048s0.039-0.036,0.045-0.043c0.003,0,0.011,0,0.022-0.002s0.021-0.003,0.028-0.003c0.006,0,0.014,0.001,0.022,0.003s0.014,0.002,0.018,0.002l0.785,0.69v-2.09l-0.35-0.351H-50.369z"/>
                        <path fill="#FFFFFF"  d="M-48.289,138.143c0-0.007,0.001-0.021,0.005-0.045c0.007-0.01,0.021-0.026,0.042-0.048c0.022-0.021,0.038-0.035,0.048-0.042c0.013-0.004,0.036-0.011,0.067-0.021s0.066-0.019,0.105-0.027c0.038-0.008,0.074-0.017,0.107-0.025c0.033-0.008,0.057-0.012,0.07-0.012v-2.365c-0.01,0.01-0.027,0.023-0.052,0.04s-0.051,0.034-0.078,0.053c-0.027,0.018-0.053,0.035-0.08,0.052c-0.026,0.017-0.045,0.027-0.055,0.03c-0.003,0.003-0.01,0.005-0.02,0.005c-0.01,0-0.019,0-0.025,0c-0.006,0-0.015,0-0.025,0c-0.01,0-0.015-0.002-0.015-0.005c-0.01-0.003-0.026-0.016-0.048-0.037c-0.021-0.022-0.036-0.038-0.042-0.048c0-0.003-0.001-0.01-0.002-0.02c-0.001-0.011-0.002-0.019-0.002-0.025s0.001-0.015,0.002-0.025c0.001-0.01,0.002-0.017,0.002-0.02c0.41-0.407,0.619-0.611,0.627-0.612c0.008-0.002,0.016-0.003,0.022-0.003c0.007,0,0.016,0.001,0.028,0.003c0.012,0.001,0.019,0.002,0.022,0.002c0.02,0.007,0.046,0.021,0.08,0.043c0.033,0.021,0.05,0.035,0.05,0.042v2.891c0.013,0,0.039,0.004,0.078,0.012c0.038,0.009,0.079,0.018,0.123,0.025c0.043,0.009,0.083,0.018,0.12,0.027s0.062,0.017,0.075,0.021c0.007,0.007,0.021,0.021,0.045,0.042s0.039,0.038,0.045,0.048v0.045v0.04c-0.006,0.017-0.021,0.036-0.045,0.058s-0.038,0.032-0.045,0.032h-1.135c-0.007,0-0.022-0.011-0.045-0.032c-0.023-0.021-0.037-0.037-0.04-0.045c-0.003-0.009-0.006-0.018-0.007-0.028C-48.288,138.157-48.289,138.15-48.289,138.143z"/>
                    </g>
                </g>
                <g >
                    <path fill="#FFFFFF"  d="M-40.107,111.24c0.27,0.018,0.54-0.081,0.738-0.27l1.477-1.432c0.261-0.252,0.611-0.379,0.972-0.352c0.352,0.027,0.685,0.207,0.9,0.486c0.216,0.288,0.297,0.657,0.225,1.008c-0.071,0.352-0.287,0.658-0.594,0.838c-0.09,0.045-0.189,0.018-0.243-0.063c-0.045-0.081-0.018-0.188,0.063-0.233c0.225-0.136,0.387-0.352,0.44-0.613c0.046-0.252-0.009-0.513-0.171-0.72c-0.152-0.207-0.396-0.342-0.648-0.36c-0.261-0.018-0.521,0.072-0.702,0.252l-1.485,1.441c-0.261,0.261-0.63,0.387-0.999,0.359s-0.711-0.216-0.937-0.513c-0.225-0.298-0.314-0.675-0.233-1.036c0.071-0.369,0.297-0.684,0.621-0.873c0.081-0.045,0.188-0.018,0.233,0.072c0.045,0.081,0.019,0.18-0.062,0.234c-0.234,0.135-0.405,0.369-0.459,0.63c-0.055,0.271,0.009,0.55,0.18,0.765C-40.629,111.077-40.377,111.222-40.107,111.24z"/>
                    <path fill="#FFFFFF"  d="M-37.055,115.298h-0.504c-0.567,0-1.045-0.369-1.197-0.882l-2.341,0.874c-0.091,0.035-0.189-0.01-0.226-0.1s0.009-0.189,0.1-0.225l2.412-0.9c0,0,0-0.01,0-0.019v-0.909h-2.35c-0.099,0-0.171-0.072-0.171-0.171c0-0.091,0.072-0.171,0.171-0.171h5.186c0.1,0,0.171,0.08,0.171,0.171v1.08C-35.804,114.74-36.362,115.298-37.055,115.298z M-37.055,114.956c0.504,0,0.909-0.404,0.909-0.909v-0.909h-2.322v0.909c0,0.505,0.404,0.909,0.909,0.909H-37.055z"/>
                    <path fill="#FFFFFF"  d="M-35.804,117.79c0,0.693-0.558,1.252-1.251,1.252h-2.989c-0.693,0-1.251-0.559-1.251-1.252v-1.08c0-0.099,0.072-0.171,0.171-0.171h5.149c0.1,0,0.171,0.072,0.171,0.171V117.79z M-36.146,117.79v-0.908h-4.808v0.908c0,0.505,0.405,0.91,0.909,0.91h2.989C-36.551,118.7-36.146,118.295-36.146,117.79z"/>
                    <path fill="#FFFFFF"  d="M-38.991,122.615v-2.16c0-0.099,0.072-0.18,0.171-0.18s0.171,0.081,0.171,0.18v2.16c0,0.091-0.072,0.172-0.171,0.172S-38.991,122.705-38.991,122.615z"/>
                    <path fill="#FFFFFF"  d="M-40.081,124.019h3.062c0.693,0,1.251,0.566,1.251,1.26c0,0.684-0.558,1.252-1.251,1.252h-3.062c-0.692,0-1.251-0.568-1.251-1.252C-41.332,124.585-40.773,124.019-40.081,124.019z M-40.081,124.369c-0.504,0-0.909,0.405-0.909,0.909c0,0.495,0.405,0.9,0.909,0.9h3.062c0.504,0,0.909-0.405,0.909-0.9c0-0.504-0.405-0.909-0.909-0.909H-40.081z"/>
                    <path fill="#FFFFFF"  d="M-38.549,127.906h2.574c0.1,0,0.171,0.081,0.171,0.171v1.873c0,0.099-0.071,0.17-0.171,0.17c-0.099,0-0.171-0.071-0.171-0.17v-1.702c-0.414,0-1.458,0-1.954,0c0.234,0.306,0.324,0.702,0.217,1.089c-0.145,0.55-0.64,0.928-1.207,0.928h-0.99c-0.566,0-1.062-0.378-1.215-0.928c-0.145-0.549,0.099-1.125,0.585-1.404c0.09-0.054,0.189-0.026,0.243,0.063c0.045,0.081,0.018,0.181-0.063,0.233c-0.359,0.208-0.53,0.622-0.423,1.018c0.1,0.396,0.459,0.676,0.873,0.676h0.99c0.405,0,0.774-0.279,0.874-0.676c0.107-0.396-0.063-0.81-0.424-1.018c-0.062-0.045-0.099-0.116-0.081-0.197C-38.694,127.96-38.63,127.906-38.549,127.906z"/>
                    <path fill="#FFFFFF"  d="M-35.984,131.308c0.09-0.027,0.188,0.027,0.207,0.126c0.027,0.091-0.027,0.181-0.117,0.207c0,0-3.673,1.018-4.618,1.278c0.945,0.262,4.618,1.27,4.618,1.27c0.09,0.027,0.145,0.126,0.117,0.217c-0.019,0.09-0.117,0.144-0.207,0.116l-5.222-1.44c-0.072-0.018-0.126-0.09-0.126-0.162c0-0.08,0.054-0.152,0.126-0.171L-35.984,131.308z"/>
                    <path fill="#FFFFFF"  d="M-35.804,136.906c0,0.693-0.558,1.251-1.251,1.251h-2.989c-0.693,0-1.251-0.558-1.251-1.251v-1.08c0-0.099,0.072-0.171,0.171-0.171h5.149c0.1,0,0.171,0.072,0.171,0.171V136.906z M-36.146,136.906v-0.909h-4.808v0.909c0,0.505,0.405,0.909,0.909,0.909h2.989C-36.551,137.816-36.146,137.411-36.146,136.906z"/>
                    <path fill="#FFFFFF"  d="M-40.081,139.4h3.062c0.567,0,1.062,0.378,1.206,0.927c0.153,0.55-0.09,1.126-0.576,1.405c-0.09,0.053-0.189,0.026-0.243-0.064c-0.045-0.08-0.018-0.188,0.063-0.233c0.359-0.207,0.531-0.621,0.423-1.017c-0.099-0.396-0.468-0.676-0.873-0.676h-3.062c-0.414,0-0.773,0.279-0.873,0.676c-0.107,0.396,0.063,0.81,0.423,1.017c0.081,0.045,0.108,0.153,0.063,0.233c-0.054,0.091-0.153,0.117-0.243,0.064c-0.486-0.279-0.729-0.855-0.585-1.405C-41.142,139.778-40.647,139.4-40.081,139.4z"/>
                    <path fill="#FFFFFF"  d="M-38.991,145.197v-2.162c0-0.098,0.072-0.18,0.171-0.18s0.171,0.082,0.171,0.18v2.162c0,0.09-0.072,0.17-0.171,0.17S-38.991,145.286-38.991,145.197z"/>
                    <path fill="#FFFFFF"  d="M-40.107,148.597c0.27,0.019,0.54-0.08,0.738-0.27l1.477-1.432c0.261-0.252,0.611-0.378,0.972-0.352c0.352,0.027,0.685,0.207,0.9,0.486c0.216,0.289,0.297,0.658,0.225,1.009c-0.071,0.351-0.287,0.657-0.594,0.837c-0.09,0.045-0.189,0.018-0.243-0.062c-0.045-0.082-0.018-0.189,0.063-0.234c0.225-0.135,0.387-0.352,0.44-0.612c0.046-0.252-0.009-0.513-0.171-0.72c-0.152-0.207-0.396-0.342-0.648-0.36c-0.261-0.019-0.521,0.071-0.702,0.252l-1.485,1.44c-0.261,0.262-0.63,0.387-0.999,0.359c-0.369-0.026-0.711-0.215-0.937-0.512c-0.225-0.298-0.314-0.676-0.233-1.036c0.071-0.369,0.297-0.685,0.621-0.873c0.081-0.045,0.188-0.019,0.233,0.071c0.045,0.082,0.019,0.181-0.062,0.234c-0.234,0.135-0.405,0.369-0.459,0.631c-0.055,0.27,0.009,0.549,0.18,0.766C-40.629,148.435-40.377,148.579-40.107,148.597z"/>
                    <path fill="#FFFFFF"  d="M-41.125,150.145h5.186c0.099,0,0.171,0.081,0.171,0.181c0,0.09-0.072,0.17-0.171,0.17h-5.015v1.63c0,0.091-0.072,0.171-0.171,0.171s-0.171-0.08-0.171-0.171v-1.8C-41.295,150.226-41.223,150.145-41.125,150.145z"/>
                    <path fill="#FFFFFF"  d="M-38.991,155.509v-2.16c0-0.1,0.072-0.18,0.171-0.18s0.171,0.08,0.171,0.18v2.16c0,0.09-0.072,0.172-0.171,0.172S-38.991,155.599-38.991,155.509z"/>
                    <path fill="#FFFFFF"  d="M-40.081,156.921h3.062c0.567,0,1.062,0.379,1.206,0.928c0.153,0.549-0.09,1.125-0.576,1.404c-0.09,0.055-0.189,0.027-0.243-0.062c-0.045-0.082-0.018-0.189,0.063-0.234c0.359-0.207,0.531-0.621,0.423-1.018c-0.099-0.396-0.468-0.675-0.873-0.675h-3.062c-0.414,0-0.773,0.278-0.873,0.675c-0.107,0.396,0.063,0.811,0.423,1.018c0.081,0.045,0.108,0.152,0.063,0.234c-0.054,0.09-0.153,0.117-0.243,0.062c-0.486-0.279-0.729-0.855-0.585-1.404C-41.142,157.3-40.647,156.921-40.081,156.921z"/>
                </g>
                <g >
                    <path fill="#FFFFFF"  d="M-22.071,108.966c0.048-0.041,0.119-0.041,0.168,0l0.719,0.72c0.03,0.036,0.042,0.084,0.024,0.126s-0.06,0.072-0.108,0.072h-3.478c-0.066,0-0.114-0.055-0.114-0.114c0-0.065,0.048-0.114,0.114-0.114c0,0,2.729,0,3.202,0c-0.21-0.209-0.527-0.527-0.527-0.527C-22.113,109.086-22.113,109.015-22.071,108.966z"/>
                    <path fill="#FFFFFF"  d="M-24.026,111.282h2.039c0.461,0,0.833,0.378,0.833,0.84c0,0.455-0.372,0.834-0.833,0.834h-2.039c-0.462,0-0.834-0.379-0.834-0.834C-24.86,111.66-24.488,111.282-24.026,111.282z M-24.026,111.517c-0.336,0-0.605,0.27-0.605,0.605c0,0.33,0.27,0.6,0.605,0.6h2.039c0.336,0,0.605-0.27,0.605-0.6c0-0.336-0.27-0.605-0.605-0.605H-24.026z"/>
                    <path fill="#FFFFFF"  d="M-24.715,115.734c-0.061,0.018-0.126-0.018-0.145-0.078c-0.012-0.061,0.024-0.126,0.084-0.145c0,0,0.318-0.084,0.756-0.203v-1.283c-0.438-0.12-0.756-0.21-0.756-0.21c-0.06-0.013-0.096-0.078-0.084-0.138c0.019-0.061,0.084-0.096,0.145-0.084l3.478,0.959c0.048,0.018,0.084,0.061,0.084,0.114s-0.036,0.096-0.084,0.108L-24.715,115.734z M-23.792,115.241c0.756-0.209,1.728-0.473,2.093-0.575c-0.365-0.103-1.337-0.366-2.093-0.575V115.241z"/>
                    <path fill="#FFFFFF"  d="M-21.568,118.045c0.187,0.114,0.324,0.288,0.384,0.497c0.061,0.217,0.036,0.438-0.071,0.631c-0.108,0.191-0.282,0.336-0.492,0.396c-0.21,0.065-0.432,0.042-0.63-0.06c0,0-1.937-1.02-2.23-1.17c0,0.275,0,1.151,0,1.151c0,0.06-0.048,0.114-0.113,0.114c-0.066,0-0.114-0.055-0.114-0.114v-1.343c0-0.043,0.018-0.078,0.054-0.103c0.036-0.019,0.078-0.019,0.114,0l2.398,1.259c0.144,0.072,0.306,0.09,0.456,0.043c0.149-0.043,0.275-0.145,0.354-0.288c0.078-0.138,0.096-0.3,0.054-0.45c-0.042-0.156-0.144-0.281-0.281-0.359c-0.055-0.036-0.072-0.107-0.042-0.162C-21.693,118.033-21.627,118.015-21.568,118.045z"/>
                    <path fill="#FFFFFF"  d="M-23.006,120.595h1.715c0.065,0,0.114,0.055,0.114,0.114v1.247c0,0.066-0.049,0.114-0.114,0.114c-0.066,0-0.114-0.048-0.114-0.114v-1.133c-0.275,0-0.972,0-1.301,0c0.155,0.203,0.216,0.467,0.144,0.725c-0.096,0.367-0.426,0.618-0.804,0.618h-0.659c-0.378,0-0.708-0.251-0.81-0.618c-0.096-0.365,0.065-0.749,0.39-0.936c0.06-0.035,0.126-0.018,0.162,0.043c0.029,0.054,0.012,0.119-0.042,0.156c-0.24,0.137-0.354,0.413-0.282,0.678c0.066,0.264,0.306,0.449,0.582,0.449h0.659c0.271,0,0.516-0.186,0.582-0.449c0.072-0.265-0.042-0.541-0.282-0.678c-0.042-0.031-0.065-0.078-0.054-0.133C-23.103,120.631-23.061,120.595-23.006,120.595z"/>
                    <path fill="#FFFFFF"  d="M-24.026,122.995h2.039c0.461,0,0.833,0.378,0.833,0.84c0,0.455-0.372,0.834-0.833,0.834h-2.039c-0.462,0-0.834-0.379-0.834-0.834C-24.86,123.373-24.488,122.995-24.026,122.995z M-24.026,123.23c-0.336,0-0.605,0.27-0.605,0.605c0,0.33,0.27,0.6,0.605,0.6h2.039c0.336,0,0.605-0.27,0.605-0.6c0-0.336-0.27-0.605-0.605-0.605H-24.026z"/>
                    <path fill="#FFFFFF"  d="M-21.297,125.36c0.06-0.019,0.126,0.019,0.138,0.084c0.018,0.06-0.018,0.12-0.078,0.138c0,0-2.446,0.678-3.076,0.852c0.63,0.174,3.076,0.846,3.076,0.846c0.061,0.018,0.096,0.084,0.078,0.145c-0.012,0.059-0.078,0.096-0.138,0.077l-3.479-0.96c-0.048-0.012-0.084-0.059-0.084-0.107c0-0.054,0.036-0.102,0.084-0.113L-21.297,125.36z"/>
                    <path fill="#FFFFFF"  d="M-24.715,129.895c-0.061,0.019-0.126-0.019-0.145-0.078c-0.012-0.06,0.024-0.126,0.084-0.144c0,0,0.318-0.084,0.756-0.204v-1.283c-0.438-0.12-0.756-0.21-0.756-0.21c-0.06-0.012-0.096-0.078-0.084-0.139c0.019-0.059,0.084-0.096,0.145-0.084l3.478,0.96c0.048,0.019,0.084,0.06,0.084,0.114c0,0.054-0.036,0.096-0.084,0.107L-24.715,129.895z M-23.792,129.404c0.756-0.211,1.728-0.475,2.093-0.576c-0.365-0.102-1.337-0.365-2.093-0.576V129.404z"/>
                    <path fill="#FFFFFF"  d="M-24.026,130.537h2.039c0.377,0,0.707,0.252,0.803,0.618c0.103,0.365-0.06,0.75-0.384,0.936c-0.06,0.035-0.125,0.018-0.161-0.043c-0.03-0.053-0.013-0.125,0.042-0.155c0.239-0.138,0.354-0.413,0.281-0.678c-0.065-0.264-0.312-0.45-0.581-0.45h-2.039c-0.276,0-0.516,0.187-0.582,0.45c-0.072,0.265,0.042,0.54,0.282,0.678c0.054,0.03,0.071,0.103,0.042,0.155c-0.036,0.061-0.103,0.078-0.162,0.043c-0.324-0.186-0.485-0.57-0.39-0.936C-24.734,130.789-24.404,130.537-24.026,130.537z"/>
                    <path fill="#FFFFFF"  d="M-22.071,136.288c0.048-0.043,0.119-0.043,0.168,0l0.719,0.719c0.03,0.036,0.042,0.084,0.024,0.126s-0.06,0.072-0.108,0.072h-3.478c-0.066,0-0.114-0.054-0.114-0.114c0-0.066,0.048-0.113,0.114-0.113c0,0,2.729,0,3.202,0c-0.21-0.211-0.527-0.528-0.527-0.528C-22.113,136.407-22.113,136.335-22.071,136.288z"/>
                    <path fill="#FFFFFF"  d="M-24.026,138.604h2.039c0.461,0,0.833,0.378,0.833,0.839c0,0.457-0.372,0.834-0.833,0.834h-2.039c-0.462,0-0.834-0.377-0.834-0.834C-24.86,138.982-24.488,138.604-24.026,138.604z M-24.026,138.837c-0.336,0-0.605,0.271-0.605,0.605c0,0.33,0.27,0.601,0.605,0.601h2.039c0.336,0,0.605-0.271,0.605-0.601c0-0.335-0.27-0.605-0.605-0.605H-24.026z"/>
                    <path fill="#FFFFFF"  d="M-24.715,143.055c-0.061,0.019-0.126-0.019-0.145-0.078c-0.012-0.06,0.024-0.126,0.084-0.144c0,0,0.318-0.084,0.756-0.204v-1.283c-0.438-0.12-0.756-0.21-0.756-0.21c-0.06-0.012-0.096-0.078-0.084-0.139c0.019-0.059,0.084-0.096,0.145-0.084l3.478,0.96c0.048,0.019,0.084,0.06,0.084,0.114c0,0.054-0.036,0.096-0.084,0.107L-24.715,143.055z M-23.792,142.564c0.756-0.211,1.728-0.475,2.093-0.576c-0.365-0.102-1.337-0.365-2.093-0.576V142.564z"/>
                    <path fill="#FFFFFF"  d="M-22.071,145.505c0.048-0.043,0.119-0.043,0.168,0l0.719,0.719c0.03,0.036,0.042,0.084,0.024,0.126s-0.06,0.072-0.108,0.072h-3.478c-0.066,0-0.114-0.054-0.114-0.114c0-0.066,0.048-0.113,0.114-0.113c0,0,2.729,0,3.202,0c-0.21-0.211-0.527-0.528-0.527-0.528C-22.113,145.624-22.113,145.552-22.071,145.505z"/>
                    <path fill="#FFFFFF"  d="M-21.568,147.863c0.187,0.113,0.324,0.288,0.384,0.498c0.061,0.216,0.036,0.438-0.071,0.629c-0.108,0.192-0.282,0.336-0.492,0.396c-0.21,0.066-0.432,0.041-0.63-0.061c0,0-1.937-1.02-2.23-1.169c0,0.276,0,1.151,0,1.151c0,0.061-0.048,0.113-0.113,0.113c-0.066,0-0.114-0.053-0.114-0.113v-1.344c0-0.041,0.018-0.078,0.054-0.102c0.036-0.018,0.078-0.018,0.114,0l2.398,1.26c0.144,0.072,0.306,0.09,0.456,0.041c0.149-0.041,0.275-0.144,0.354-0.287c0.078-0.139,0.096-0.3,0.054-0.449c-0.042-0.156-0.144-0.283-0.281-0.36c-0.055-0.036-0.072-0.108-0.042-0.162C-21.693,147.851-21.627,147.833-21.568,147.863z"/>
                    <path fill="#FFFFFF"  d="M-23.006,150.413h1.715c0.065,0,0.114,0.053,0.114,0.113v1.247c0,0.066-0.049,0.114-0.114,0.114c-0.066,0-0.114-0.048-0.114-0.114v-1.134c-0.275,0-0.972,0-1.301,0c0.155,0.205,0.216,0.469,0.144,0.727c-0.096,0.365-0.426,0.617-0.804,0.617h-0.659c-0.378,0-0.708-0.252-0.81-0.617c-0.096-0.366,0.065-0.75,0.39-0.936c0.06-0.036,0.126-0.018,0.162,0.041c0.029,0.055,0.012,0.121-0.042,0.156c-0.24,0.139-0.354,0.414-0.282,0.678c0.066,0.264,0.306,0.45,0.582,0.45h0.659c0.271,0,0.516-0.187,0.582-0.45c0.072-0.264-0.042-0.539-0.282-0.678c-0.042-0.029-0.065-0.078-0.054-0.131C-23.103,150.448-23.061,150.413-23.006,150.413z"/>
                    <path fill="#FFFFFF"  d="M-21.297,152.681c0.06-0.018,0.126,0.018,0.138,0.084c0.018,0.061-0.018,0.119-0.078,0.138c0,0-2.446,0.678-3.076,0.852c0.63,0.174,3.076,0.846,3.076,0.846c0.061,0.019,0.096,0.084,0.078,0.144c-0.012,0.061-0.078,0.096-0.138,0.078l-3.479-0.959c-0.048-0.012-0.084-0.061-0.084-0.108c0-0.054,0.036-0.103,0.084-0.114L-21.297,152.681z"/>
                    <path fill="#FFFFFF"  d="M-24.715,157.216c-0.061,0.018-0.126-0.019-0.145-0.078c-0.012-0.061,0.024-0.127,0.084-0.145c0,0,0.318-0.084,0.756-0.203v-1.283c-0.438-0.121-0.756-0.211-0.756-0.211c-0.06-0.012-0.096-0.078-0.084-0.138c0.019-0.06,0.084-0.096,0.145-0.084l3.478,0.96c0.048,0.018,0.084,0.06,0.084,0.113c0,0.055-0.036,0.096-0.084,0.108L-24.715,157.216z M-23.792,156.724c0.756-0.21,1.728-0.474,2.093-0.576c-0.365-0.102-1.337-0.365-2.093-0.575V156.724z"/>
                    <path fill="#FFFFFF"  d="M-24.026,157.859h2.039c0.377,0,0.707,0.252,0.803,0.617c0.103,0.366-0.06,0.75-0.384,0.936c-0.06,0.036-0.125,0.018-0.161-0.042c-0.03-0.054-0.013-0.126,0.042-0.155c0.239-0.139,0.354-0.414,0.281-0.678c-0.065-0.264-0.312-0.45-0.581-0.45h-2.039c-0.276,0-0.516,0.187-0.582,0.45c-0.072,0.264,0.042,0.539,0.282,0.678c0.054,0.029,0.071,0.102,0.042,0.155c-0.036,0.06-0.103,0.078-0.162,0.042c-0.324-0.186-0.485-0.569-0.39-0.936C-24.734,158.111-24.404,157.859-24.026,157.859z"/>
                    <path fill="#FFFFFF"  d="M-29.271,108.966c0.048-0.041,0.119-0.041,0.168,0l0.719,0.72c0.03,0.036,0.042,0.084,0.024,0.126s-0.06,0.072-0.107,0.072h-3.479c-0.066,0-0.114-0.055-0.114-0.114c0-0.065,0.048-0.114,0.114-0.114c0,0,2.729,0,3.202,0c-0.21-0.209-0.527-0.527-0.527-0.527C-29.313,109.086-29.313,109.015-29.271,108.966z"/>
                    <path fill="#FFFFFF"  d="M-31.226,111.282h2.039c0.461,0,0.833,0.378,0.833,0.84c0,0.455-0.372,0.834-0.833,0.834h-2.039c-0.462,0-0.834-0.379-0.834-0.834C-32.06,111.66-31.688,111.282-31.226,111.282z M-31.226,111.517c-0.336,0-0.605,0.27-0.605,0.605c0,0.33,0.27,0.6,0.605,0.6h2.039c0.335,0,0.605-0.27,0.605-0.6c0-0.336-0.271-0.605-0.605-0.605H-31.226z"/>
                    <path fill="#FFFFFF"  d="M-31.916,115.734c-0.061,0.018-0.126-0.018-0.145-0.078c-0.012-0.061,0.024-0.126,0.084-0.145c0,0,0.318-0.084,0.756-0.203v-1.283c-0.438-0.12-0.756-0.21-0.756-0.21c-0.06-0.013-0.096-0.078-0.084-0.138c0.019-0.061,0.084-0.096,0.145-0.084l3.478,0.959c0.048,0.018,0.084,0.061,0.084,0.114s-0.036,0.096-0.084,0.108L-31.916,115.734z M-30.993,115.241c0.756-0.209,1.728-0.473,2.093-0.575c-0.365-0.103-1.337-0.366-2.093-0.575V115.241z"/>
                    <path fill="#FFFFFF"  d="M-31.226,121.357h0.359c0.336,0,0.605-0.27,0.605-0.605c0-0.066,0.049-0.113,0.114-0.113c0.066,0,0.114,0.047,0.114,0.113c0,0.336,0.27,0.605,0.605,0.605h0.24c0.27,0,0.516-0.186,0.581-0.449c0.072-0.264-0.042-0.546-0.281-0.678c-0.055-0.036-0.072-0.102-0.042-0.162c0.036-0.054,0.102-0.072,0.161-0.042c0.324,0.192,0.486,0.575,0.384,0.941c-0.096,0.366-0.426,0.618-0.803,0.618h-0.24c-0.306,0-0.575-0.168-0.72-0.414c-0.144,0.246-0.414,0.414-0.72,0.414h-0.359c-0.378,0-0.708-0.252-0.81-0.618c-0.096-0.366,0.065-0.749,0.39-0.941c0.06-0.03,0.126-0.012,0.162,0.042c0.029,0.061,0.012,0.126-0.042,0.162c-0.24,0.132-0.354,0.414-0.282,0.678C-31.742,121.171-31.502,121.357-31.226,121.357z"/>
                    <path fill="#FFFFFF"  d="M-31.226,122.564h2.039c0.461,0,0.833,0.378,0.833,0.84c0,0.455-0.372,0.834-0.833,0.834h-2.039c-0.462,0-0.834-0.379-0.834-0.834C-32.06,122.942-31.688,122.564-31.226,122.564z M-31.226,122.798c-0.336,0-0.605,0.27-0.605,0.605c0,0.33,0.27,0.6,0.605,0.6h2.039c0.335,0,0.605-0.27,0.605-0.6c0-0.336-0.271-0.605-0.605-0.605H-31.226z"/>
                    <path fill="#FFFFFF"  d="M-28.498,124.928c0.06-0.019,0.126,0.019,0.138,0.084c0.018,0.06-0.018,0.12-0.078,0.138c0,0-2.446,0.678-3.076,0.852c0.63,0.174,3.076,0.846,3.076,0.846c0.061,0.018,0.096,0.084,0.078,0.145c-0.012,0.059-0.078,0.096-0.138,0.077l-3.479-0.96c-0.048-0.012-0.084-0.059-0.084-0.107c0-0.054,0.036-0.102,0.084-0.113L-28.498,124.928z"/>
                    <path fill="#FFFFFF"  d="M-28.377,128.659c0,0.462-0.372,0.834-0.834,0.834h-1.991c-0.461,0-0.833-0.372-0.833-0.834v-0.72c0-0.065,0.048-0.114,0.113-0.114h3.431c0.065,0,0.114,0.049,0.114,0.114V128.659z M-28.606,128.659v-0.605h-3.202v0.605c0,0.336,0.271,0.605,0.605,0.605h1.991C-28.875,129.265-28.606,128.995-28.606,128.659z"/>
                    <path fill="#FFFFFF"  d="M-31.226,130.322h2.039c0.377,0,0.707,0.252,0.803,0.617c0.103,0.367-0.06,0.75-0.384,0.936c-0.06,0.037-0.125,0.019-0.161-0.041c-0.03-0.055-0.013-0.127,0.042-0.156c0.239-0.139,0.354-0.414,0.281-0.678c-0.065-0.264-0.312-0.449-0.581-0.449h-2.039c-0.276,0-0.516,0.186-0.582,0.449c-0.072,0.264,0.042,0.539,0.282,0.678c0.054,0.029,0.071,0.102,0.042,0.156c-0.036,0.06-0.103,0.078-0.162,0.041c-0.324-0.186-0.485-0.568-0.39-0.936C-31.934,130.573-31.604,130.322-31.226,130.322z"/>
                    <path fill="#FFFFFF"  d="M-29.271,136.503c0.048-0.043,0.119-0.043,0.168,0l0.719,0.719c0.03,0.036,0.042,0.084,0.024,0.126s-0.06,0.072-0.107,0.072h-3.479c-0.066,0-0.114-0.054-0.114-0.114c0-0.066,0.048-0.113,0.114-0.113c0,0,2.729,0,3.202,0c-0.21-0.211-0.527-0.528-0.527-0.528C-29.313,136.622-29.313,136.55-29.271,136.503z"/>
                    <path fill="#FFFFFF"  d="M-31.226,138.819h2.039c0.461,0,0.833,0.378,0.833,0.839c0,0.457-0.372,0.834-0.833,0.834h-2.039c-0.462,0-0.834-0.377-0.834-0.834C-32.06,139.197-31.688,138.819-31.226,138.819z M-31.226,139.052c-0.336,0-0.605,0.271-0.605,0.605c0,0.33,0.27,0.601,0.605,0.601h2.039c0.335,0,0.605-0.271,0.605-0.601c0-0.335-0.271-0.605-0.605-0.605H-31.226z"/>
                    <path fill="#FFFFFF"  d="M-31.916,143.27c-0.061,0.019-0.126-0.019-0.145-0.078c-0.012-0.06,0.024-0.126,0.084-0.144c0,0,0.318-0.084,0.756-0.204v-1.283c-0.438-0.12-0.756-0.21-0.756-0.21c-0.06-0.012-0.096-0.078-0.084-0.139c0.019-0.059,0.084-0.096,0.145-0.084l3.478,0.96c0.048,0.019,0.084,0.06,0.084,0.114c0,0.054-0.036,0.096-0.084,0.107L-31.916,143.27z M-30.993,142.779c0.756-0.211,1.728-0.475,2.093-0.576c-0.365-0.102-1.337-0.365-2.093-0.576V142.779z"/>
                    <path fill="#FFFFFF"  d="M-28.768,147.646c0.187,0.113,0.324,0.288,0.384,0.498c0.061,0.216,0.036,0.438-0.071,0.629c-0.108,0.192-0.282,0.336-0.492,0.396c-0.21,0.066-0.432,0.041-0.63-0.061c0,0-1.937-1.02-2.23-1.169c0,0.276,0,1.151,0,1.151c0,0.061-0.048,0.113-0.114,0.113c-0.065,0-0.113-0.053-0.113-0.113v-1.344c0-0.041,0.018-0.078,0.054-0.102c0.036-0.018,0.078-0.018,0.114,0l2.398,1.26c0.144,0.072,0.306,0.09,0.456,0.041c0.149-0.041,0.275-0.144,0.354-0.287c0.078-0.139,0.096-0.3,0.054-0.449c-0.042-0.156-0.144-0.283-0.281-0.36c-0.055-0.036-0.072-0.108-0.042-0.162C-28.893,147.634-28.828,147.616-28.768,147.646z"/>
                    <path fill="#FFFFFF"  d="M-31.226,150.106h0.359c0.306,0,0.576,0.168,0.72,0.414c0.145-0.246,0.414-0.414,0.72-0.414h0.24c0.461,0,0.833,0.378,0.833,0.833c0,0.463-0.372,0.84-0.833,0.84h-0.24c-0.306,0-0.575-0.168-0.72-0.414c-0.144,0.246-0.414,0.414-0.72,0.414h-0.359c-0.462,0-0.834-0.377-0.834-0.84C-32.06,150.484-31.688,150.106-31.226,150.106z M-31.226,150.339c-0.336,0-0.605,0.271-0.605,0.6c0,0.336,0.27,0.606,0.605,0.606h0.359c0.336,0,0.605-0.271,0.605-0.606c0-0.329-0.27-0.6-0.605-0.6H-31.226z M-30.033,150.939c0,0.336,0.27,0.606,0.605,0.606h0.24c0.335,0,0.605-0.271,0.605-0.606c0-0.329-0.271-0.6-0.605-0.6h-0.24C-29.763,150.339-30.033,150.61-30.033,150.939z"/>
                    <path fill="#FFFFFF"  d="M-28.498,152.464c0.06-0.018,0.126,0.018,0.138,0.084c0.018,0.061-0.018,0.119-0.078,0.138c0,0-2.446,0.678-3.076,0.852c0.63,0.174,3.076,0.846,3.076,0.846c0.061,0.019,0.096,0.084,0.078,0.144c-0.012,0.061-0.078,0.096-0.138,0.078l-3.479-0.959c-0.048-0.012-0.084-0.061-0.084-0.108c0-0.054,0.036-0.103,0.084-0.114L-28.498,152.464z"/>
                    <path fill="#FFFFFF"  d="M-28.377,156.196c0,0.462-0.372,0.833-0.834,0.833h-1.991c-0.461,0-0.833-0.371-0.833-0.833v-0.72c0-0.066,0.048-0.113,0.113-0.113h3.431c0.065,0,0.114,0.047,0.114,0.113V156.196z M-28.606,156.196v-0.606h-3.202v0.606c0,0.336,0.271,0.605,0.605,0.605h1.991C-28.875,156.801-28.606,156.531-28.606,156.196z"/>
                    <path fill="#FFFFFF"  d="M-31.226,157.858h2.039c0.377,0,0.707,0.252,0.803,0.618c0.103,0.365-0.06,0.75-0.384,0.936c-0.06,0.035-0.125,0.018-0.161-0.043c-0.03-0.053-0.013-0.125,0.042-0.155c0.239-0.138,0.354-0.413,0.281-0.678c-0.065-0.264-0.312-0.45-0.581-0.45h-2.039c-0.276,0-0.516,0.187-0.582,0.45c-0.072,0.265,0.042,0.54,0.282,0.678c0.054,0.03,0.071,0.103,0.042,0.155c-0.036,0.061-0.103,0.078-0.162,0.043c-0.324-0.186-0.485-0.57-0.39-0.936C-31.934,158.11-31.604,157.858-31.226,157.858z"/>
                </g>
                <g >
                    <g >
                        <path fill="#FFFFFF"  d="M-37.662,88.765c0.007,0,0.015,0,0.025,0c0.01,0,0.015,0.002,0.015,0.005c0.007,0.007,0.02,0.018,0.038,0.032c0.019,0.016,0.037,0.032,0.055,0.051c0.018,0.018,0.035,0.036,0.05,0.055c0.015,0.019,0.026,0.03,0.033,0.037l1.49,2.275l0.13,0.09v-2.455c0-0.003,0.017-0.017,0.052-0.04s0.061-0.038,0.078-0.045c0.003,0,0.01-0.001,0.02-0.003c0.01-0.001,0.018-0.002,0.025-0.002s0.021,0.002,0.045,0.005c0.013,0.007,0.031,0.021,0.053,0.043c0.021,0.021,0.032,0.035,0.032,0.042v3.24c0,0.007-0.011,0.021-0.032,0.045c-0.022,0.023-0.04,0.038-0.053,0.045c-0.003,0-0.01,0.001-0.02,0.003c-0.01,0.001-0.018,0.002-0.025,0.002s-0.015-0.001-0.025-0.002c-0.01-0.002-0.017-0.003-0.02-0.003c-0.007-0.003-0.02-0.014-0.038-0.03c-0.019-0.017-0.037-0.034-0.055-0.052c-0.018-0.019-0.036-0.037-0.052-0.056s-0.027-0.03-0.03-0.037l-1.485-2.28l-0.135-0.085v2.45c0,0.007-0.017,0.021-0.05,0.045s-0.055,0.037-0.065,0.04c-0.01,0.003-0.021,0.006-0.032,0.008c-0.012,0.001-0.021,0.002-0.028,0.002s-0.02-0.002-0.04-0.005c-0.017-0.007-0.036-0.021-0.057-0.045c-0.022-0.023-0.033-0.038-0.033-0.045v-3.24c0-0.007,0.011-0.021,0.033-0.042c0.021-0.022,0.041-0.036,0.057-0.043c0-0.003,0.005-0.005,0.015-0.005C-37.679,88.765-37.668,88.765-37.662,88.765z"/>
                        <path fill="#FFFFFF"  d="M-34.407,88.86h1.135l0.615,0.61c0,0.003,0,0.01,0.002,0.02c0.001,0.011,0.002,0.019,0.002,0.025s-0.001,0.015-0.002,0.025c-0.002,0.01-0.002,0.017-0.002,0.02c-0.007,0.01-0.021,0.025-0.043,0.048c-0.021,0.021-0.037,0.034-0.047,0.037c-0.003,0.003-0.01,0.006-0.02,0.008c-0.01,0.001-0.018,0.002-0.025,0.002s-0.015-0.001-0.025-0.002c-0.01-0.002-0.015-0.005-0.015-0.008l-0.525-0.435h-0.965l-0.35,0.35v1.925c0,0.004,0.01,0.016,0.03,0.038c0.02,0.021,0.044,0.046,0.073,0.074s0.057,0.057,0.087,0.085c0.03,0.028,0.055,0.05,0.075,0.062c0.017,0.014,0.046,0.032,0.09,0.056c0.043,0.023,0.072,0.035,0.085,0.035c0.003,0,0.021,0,0.052,0.002s0.068,0.003,0.108,0.003c0.043,0,0.085,0.001,0.127,0.002c0.042,0.002,0.076,0.003,0.103,0.003c0.026,0,0.062-0.001,0.105-0.003c0.043-0.001,0.085-0.002,0.125-0.002c0.043,0,0.081-0.001,0.112-0.003s0.049-0.002,0.053-0.002c0.006,0,0.032-0.011,0.077-0.033c0.045-0.021,0.078-0.04,0.098-0.058c0.007-0.003,0.022-0.013,0.047-0.029s0.053-0.035,0.083-0.056c0.03-0.02,0.059-0.038,0.085-0.055c0.027-0.017,0.043-0.028,0.05-0.035c0.006-0.003,0.019-0.009,0.038-0.018c0.018-0.008,0.037-0.018,0.055-0.027c0.019-0.01,0.035-0.019,0.05-0.027c0.015-0.008,0.024-0.013,0.027-0.013s0.011-0.001,0.022-0.002c0.012-0.002,0.021-0.003,0.027-0.003c0.007,0,0.02,0.002,0.04,0.005c0.01,0.007,0.026,0.021,0.047,0.043c0.022,0.021,0.036,0.035,0.043,0.042c0,0.004,0,0.016,0.002,0.038c0.001,0.021,0.002,0.039,0.002,0.052c0,0.014-0.002,0.042-0.005,0.085c-0.003,0.007-0.016,0.021-0.038,0.043c-0.022,0.021-0.04,0.037-0.053,0.048c-0.017,0.013-0.042,0.033-0.078,0.06c-0.035,0.026-0.071,0.054-0.107,0.08s-0.071,0.052-0.103,0.075s-0.052,0.038-0.062,0.045c-0.01,0.007-0.024,0.015-0.042,0.024c-0.018,0.011-0.037,0.021-0.055,0.03c-0.019,0.01-0.035,0.019-0.05,0.025c-0.015,0.007-0.024,0.01-0.027,0.01h-1.135c-0.003,0-0.013-0.003-0.028-0.01s-0.032-0.016-0.052-0.025s-0.039-0.02-0.055-0.03c-0.017-0.01-0.03-0.018-0.04-0.024c-0.01-0.007-0.031-0.021-0.062-0.045s-0.066-0.049-0.103-0.075s-0.072-0.054-0.107-0.08s-0.061-0.047-0.078-0.06c-0.017-0.011-0.036-0.026-0.057-0.048c-0.022-0.021-0.033-0.036-0.033-0.043V89.47L-34.407,88.86z"/>
                    </g>
                    <g >
                        <path fill="#FFFFFF"  d="M-22.417,88.86h1.135l0.615,0.61c0,0.003,0,0.01,0.002,0.02c0.001,0.011,0.002,0.019,0.002,0.025s-0.001,0.015-0.002,0.025c-0.002,0.01-0.002,0.017-0.002,0.02c-0.007,0.01-0.021,0.025-0.043,0.048c-0.021,0.021-0.037,0.034-0.047,0.037c-0.003,0.003-0.01,0.006-0.02,0.008c-0.01,0.001-0.018,0.002-0.025,0.002s-0.015-0.001-0.025-0.002c-0.01-0.002-0.015-0.005-0.015-0.008l-0.525-0.435h-0.965l-0.35,0.35v1.925c0,0.004,0.01,0.016,0.03,0.038c0.02,0.021,0.044,0.046,0.073,0.074s0.057,0.057,0.087,0.085c0.03,0.028,0.055,0.05,0.075,0.062c0.017,0.014,0.046,0.032,0.09,0.056c0.043,0.023,0.072,0.035,0.085,0.035c0.003,0,0.021,0,0.052,0.002s0.068,0.003,0.108,0.003c0.043,0,0.085,0.001,0.127,0.002c0.042,0.002,0.076,0.003,0.103,0.003c0.026,0,0.062-0.001,0.105-0.003c0.043-0.001,0.085-0.002,0.125-0.002c0.043,0,0.081-0.001,0.112-0.003s0.049-0.002,0.053-0.002c0.006,0,0.032-0.011,0.077-0.033c0.045-0.021,0.078-0.04,0.098-0.058c0.007-0.003,0.022-0.013,0.047-0.029s0.053-0.035,0.083-0.056c0.03-0.02,0.059-0.038,0.085-0.055c0.027-0.017,0.043-0.028,0.05-0.035c0.006-0.003,0.019-0.009,0.038-0.018c0.018-0.008,0.037-0.018,0.055-0.027c0.019-0.01,0.035-0.019,0.05-0.027c0.015-0.008,0.024-0.013,0.027-0.013s0.011-0.001,0.022-0.002c0.012-0.002,0.021-0.003,0.027-0.003c0.007,0,0.02,0.002,0.04,0.005c0.01,0.007,0.026,0.021,0.047,0.043c0.022,0.021,0.036,0.035,0.043,0.042c0,0.004,0,0.016,0.002,0.038c0.001,0.021,0.002,0.039,0.002,0.052c0,0.014-0.002,0.042-0.005,0.085c-0.003,0.007-0.016,0.021-0.038,0.043c-0.022,0.021-0.04,0.037-0.053,0.048c-0.017,0.013-0.042,0.033-0.078,0.06c-0.035,0.026-0.071,0.054-0.107,0.08s-0.071,0.052-0.103,0.075s-0.052,0.038-0.062,0.045c-0.01,0.007-0.024,0.015-0.042,0.024c-0.018,0.011-0.037,0.021-0.055,0.03c-0.019,0.01-0.035,0.019-0.05,0.025c-0.015,0.007-0.024,0.01-0.027,0.01h-1.135c-0.003,0-0.013-0.003-0.028-0.01s-0.032-0.016-0.052-0.025s-0.039-0.02-0.055-0.03c-0.017-0.01-0.03-0.018-0.04-0.024c-0.01-0.007-0.031-0.021-0.062-0.045s-0.066-0.049-0.103-0.075s-0.072-0.054-0.107-0.08s-0.061-0.047-0.078-0.06c-0.017-0.011-0.036-0.026-0.057-0.048c-0.022-0.021-0.033-0.036-0.033-0.043V89.47L-22.417,88.86z"/>
                    </g>
                    <g >
                        <path fill="#FFFFFF"  d="M-10.965,88.765c0.007,0,0.015,0,0.025,0c0.01,0,0.015,0.002,0.015,0.005c0.007,0.007,0.02,0.018,0.038,0.032c0.019,0.016,0.037,0.032,0.055,0.051c0.018,0.018,0.035,0.036,0.05,0.055c0.015,0.019,0.026,0.03,0.033,0.037l1.49,2.275l0.13,0.09v-2.455c0-0.003,0.017-0.017,0.052-0.04S-9.016,88.777-9,88.77c0.003,0,0.01-0.001,0.02-0.003c0.01-0.001,0.018-0.002,0.025-0.002s0.021,0.002,0.045,0.005c0.013,0.007,0.031,0.021,0.053,0.043c0.021,0.021,0.032,0.035,0.032,0.042v3.24c0,0.007-0.011,0.021-0.032,0.045c-0.022,0.023-0.04,0.038-0.053,0.045c-0.003,0-0.01,0.001-0.02,0.003c-0.01,0.001-0.018,0.002-0.025,0.002s-0.015-0.001-0.025-0.002c-0.01-0.002-0.017-0.003-0.02-0.003c-0.007-0.003-0.02-0.014-0.038-0.03c-0.019-0.017-0.037-0.034-0.055-0.052c-0.018-0.019-0.036-0.037-0.052-0.056s-0.027-0.03-0.03-0.037l-1.485-2.28l-0.135-0.085v2.45c0,0.007-0.017,0.021-0.05,0.045s-0.055,0.037-0.065,0.04c-0.01,0.003-0.021,0.006-0.032,0.008c-0.012,0.001-0.021,0.002-0.028,0.002s-0.02-0.002-0.04-0.005c-0.017-0.007-0.036-0.021-0.057-0.045c-0.022-0.023-0.033-0.038-0.033-0.045v-3.24c0-0.007,0.011-0.021,0.033-0.042c0.021-0.022,0.041-0.036,0.057-0.043c0-0.003,0.005-0.005,0.015-0.005C-10.981,88.765-10.971,88.765-10.965,88.765z"/>
                        <path fill="#FFFFFF"  d="M-8.325,89.385l0.615-0.615h1.135l0.615,0.615v2.185l-0.615,0.615h-1.135l-0.615-0.615V89.385z M-7.625,91.835h0.965l0.35-0.351V89.47l-0.35-0.351h-0.965l-0.35,0.351v2.015L-7.625,91.835z"/>
                    </g>
                </g>
                <rect width="2.072" x="-22.915" y="167.264" fill="#8C8C8C"  height="12.942"/>
                <rect width="2.072" x="-15.714" y="167.264" fill="#8C8C8C"  height="12.942"/>
                <rect width="2.074" x="-8.515" y="167.264" fill="#8C8C8C"  height="12.942"/>
                <g >
                    <circle cx="-36.278"  cy="99.817" r="4.887"/>
                    <g >
                        <path fill="#E5CF73"  d="M-35.277,103.941c-0.427,0.104-0.853,0.139-1.269,0.113c-1.799-0.113-3.394-1.379-3.843-3.223c-0.448-1.84,0.382-3.692,1.921-4.623c0.359-0.217,0.758-0.384,1.188-0.488c0.351-0.086,0.702-0.125,1.047-0.121c1.889,0.02,3.597,1.311,4.064,3.23s-0.457,3.854-2.126,4.738C-34.598,103.729-34.928,103.856-35.277,103.941z"/>
                        <path fill="#8E814A"  d="M-36.436,104.028c0.416,0.025,0.842-0.01,1.269-0.114c0.349-0.085,0.679-0.211,0.983-0.372l-1.938-7.969c-0.346-0.004-0.696,0.035-1.047,0.12c-0.432,0.105-0.83,0.271-1.189,0.489L-36.436,104.028z"/>
                    </g>
                </g>
                <g >
                    <circle cx="-7.478"  cy="99.827" r="4.886"/>
                    <g >
                        <path fill="#E5CF73"  d="M-3.292,100.384c-0.059,0.435-0.18,0.846-0.354,1.224c-0.758,1.636-2.516,2.663-4.396,2.414c-1.877-0.25-3.305-1.693-3.613-3.467c-0.072-0.414-0.082-0.845-0.023-1.284c0.047-0.358,0.137-0.699,0.266-1.02c0.703-1.753,2.525-2.878,4.484-2.617c1.959,0.26,3.424,1.822,3.645,3.698C-3.243,99.674-3.245,100.029-3.292,100.384z"/>
                        <path fill="#8E814A"  d="M-3.631,101.495c0.174-0.378,0.297-0.788,0.354-1.224c0.049-0.355,0.049-0.709,0.01-1.052l-8.129-1.081c-0.129,0.32-0.219,0.661-0.268,1.02c-0.059,0.439-0.047,0.871,0.025,1.285L-3.631,101.495z"/>
                    </g>
                </g>
                <g >
                    <circle cx="-21.811"  cy="99.86" r="4.886"/>
                    <g >
                        <path fill="#E5CF73"  d="M-18.815,96.871c0.309,0.312,0.561,0.657,0.754,1.025c0.836,1.598,0.582,3.617-0.762,4.958c-1.34,1.338-3.355,1.589-4.947,0.755c-0.373-0.194-0.723-0.449-1.035-0.763c-0.256-0.256-0.471-0.536-0.646-0.832c-0.963-1.625-0.746-3.756,0.653-5.15c1.399-1.396,3.532-1.608,5.153-0.641C-19.348,96.401-19.069,96.617-18.815,96.871z"/>
                        <path fill="#8E814A"  d="M-18.141,97.818c-0.191-0.369-0.445-0.715-0.754-1.026c-0.254-0.254-0.531-0.47-0.83-0.647l-5.807,5.791c0.176,0.297,0.392,0.577,0.646,0.832c0.312,0.313,0.662,0.568,1.035,0.763L-18.141,97.818z"/>
                    </g>
                </g>
                <rect width="1.374" x="-29.765" y="95.286"  height="9.534"/>
                <rect width="1.373" x="-15.365" y="95.286"  height="9.534"/>
            </g>
        </g>
    </g>
</svg>
