%TF.GenerationSoftware,KiCad,Pcbnew,(5.1.9)-1*%
%TF.CreationDate,2021-01-19T10:58:22-06:00*%
%TF.ProjectId,RC5,5243352e-6b69-4636-9164-5f7063625858,rev?*%
%TF.SameCoordinates,Original*%
%TF.FileFunction,Legend,Bot*%
%TF.FilePolarity,Positive*%
%FSLAX46Y46*%
G04 Gerber Fmt 4.6, Leading zero omitted, Abs format (unit mm)*
G04 Created by KiCad (PCBNEW (5.1.9)-1) date 2021-01-19 10:58:22*
%MOMM*%
%LPD*%
G01*
G04 APERTURE LIST*
%ADD10C,0.150000*%
G04 APERTURE END LIST*
D10*
X108910285Y-85542380D02*
X108910285Y-84542380D01*
X108672190Y-84542380D01*
X108529333Y-84590000D01*
X108434095Y-84685238D01*
X108386476Y-84780476D01*
X108338857Y-84970952D01*
X108338857Y-85113809D01*
X108386476Y-85304285D01*
X108434095Y-85399523D01*
X108529333Y-85494761D01*
X108672190Y-85542380D01*
X108910285Y-85542380D01*
X107910285Y-85018571D02*
X107576952Y-85018571D01*
X107434095Y-85542380D02*
X107910285Y-85542380D01*
X107910285Y-84542380D01*
X107434095Y-84542380D01*
X106434095Y-85447142D02*
X106481714Y-85494761D01*
X106624571Y-85542380D01*
X106719809Y-85542380D01*
X106862666Y-85494761D01*
X106957904Y-85399523D01*
X107005523Y-85304285D01*
X107053142Y-85113809D01*
X107053142Y-84970952D01*
X107005523Y-84780476D01*
X106957904Y-84685238D01*
X106862666Y-84590000D01*
X106719809Y-84542380D01*
X106624571Y-84542380D01*
X106481714Y-84590000D01*
X106434095Y-84637619D01*
X102076285Y-97734380D02*
X102647714Y-97734380D01*
X102362000Y-97734380D02*
X102362000Y-96734380D01*
X102457238Y-96877238D01*
X102552476Y-96972476D01*
X102647714Y-97020095D01*
X104616285Y-97734380D02*
X105187714Y-97734380D01*
X104902000Y-97734380D02*
X104902000Y-96734380D01*
X104997238Y-96877238D01*
X105092476Y-96972476D01*
X105187714Y-97020095D01*
X99536285Y-97734380D02*
X100107714Y-97734380D01*
X99822000Y-97734380D02*
X99822000Y-96734380D01*
X99917238Y-96877238D01*
X100012476Y-96972476D01*
X100107714Y-97020095D01*
X102076285Y-96210380D02*
X102647714Y-96210380D01*
X102362000Y-96210380D02*
X102362000Y-95210380D01*
X102457238Y-95353238D01*
X102552476Y-95448476D01*
X102647714Y-95496095D01*
X99869619Y-95210380D02*
X99774380Y-95210380D01*
X99679142Y-95258000D01*
X99631523Y-95305619D01*
X99583904Y-95400857D01*
X99536285Y-95591333D01*
X99536285Y-95829428D01*
X99583904Y-96019904D01*
X99631523Y-96115142D01*
X99679142Y-96162761D01*
X99774380Y-96210380D01*
X99869619Y-96210380D01*
X99964857Y-96162761D01*
X100012476Y-96115142D01*
X100060095Y-96019904D01*
X100107714Y-95829428D01*
X100107714Y-95591333D01*
X100060095Y-95400857D01*
X100012476Y-95305619D01*
X99964857Y-95258000D01*
X99869619Y-95210380D01*
X104616285Y-96210380D02*
X105187714Y-96210380D01*
X104902000Y-96210380D02*
X104902000Y-95210380D01*
X104997238Y-95353238D01*
X105092476Y-95448476D01*
X105187714Y-95496095D01*
X102409619Y-93686380D02*
X102314380Y-93686380D01*
X102219142Y-93734000D01*
X102171523Y-93781619D01*
X102123904Y-93876857D01*
X102076285Y-94067333D01*
X102076285Y-94305428D01*
X102123904Y-94495904D01*
X102171523Y-94591142D01*
X102219142Y-94638761D01*
X102314380Y-94686380D01*
X102409619Y-94686380D01*
X102504857Y-94638761D01*
X102552476Y-94591142D01*
X102600095Y-94495904D01*
X102647714Y-94305428D01*
X102647714Y-94067333D01*
X102600095Y-93876857D01*
X102552476Y-93781619D01*
X102504857Y-93734000D01*
X102409619Y-93686380D01*
X99536285Y-94686380D02*
X100107714Y-94686380D01*
X99822000Y-94686380D02*
X99822000Y-93686380D01*
X99917238Y-93829238D01*
X100012476Y-93924476D01*
X100107714Y-93972095D01*
X104616285Y-94686380D02*
X105187714Y-94686380D01*
X104902000Y-94686380D02*
X104902000Y-93686380D01*
X104997238Y-93829238D01*
X105092476Y-93924476D01*
X105187714Y-93972095D01*
X102409619Y-92162380D02*
X102314380Y-92162380D01*
X102219142Y-92210000D01*
X102171523Y-92257619D01*
X102123904Y-92352857D01*
X102076285Y-92543333D01*
X102076285Y-92781428D01*
X102123904Y-92971904D01*
X102171523Y-93067142D01*
X102219142Y-93114761D01*
X102314380Y-93162380D01*
X102409619Y-93162380D01*
X102504857Y-93114761D01*
X102552476Y-93067142D01*
X102600095Y-92971904D01*
X102647714Y-92781428D01*
X102647714Y-92543333D01*
X102600095Y-92352857D01*
X102552476Y-92257619D01*
X102504857Y-92210000D01*
X102409619Y-92162380D01*
X99869619Y-92162380D02*
X99774380Y-92162380D01*
X99679142Y-92210000D01*
X99631523Y-92257619D01*
X99583904Y-92352857D01*
X99536285Y-92543333D01*
X99536285Y-92781428D01*
X99583904Y-92971904D01*
X99631523Y-93067142D01*
X99679142Y-93114761D01*
X99774380Y-93162380D01*
X99869619Y-93162380D01*
X99964857Y-93114761D01*
X100012476Y-93067142D01*
X100060095Y-92971904D01*
X100107714Y-92781428D01*
X100107714Y-92543333D01*
X100060095Y-92352857D01*
X100012476Y-92257619D01*
X99964857Y-92210000D01*
X99869619Y-92162380D01*
X104616285Y-93162380D02*
X105187714Y-93162380D01*
X104902000Y-93162380D02*
X104902000Y-92162380D01*
X104997238Y-92305238D01*
X105092476Y-92400476D01*
X105187714Y-92448095D01*
X99536285Y-91638380D02*
X100107714Y-91638380D01*
X99822000Y-91638380D02*
X99822000Y-90638380D01*
X99917238Y-90781238D01*
X100012476Y-90876476D01*
X100107714Y-90924095D01*
X102076285Y-91638380D02*
X102647714Y-91638380D01*
X102362000Y-91638380D02*
X102362000Y-90638380D01*
X102457238Y-90781238D01*
X102552476Y-90876476D01*
X102647714Y-90924095D01*
X104949619Y-90638380D02*
X104854380Y-90638380D01*
X104759142Y-90686000D01*
X104711523Y-90733619D01*
X104663904Y-90828857D01*
X104616285Y-91019333D01*
X104616285Y-91257428D01*
X104663904Y-91447904D01*
X104711523Y-91543142D01*
X104759142Y-91590761D01*
X104854380Y-91638380D01*
X104949619Y-91638380D01*
X105044857Y-91590761D01*
X105092476Y-91543142D01*
X105140095Y-91447904D01*
X105187714Y-91257428D01*
X105187714Y-91019333D01*
X105140095Y-90828857D01*
X105092476Y-90733619D01*
X105044857Y-90686000D01*
X104949619Y-90638380D01*
X102076285Y-90114380D02*
X102647714Y-90114380D01*
X102362000Y-90114380D02*
X102362000Y-89114380D01*
X102457238Y-89257238D01*
X102552476Y-89352476D01*
X102647714Y-89400095D01*
X104949619Y-89114380D02*
X104854380Y-89114380D01*
X104759142Y-89162000D01*
X104711523Y-89209619D01*
X104663904Y-89304857D01*
X104616285Y-89495333D01*
X104616285Y-89733428D01*
X104663904Y-89923904D01*
X104711523Y-90019142D01*
X104759142Y-90066761D01*
X104854380Y-90114380D01*
X104949619Y-90114380D01*
X105044857Y-90066761D01*
X105092476Y-90019142D01*
X105140095Y-89923904D01*
X105187714Y-89733428D01*
X105187714Y-89495333D01*
X105140095Y-89304857D01*
X105092476Y-89209619D01*
X105044857Y-89162000D01*
X104949619Y-89114380D01*
X99869619Y-89114380D02*
X99774380Y-89114380D01*
X99679142Y-89162000D01*
X99631523Y-89209619D01*
X99583904Y-89304857D01*
X99536285Y-89495333D01*
X99536285Y-89733428D01*
X99583904Y-89923904D01*
X99631523Y-90019142D01*
X99679142Y-90066761D01*
X99774380Y-90114380D01*
X99869619Y-90114380D01*
X99964857Y-90066761D01*
X100012476Y-90019142D01*
X100060095Y-89923904D01*
X100107714Y-89733428D01*
X100107714Y-89495333D01*
X100060095Y-89304857D01*
X100012476Y-89209619D01*
X99964857Y-89162000D01*
X99869619Y-89114380D01*
X102409619Y-87590380D02*
X102314380Y-87590380D01*
X102219142Y-87638000D01*
X102171523Y-87685619D01*
X102123904Y-87780857D01*
X102076285Y-87971333D01*
X102076285Y-88209428D01*
X102123904Y-88399904D01*
X102171523Y-88495142D01*
X102219142Y-88542761D01*
X102314380Y-88590380D01*
X102409619Y-88590380D01*
X102504857Y-88542761D01*
X102552476Y-88495142D01*
X102600095Y-88399904D01*
X102647714Y-88209428D01*
X102647714Y-87971333D01*
X102600095Y-87780857D01*
X102552476Y-87685619D01*
X102504857Y-87638000D01*
X102409619Y-87590380D01*
X104949619Y-87590380D02*
X104854380Y-87590380D01*
X104759142Y-87638000D01*
X104711523Y-87685619D01*
X104663904Y-87780857D01*
X104616285Y-87971333D01*
X104616285Y-88209428D01*
X104663904Y-88399904D01*
X104711523Y-88495142D01*
X104759142Y-88542761D01*
X104854380Y-88590380D01*
X104949619Y-88590380D01*
X105044857Y-88542761D01*
X105092476Y-88495142D01*
X105140095Y-88399904D01*
X105187714Y-88209428D01*
X105187714Y-87971333D01*
X105140095Y-87780857D01*
X105092476Y-87685619D01*
X105044857Y-87638000D01*
X104949619Y-87590380D01*
X99536285Y-88590380D02*
X100107714Y-88590380D01*
X99822000Y-88590380D02*
X99822000Y-87590380D01*
X99917238Y-87733238D01*
X100012476Y-87828476D01*
X100107714Y-87876095D01*
X107997523Y-96734380D02*
X107378476Y-96734380D01*
X107711809Y-97115333D01*
X107568952Y-97115333D01*
X107473714Y-97162952D01*
X107426095Y-97210571D01*
X107378476Y-97305809D01*
X107378476Y-97543904D01*
X107426095Y-97639142D01*
X107473714Y-97686761D01*
X107568952Y-97734380D01*
X107854666Y-97734380D01*
X107949904Y-97686761D01*
X107997523Y-97639142D01*
X106902285Y-97734380D02*
X106711809Y-97734380D01*
X106616571Y-97686761D01*
X106568952Y-97639142D01*
X106473714Y-97496285D01*
X106426095Y-97305809D01*
X106426095Y-96924857D01*
X106473714Y-96829619D01*
X106521333Y-96782000D01*
X106616571Y-96734380D01*
X106807047Y-96734380D01*
X106902285Y-96782000D01*
X106949904Y-96829619D01*
X106997523Y-96924857D01*
X106997523Y-97162952D01*
X106949904Y-97258190D01*
X106902285Y-97305809D01*
X106807047Y-97353428D01*
X106616571Y-97353428D01*
X106521333Y-97305809D01*
X106473714Y-97258190D01*
X106426095Y-97162952D01*
X107997523Y-95210380D02*
X107378476Y-95210380D01*
X107711809Y-95591333D01*
X107568952Y-95591333D01*
X107473714Y-95638952D01*
X107426095Y-95686571D01*
X107378476Y-95781809D01*
X107378476Y-96019904D01*
X107426095Y-96115142D01*
X107473714Y-96162761D01*
X107568952Y-96210380D01*
X107854666Y-96210380D01*
X107949904Y-96162761D01*
X107997523Y-96115142D01*
X106807047Y-95638952D02*
X106902285Y-95591333D01*
X106949904Y-95543714D01*
X106997523Y-95448476D01*
X106997523Y-95400857D01*
X106949904Y-95305619D01*
X106902285Y-95258000D01*
X106807047Y-95210380D01*
X106616571Y-95210380D01*
X106521333Y-95258000D01*
X106473714Y-95305619D01*
X106426095Y-95400857D01*
X106426095Y-95448476D01*
X106473714Y-95543714D01*
X106521333Y-95591333D01*
X106616571Y-95638952D01*
X106807047Y-95638952D01*
X106902285Y-95686571D01*
X106949904Y-95734190D01*
X106997523Y-95829428D01*
X106997523Y-96019904D01*
X106949904Y-96115142D01*
X106902285Y-96162761D01*
X106807047Y-96210380D01*
X106616571Y-96210380D01*
X106521333Y-96162761D01*
X106473714Y-96115142D01*
X106426095Y-96019904D01*
X106426095Y-95829428D01*
X106473714Y-95734190D01*
X106521333Y-95686571D01*
X106616571Y-95638952D01*
X107997523Y-93686380D02*
X107378476Y-93686380D01*
X107711809Y-94067333D01*
X107568952Y-94067333D01*
X107473714Y-94114952D01*
X107426095Y-94162571D01*
X107378476Y-94257809D01*
X107378476Y-94495904D01*
X107426095Y-94591142D01*
X107473714Y-94638761D01*
X107568952Y-94686380D01*
X107854666Y-94686380D01*
X107949904Y-94638761D01*
X107997523Y-94591142D01*
X107045142Y-93686380D02*
X106378476Y-93686380D01*
X106807047Y-94686380D01*
X107997523Y-92162380D02*
X107378476Y-92162380D01*
X107711809Y-92543333D01*
X107568952Y-92543333D01*
X107473714Y-92590952D01*
X107426095Y-92638571D01*
X107378476Y-92733809D01*
X107378476Y-92971904D01*
X107426095Y-93067142D01*
X107473714Y-93114761D01*
X107568952Y-93162380D01*
X107854666Y-93162380D01*
X107949904Y-93114761D01*
X107997523Y-93067142D01*
X106521333Y-92162380D02*
X106711809Y-92162380D01*
X106807047Y-92210000D01*
X106854666Y-92257619D01*
X106949904Y-92400476D01*
X106997523Y-92590952D01*
X106997523Y-92971904D01*
X106949904Y-93067142D01*
X106902285Y-93114761D01*
X106807047Y-93162380D01*
X106616571Y-93162380D01*
X106521333Y-93114761D01*
X106473714Y-93067142D01*
X106426095Y-92971904D01*
X106426095Y-92733809D01*
X106473714Y-92638571D01*
X106521333Y-92590952D01*
X106616571Y-92543333D01*
X106807047Y-92543333D01*
X106902285Y-92590952D01*
X106949904Y-92638571D01*
X106997523Y-92733809D01*
X107997523Y-90638380D02*
X107378476Y-90638380D01*
X107711809Y-91019333D01*
X107568952Y-91019333D01*
X107473714Y-91066952D01*
X107426095Y-91114571D01*
X107378476Y-91209809D01*
X107378476Y-91447904D01*
X107426095Y-91543142D01*
X107473714Y-91590761D01*
X107568952Y-91638380D01*
X107854666Y-91638380D01*
X107949904Y-91590761D01*
X107997523Y-91543142D01*
X106473714Y-90638380D02*
X106949904Y-90638380D01*
X106997523Y-91114571D01*
X106949904Y-91066952D01*
X106854666Y-91019333D01*
X106616571Y-91019333D01*
X106521333Y-91066952D01*
X106473714Y-91114571D01*
X106426095Y-91209809D01*
X106426095Y-91447904D01*
X106473714Y-91543142D01*
X106521333Y-91590761D01*
X106616571Y-91638380D01*
X106854666Y-91638380D01*
X106949904Y-91590761D01*
X106997523Y-91543142D01*
X107997523Y-89114380D02*
X107378476Y-89114380D01*
X107711809Y-89495333D01*
X107568952Y-89495333D01*
X107473714Y-89542952D01*
X107426095Y-89590571D01*
X107378476Y-89685809D01*
X107378476Y-89923904D01*
X107426095Y-90019142D01*
X107473714Y-90066761D01*
X107568952Y-90114380D01*
X107854666Y-90114380D01*
X107949904Y-90066761D01*
X107997523Y-90019142D01*
X106521333Y-89447714D02*
X106521333Y-90114380D01*
X106759428Y-89066761D02*
X106997523Y-89781047D01*
X106378476Y-89781047D01*
X107997523Y-87590380D02*
X107378476Y-87590380D01*
X107711809Y-87971333D01*
X107568952Y-87971333D01*
X107473714Y-88018952D01*
X107426095Y-88066571D01*
X107378476Y-88161809D01*
X107378476Y-88399904D01*
X107426095Y-88495142D01*
X107473714Y-88542761D01*
X107568952Y-88590380D01*
X107854666Y-88590380D01*
X107949904Y-88542761D01*
X107997523Y-88495142D01*
X107045142Y-87590380D02*
X106426095Y-87590380D01*
X106759428Y-87971333D01*
X106616571Y-87971333D01*
X106521333Y-88018952D01*
X106473714Y-88066571D01*
X106426095Y-88161809D01*
X106426095Y-88399904D01*
X106473714Y-88495142D01*
X106521333Y-88542761D01*
X106616571Y-88590380D01*
X106902285Y-88590380D01*
X106997523Y-88542761D01*
X107045142Y-88495142D01*
X107997523Y-86066380D02*
X107378476Y-86066380D01*
X107711809Y-86447333D01*
X107568952Y-86447333D01*
X107473714Y-86494952D01*
X107426095Y-86542571D01*
X107378476Y-86637809D01*
X107378476Y-86875904D01*
X107426095Y-86971142D01*
X107473714Y-87018761D01*
X107568952Y-87066380D01*
X107854666Y-87066380D01*
X107949904Y-87018761D01*
X107997523Y-86971142D01*
X106997523Y-86161619D02*
X106949904Y-86114000D01*
X106854666Y-86066380D01*
X106616571Y-86066380D01*
X106521333Y-86114000D01*
X106473714Y-86161619D01*
X106426095Y-86256857D01*
X106426095Y-86352095D01*
X106473714Y-86494952D01*
X107045142Y-87066380D01*
X106426095Y-87066380D01*
X99869619Y-86066380D02*
X99774380Y-86066380D01*
X99679142Y-86114000D01*
X99631523Y-86161619D01*
X99583904Y-86256857D01*
X99536285Y-86447333D01*
X99536285Y-86685428D01*
X99583904Y-86875904D01*
X99631523Y-86971142D01*
X99679142Y-87018761D01*
X99774380Y-87066380D01*
X99869619Y-87066380D01*
X99964857Y-87018761D01*
X100012476Y-86971142D01*
X100060095Y-86875904D01*
X100107714Y-86685428D01*
X100107714Y-86447333D01*
X100060095Y-86256857D01*
X100012476Y-86161619D01*
X99964857Y-86114000D01*
X99869619Y-86066380D01*
X102409619Y-86066380D02*
X102314380Y-86066380D01*
X102219142Y-86114000D01*
X102171523Y-86161619D01*
X102123904Y-86256857D01*
X102076285Y-86447333D01*
X102076285Y-86685428D01*
X102123904Y-86875904D01*
X102171523Y-86971142D01*
X102219142Y-87018761D01*
X102314380Y-87066380D01*
X102409619Y-87066380D01*
X102504857Y-87018761D01*
X102552476Y-86971142D01*
X102600095Y-86875904D01*
X102647714Y-86685428D01*
X102647714Y-86447333D01*
X102600095Y-86256857D01*
X102552476Y-86161619D01*
X102504857Y-86114000D01*
X102409619Y-86066380D01*
X104949619Y-86066380D02*
X104854380Y-86066380D01*
X104759142Y-86114000D01*
X104711523Y-86161619D01*
X104663904Y-86256857D01*
X104616285Y-86447333D01*
X104616285Y-86685428D01*
X104663904Y-86875904D01*
X104711523Y-86971142D01*
X104759142Y-87018761D01*
X104854380Y-87066380D01*
X104949619Y-87066380D01*
X105044857Y-87018761D01*
X105092476Y-86971142D01*
X105140095Y-86875904D01*
X105187714Y-86685428D01*
X105187714Y-86447333D01*
X105140095Y-86256857D01*
X105092476Y-86161619D01*
X105044857Y-86114000D01*
X104949619Y-86066380D01*
X105616285Y-85256666D02*
X105140095Y-85256666D01*
X105711523Y-85542380D02*
X105378190Y-84542380D01*
X105044857Y-85542380D01*
X104759142Y-84637619D02*
X104711523Y-84590000D01*
X104616285Y-84542380D01*
X104378190Y-84542380D01*
X104282952Y-84590000D01*
X104235333Y-84637619D01*
X104187714Y-84732857D01*
X104187714Y-84828095D01*
X104235333Y-84970952D01*
X104806761Y-85542380D01*
X104187714Y-85542380D01*
X103076285Y-85256666D02*
X102600095Y-85256666D01*
X103171523Y-85542380D02*
X102838190Y-84542380D01*
X102504857Y-85542380D01*
X101647714Y-85542380D02*
X102219142Y-85542380D01*
X101933428Y-85542380D02*
X101933428Y-84542380D01*
X102028666Y-84685238D01*
X102123904Y-84780476D01*
X102219142Y-84828095D01*
X100536285Y-85256666D02*
X100060095Y-85256666D01*
X100631523Y-85542380D02*
X100298190Y-84542380D01*
X99964857Y-85542380D01*
X99441047Y-84542380D02*
X99345809Y-84542380D01*
X99250571Y-84590000D01*
X99202952Y-84637619D01*
X99155333Y-84732857D01*
X99107714Y-84923333D01*
X99107714Y-85161428D01*
X99155333Y-85351904D01*
X99202952Y-85447142D01*
X99250571Y-85494761D01*
X99345809Y-85542380D01*
X99441047Y-85542380D01*
X99536285Y-85494761D01*
X99583904Y-85447142D01*
X99631523Y-85351904D01*
X99679142Y-85161428D01*
X99679142Y-84923333D01*
X99631523Y-84732857D01*
X99583904Y-84637619D01*
X99536285Y-84590000D01*
X99441047Y-84542380D01*
X109413714Y-83905285D02*
X109413714Y-83155285D01*
X109163714Y-83691000D01*
X108913714Y-83155285D01*
X108913714Y-83905285D01*
X108128000Y-83833857D02*
X108163714Y-83869571D01*
X108270857Y-83905285D01*
X108342285Y-83905285D01*
X108449428Y-83869571D01*
X108520857Y-83798142D01*
X108556571Y-83726714D01*
X108592285Y-83583857D01*
X108592285Y-83476714D01*
X108556571Y-83333857D01*
X108520857Y-83262428D01*
X108449428Y-83191000D01*
X108342285Y-83155285D01*
X108270857Y-83155285D01*
X108163714Y-83191000D01*
X108128000Y-83226714D01*
X107806571Y-83905285D02*
X107806571Y-83155285D01*
X107520857Y-83155285D01*
X107449428Y-83191000D01*
X107413714Y-83226714D01*
X107378000Y-83298142D01*
X107378000Y-83405285D01*
X107413714Y-83476714D01*
X107449428Y-83512428D01*
X107520857Y-83548142D01*
X107806571Y-83548142D01*
X107092285Y-83226714D02*
X107056571Y-83191000D01*
X106985142Y-83155285D01*
X106806571Y-83155285D01*
X106735142Y-83191000D01*
X106699428Y-83226714D01*
X106663714Y-83298142D01*
X106663714Y-83369571D01*
X106699428Y-83476714D01*
X107128000Y-83905285D01*
X106663714Y-83905285D01*
X106413714Y-83155285D02*
X105949428Y-83155285D01*
X106199428Y-83441000D01*
X106092285Y-83441000D01*
X106020857Y-83476714D01*
X105985142Y-83512428D01*
X105949428Y-83583857D01*
X105949428Y-83762428D01*
X105985142Y-83833857D01*
X106020857Y-83869571D01*
X106092285Y-83905285D01*
X106306571Y-83905285D01*
X106378000Y-83869571D01*
X106413714Y-83833857D01*
X105485142Y-83155285D02*
X105413714Y-83155285D01*
X105342285Y-83191000D01*
X105306571Y-83226714D01*
X105270857Y-83298142D01*
X105235142Y-83441000D01*
X105235142Y-83619571D01*
X105270857Y-83762428D01*
X105306571Y-83833857D01*
X105342285Y-83869571D01*
X105413714Y-83905285D01*
X105485142Y-83905285D01*
X105556571Y-83869571D01*
X105592285Y-83833857D01*
X105628000Y-83762428D01*
X105663714Y-83619571D01*
X105663714Y-83441000D01*
X105628000Y-83298142D01*
X105592285Y-83226714D01*
X105556571Y-83191000D01*
X105485142Y-83155285D01*
X104520857Y-83905285D02*
X104949428Y-83905285D01*
X104735142Y-83905285D02*
X104735142Y-83155285D01*
X104806571Y-83262428D01*
X104878000Y-83333857D01*
X104949428Y-83369571D01*
X104270857Y-83155285D02*
X103770857Y-83155285D01*
X104092285Y-83905285D01*
X102949428Y-83691000D02*
X102592285Y-83691000D01*
X103020857Y-83905285D02*
X102770857Y-83155285D01*
X102520857Y-83905285D01*
X101949428Y-83905285D02*
X101949428Y-83155285D01*
X101949428Y-83869571D02*
X102020857Y-83905285D01*
X102163714Y-83905285D01*
X102235142Y-83869571D01*
X102270857Y-83833857D01*
X102306571Y-83762428D01*
X102306571Y-83548142D01*
X102270857Y-83476714D01*
X102235142Y-83441000D01*
X102163714Y-83405285D01*
X102020857Y-83405285D01*
X101949428Y-83441000D01*
X101270857Y-83905285D02*
X101270857Y-83155285D01*
X101270857Y-83869571D02*
X101342285Y-83905285D01*
X101485142Y-83905285D01*
X101556571Y-83869571D01*
X101592285Y-83833857D01*
X101628000Y-83762428D01*
X101628000Y-83548142D01*
X101592285Y-83476714D01*
X101556571Y-83441000D01*
X101485142Y-83405285D01*
X101342285Y-83405285D01*
X101270857Y-83441000D01*
X100913714Y-83905285D02*
X100913714Y-83405285D01*
X100913714Y-83548142D02*
X100878000Y-83476714D01*
X100842285Y-83441000D01*
X100770857Y-83405285D01*
X100699428Y-83405285D01*
X100163714Y-83869571D02*
X100235142Y-83905285D01*
X100378000Y-83905285D01*
X100449428Y-83869571D01*
X100485142Y-83798142D01*
X100485142Y-83512428D01*
X100449428Y-83441000D01*
X100378000Y-83405285D01*
X100235142Y-83405285D01*
X100163714Y-83441000D01*
X100128000Y-83512428D01*
X100128000Y-83583857D01*
X100485142Y-83655285D01*
X99842285Y-83869571D02*
X99770857Y-83905285D01*
X99628000Y-83905285D01*
X99556571Y-83869571D01*
X99520857Y-83798142D01*
X99520857Y-83762428D01*
X99556571Y-83691000D01*
X99628000Y-83655285D01*
X99735142Y-83655285D01*
X99806571Y-83619571D01*
X99842285Y-83548142D01*
X99842285Y-83512428D01*
X99806571Y-83441000D01*
X99735142Y-83405285D01*
X99628000Y-83405285D01*
X99556571Y-83441000D01*
X99235142Y-83869571D02*
X99163714Y-83905285D01*
X99020857Y-83905285D01*
X98949428Y-83869571D01*
X98913714Y-83798142D01*
X98913714Y-83762428D01*
X98949428Y-83691000D01*
X99020857Y-83655285D01*
X99128000Y-83655285D01*
X99199428Y-83619571D01*
X99235142Y-83548142D01*
X99235142Y-83512428D01*
X99199428Y-83441000D01*
X99128000Y-83405285D01*
X99020857Y-83405285D01*
X98949428Y-83441000D01*
X98306571Y-83869571D02*
X98378000Y-83905285D01*
X98520857Y-83905285D01*
X98592285Y-83869571D01*
X98628000Y-83798142D01*
X98628000Y-83512428D01*
X98592285Y-83441000D01*
X98520857Y-83405285D01*
X98378000Y-83405285D01*
X98306571Y-83441000D01*
X98270857Y-83512428D01*
X98270857Y-83583857D01*
X98628000Y-83655285D01*
X97985142Y-83869571D02*
X97913714Y-83905285D01*
X97770857Y-83905285D01*
X97699428Y-83869571D01*
X97663714Y-83798142D01*
X97663714Y-83762428D01*
X97699428Y-83691000D01*
X97770857Y-83655285D01*
X97878000Y-83655285D01*
X97949428Y-83619571D01*
X97985142Y-83548142D01*
X97985142Y-83512428D01*
X97949428Y-83441000D01*
X97878000Y-83405285D01*
X97770857Y-83405285D01*
X97699428Y-83441000D01*
X97342285Y-83833857D02*
X97306571Y-83869571D01*
X97342285Y-83905285D01*
X97378000Y-83869571D01*
X97342285Y-83833857D01*
X97342285Y-83905285D01*
X97342285Y-83441000D02*
X97306571Y-83476714D01*
X97342285Y-83512428D01*
X97378000Y-83476714D01*
X97342285Y-83441000D01*
X97342285Y-83512428D01*
M02*
