%TF.GenerationSoftware,KiCad,Pcbnew,(5.1.9)-1*%
%TF.CreationDate,2021-01-19T10:58:21-06:00*%
%TF.ProjectId,RC5,5243352e-6b69-4636-9164-5f7063625858,rev?*%
%TF.SameCoordinates,Original*%
%TF.FileFunction,Copper,L1,Top*%
%TF.FilePolarity,Positive*%
%FSLAX46Y46*%
G04 Gerber Fmt 4.6, Leading zero omitted, Abs format (unit mm)*
G04 Created by KiCad (PCBNEW (5.1.9)-1) date 2021-01-19 10:58:21*
%MOMM*%
%LPD*%
G01*
G04 APERTURE LIST*
%TA.AperFunction,ComponentPad*%
%ADD10O,1.700000X1.700000*%
%TD*%
%TA.AperFunction,ComponentPad*%
%ADD11R,1.700000X1.700000*%
%TD*%
%TA.AperFunction,ComponentPad*%
%ADD12O,1.600000X1.600000*%
%TD*%
%TA.AperFunction,ComponentPad*%
%ADD13C,1.600000*%
%TD*%
%TA.AperFunction,ComponentPad*%
%ADD14C,2.600000*%
%TD*%
%TA.AperFunction,ComponentPad*%
%ADD15R,2.600000X2.600000*%
%TD*%
%TA.AperFunction,ComponentPad*%
%ADD16C,2.000000*%
%TD*%
%TA.AperFunction,ComponentPad*%
%ADD17R,2.000000X2.000000*%
%TD*%
%TA.AperFunction,ComponentPad*%
%ADD18R,1.600000X1.600000*%
%TD*%
%TA.AperFunction,ComponentPad*%
%ADD19O,2.641600X1.320800*%
%TD*%
%TA.AperFunction,ComponentPad*%
%ADD20C,3.000000*%
%TD*%
%TA.AperFunction,ComponentPad*%
%ADD21C,1.590000*%
%TD*%
%TA.AperFunction,ComponentPad*%
%ADD22C,1.700000*%
%TD*%
%TA.AperFunction,ComponentPad*%
%ADD23C,3.500000*%
%TD*%
%TA.AperFunction,ComponentPad*%
%ADD24C,1.800000*%
%TD*%
%TA.AperFunction,ComponentPad*%
%ADD25R,1.800000X1.800000*%
%TD*%
%TA.AperFunction,Conductor*%
%ADD26C,1.270000*%
%TD*%
%TA.AperFunction,Conductor*%
%ADD27C,2.032000*%
%TD*%
%TA.AperFunction,Conductor*%
%ADD28C,3.810000*%
%TD*%
%TA.AperFunction,Conductor*%
%ADD29C,3.500000*%
%TD*%
G04 APERTURE END LIST*
D10*
%TO.P,J6,3*%
%TO.N,GND*%
X132334000Y-123190000D03*
%TO.P,J6,2*%
%TO.N,Net-(J6-Pad2)*%
X134874000Y-123190000D03*
D11*
%TO.P,J6,1*%
%TO.N,Net-(A1-Pad27)*%
X137414000Y-123190000D03*
%TD*%
D10*
%TO.P,J5,3*%
%TO.N,GND*%
X132334000Y-128778000D03*
%TO.P,J5,2*%
%TO.N,Net-(J5-Pad2)*%
X134874000Y-128778000D03*
D11*
%TO.P,J5,1*%
%TO.N,Net-(A1-Pad27)*%
X137414000Y-128778000D03*
%TD*%
D10*
%TO.P,J4,3*%
%TO.N,GND*%
X132334000Y-134366000D03*
%TO.P,J4,2*%
%TO.N,Net-(J4-Pad2)*%
X134874000Y-134366000D03*
D11*
%TO.P,J4,1*%
%TO.N,Net-(A1-Pad27)*%
X137414000Y-134366000D03*
%TD*%
D12*
%TO.P,R7,2*%
%TO.N,Net-(J8-Pad5)*%
X128739900Y-67467480D03*
D13*
%TO.P,R7,1*%
%TO.N,Net-(A1-Pad9)*%
X128739900Y-77627480D03*
%TD*%
D12*
%TO.P,R6,2*%
%TO.N,Net-(J8-Pad2)*%
X133649720Y-67467480D03*
D13*
%TO.P,R6,1*%
%TO.N,Net-(A1-Pad6)*%
X133649720Y-77627480D03*
%TD*%
D12*
%TO.P,R5,2*%
%TO.N,Net-(J8-Pad6)*%
X123830080Y-67467480D03*
D13*
%TO.P,R5,1*%
%TO.N,Net-(A1-Pad12)*%
X123830080Y-77627480D03*
%TD*%
D14*
%TO.P,J8,12*%
%TO.N,Net-(D2-PadA)*%
X88586200Y-55905400D03*
%TO.P,J8,11*%
%TO.N,GND*%
X93586200Y-55905400D03*
%TO.P,J8,10*%
X98586200Y-55905400D03*
%TO.P,J8,9*%
X103586200Y-55905400D03*
%TO.P,J8,8*%
%TO.N,Net-(A1-Pad27)*%
X108586200Y-55905400D03*
%TO.P,J8,7*%
X113586200Y-55905400D03*
%TO.P,J8,6*%
%TO.N,Net-(J8-Pad6)*%
X118586200Y-55905400D03*
%TO.P,J8,5*%
%TO.N,Net-(J8-Pad5)*%
X123586200Y-55905400D03*
%TO.P,J8,4*%
%TO.N,Net-(A1-Pad8)*%
X128586200Y-55905400D03*
%TO.P,J8,3*%
%TO.N,Net-(A1-Pad7)*%
X133586200Y-55905400D03*
%TO.P,J8,2*%
%TO.N,Net-(J8-Pad2)*%
X138586200Y-55905400D03*
D15*
%TO.P,J8,1*%
%TO.N,Net-(A1-Pad5)*%
X143586200Y-55905400D03*
%TD*%
D13*
%TO.P,C7,2*%
%TO.N,Net-(A1-Pad5)*%
X137474320Y-77038200D03*
%TO.P,C7,1*%
%TO.N,GND*%
X139974320Y-77038200D03*
%TD*%
D10*
%TO.P,J2,10*%
%TO.N,GND*%
X125679200Y-124307600D03*
%TO.P,J2,9*%
%TO.N,Net-(J2-Pad9)*%
X125679200Y-121767600D03*
%TO.P,J2,8*%
%TO.N,Net-(J2-Pad8)*%
X125679200Y-119227600D03*
%TO.P,J2,7*%
%TO.N,Net-(J2-Pad7)*%
X125679200Y-116687600D03*
%TO.P,J2,6*%
%TO.N,Net-(J2-Pad6)*%
X125679200Y-114147600D03*
%TO.P,J2,5*%
%TO.N,Net-(J2-Pad5)*%
X125679200Y-111607600D03*
%TO.P,J2,4*%
%TO.N,Net-(J2-Pad4)*%
X125679200Y-109067600D03*
%TO.P,J2,3*%
%TO.N,Net-(J2-Pad3)*%
X125679200Y-106527600D03*
%TO.P,J2,2*%
%TO.N,Net-(J2-Pad2)*%
X125679200Y-103987600D03*
D11*
%TO.P,J2,1*%
%TO.N,Net-(A1-Pad27)*%
X125679200Y-101447600D03*
%TD*%
D16*
%TO.P,C2,2*%
%TO.N,GND*%
X101422200Y-77237600D03*
D17*
%TO.P,C2,1*%
%TO.N,Net-(A1-Pad27)*%
X101422200Y-72237600D03*
%TD*%
D12*
%TO.P,U2,28*%
%TO.N,Net-(J2-Pad2)*%
X117043200Y-100787200D03*
%TO.P,U2,14*%
%TO.N,Net-(U2-Pad14)*%
X109423200Y-133807200D03*
%TO.P,U2,27*%
%TO.N,Net-(J2-Pad3)*%
X117043200Y-103327200D03*
%TO.P,U2,13*%
%TO.N,Net-(A1-Pad23)*%
X109423200Y-131267200D03*
%TO.P,U2,26*%
%TO.N,Net-(J2-Pad4)*%
X117043200Y-105867200D03*
%TO.P,U2,12*%
%TO.N,Net-(A1-Pad24)*%
X109423200Y-128727200D03*
%TO.P,U2,25*%
%TO.N,Net-(J2-Pad5)*%
X117043200Y-108407200D03*
%TO.P,U2,11*%
%TO.N,Net-(U2-Pad11)*%
X109423200Y-126187200D03*
%TO.P,U2,24*%
%TO.N,Net-(J2-Pad6)*%
X117043200Y-110947200D03*
%TO.P,U2,10*%
%TO.N,GND*%
X109423200Y-123647200D03*
%TO.P,U2,23*%
%TO.N,Net-(J2-Pad7)*%
X117043200Y-113487200D03*
%TO.P,U2,9*%
%TO.N,Net-(A1-Pad27)*%
X109423200Y-121107200D03*
%TO.P,U2,22*%
%TO.N,Net-(J2-Pad8)*%
X117043200Y-116027200D03*
%TO.P,U2,8*%
%TO.N,Net-(U1-Pad1)*%
X109423200Y-118567200D03*
%TO.P,U2,21*%
%TO.N,Net-(J2-Pad9)*%
X117043200Y-118567200D03*
%TO.P,U2,7*%
%TO.N,Net-(U1-Pad2)*%
X109423200Y-116027200D03*
%TO.P,U2,20*%
%TO.N,Net-(J3-Pad1)*%
X117043200Y-121107200D03*
%TO.P,U2,6*%
%TO.N,Net-(U1-Pad3)*%
X109423200Y-113487200D03*
%TO.P,U2,19*%
%TO.N,Net-(J3-Pad2)*%
X117043200Y-123647200D03*
%TO.P,U2,5*%
%TO.N,Net-(U1-Pad4)*%
X109423200Y-110947200D03*
%TO.P,U2,18*%
%TO.N,Net-(R2-Pad2)*%
X117043200Y-126187200D03*
%TO.P,U2,4*%
%TO.N,Net-(U1-Pad5)*%
X109423200Y-108407200D03*
%TO.P,U2,17*%
%TO.N,Net-(J6-Pad2)*%
X117043200Y-128727200D03*
%TO.P,U2,3*%
%TO.N,Net-(U1-Pad6)*%
X109423200Y-105867200D03*
%TO.P,U2,16*%
%TO.N,Net-(J5-Pad2)*%
X117043200Y-131267200D03*
%TO.P,U2,2*%
%TO.N,Net-(U1-Pad7)*%
X109423200Y-103327200D03*
%TO.P,U2,15*%
%TO.N,Net-(J4-Pad2)*%
X117043200Y-133807200D03*
D18*
%TO.P,U2,1*%
%TO.N,Net-(U1-Pad8)*%
X109423200Y-100787200D03*
%TD*%
D19*
%TO.P,U1,18*%
%TO.N,Net-(RLY8-Pad5)*%
X88900000Y-108432600D03*
%TO.P,U1,17*%
%TO.N,Net-(RLY7-Pad5)*%
X88900000Y-105892600D03*
%TO.P,U1,16*%
%TO.N,Net-(RLY6-Pad5)*%
X88900000Y-103352600D03*
%TO.P,U1,15*%
%TO.N,Net-(RLY5-Pad5)*%
X88900000Y-100812600D03*
%TO.P,U1,14*%
%TO.N,Net-(RLY4-Pad5)*%
X88900000Y-98272600D03*
%TO.P,U1,13*%
%TO.N,Net-(RLY3-Pad5)*%
X88900000Y-95732600D03*
%TO.P,U1,12*%
%TO.N,Net-(RLY2-Pad5)*%
X88900000Y-93192600D03*
%TO.P,U1,11*%
%TO.N,Net-(RLY1-Pad5)*%
X88900000Y-90652600D03*
%TO.P,U1,10*%
%TO.N,Net-(C1-Pad2)*%
X88900000Y-88112600D03*
%TO.P,U1,9*%
%TO.N,GND*%
X96520000Y-88112600D03*
%TO.P,U1,5*%
%TO.N,Net-(U1-Pad5)*%
X96520000Y-98272600D03*
%TO.P,U1,6*%
%TO.N,Net-(U1-Pad6)*%
X96520000Y-95732600D03*
%TO.P,U1,4*%
%TO.N,Net-(U1-Pad4)*%
X96520000Y-100812600D03*
%TO.P,U1,3*%
%TO.N,Net-(U1-Pad3)*%
X96520000Y-103352600D03*
%TO.P,U1,8*%
%TO.N,Net-(U1-Pad8)*%
X96520000Y-90652600D03*
%TO.P,U1,7*%
%TO.N,Net-(U1-Pad7)*%
X96520000Y-93192600D03*
%TO.P,U1,2*%
%TO.N,Net-(U1-Pad2)*%
X96520000Y-105892600D03*
%TO.P,U1,1*%
%TO.N,Net-(U1-Pad1)*%
X96520000Y-108432600D03*
%TD*%
D20*
%TO.P,RLY8,2*%
%TO.N,Net-(J1-Pad14)*%
X70543400Y-130850000D03*
%TO.P,RLY8,3*%
%TO.N,Net-(RLY8-Pad3)*%
X65543400Y-136350000D03*
%TO.P,RLY8,4*%
%TO.N,Net-(C1-Pad2)*%
X75543400Y-136350000D03*
%TO.P,RLY8,5*%
%TO.N,Net-(RLY8-Pad5)*%
X80543400Y-136350000D03*
%TO.P,RLY8,1*%
%TO.N,Net-(C1-Pad2)*%
X80543400Y-130850000D03*
%TD*%
%TO.P,RLY7,2*%
%TO.N,Net-(J1-Pad13)*%
X70543400Y-119816452D03*
%TO.P,RLY7,3*%
%TO.N,Net-(RLY7-Pad3)*%
X65543400Y-125316452D03*
%TO.P,RLY7,4*%
%TO.N,Net-(C1-Pad2)*%
X75543400Y-125316452D03*
%TO.P,RLY7,5*%
%TO.N,Net-(RLY7-Pad5)*%
X80543400Y-125316452D03*
%TO.P,RLY7,1*%
%TO.N,Net-(C1-Pad2)*%
X80543400Y-119816452D03*
%TD*%
%TO.P,RLY6,2*%
%TO.N,Net-(J1-Pad12)*%
X70543400Y-108782910D03*
%TO.P,RLY6,3*%
%TO.N,Net-(RLY6-Pad3)*%
X65543400Y-114282910D03*
%TO.P,RLY6,4*%
%TO.N,Net-(C1-Pad2)*%
X75543400Y-114282910D03*
%TO.P,RLY6,5*%
%TO.N,Net-(RLY6-Pad5)*%
X80543400Y-114282910D03*
%TO.P,RLY6,1*%
%TO.N,Net-(C1-Pad2)*%
X80543400Y-108782910D03*
%TD*%
%TO.P,RLY5,2*%
%TO.N,Net-(J1-Pad11)*%
X70543400Y-97749368D03*
%TO.P,RLY5,3*%
%TO.N,Net-(RLY5-Pad3)*%
X65543400Y-103249368D03*
%TO.P,RLY5,4*%
%TO.N,Net-(C1-Pad2)*%
X75543400Y-103249368D03*
%TO.P,RLY5,5*%
%TO.N,Net-(RLY5-Pad5)*%
X80543400Y-103249368D03*
%TO.P,RLY5,1*%
%TO.N,Net-(C1-Pad2)*%
X80543400Y-97749368D03*
%TD*%
%TO.P,RLY4,2*%
%TO.N,Net-(J1-Pad4)*%
X70543400Y-86715826D03*
%TO.P,RLY4,3*%
%TO.N,Net-(RLY4-Pad3)*%
X65543400Y-92215826D03*
%TO.P,RLY4,4*%
%TO.N,Net-(C1-Pad2)*%
X75543400Y-92215826D03*
%TO.P,RLY4,5*%
%TO.N,Net-(RLY4-Pad5)*%
X80543400Y-92215826D03*
%TO.P,RLY4,1*%
%TO.N,Net-(C1-Pad2)*%
X80543400Y-86715826D03*
%TD*%
%TO.P,RLY3,2*%
%TO.N,Net-(J1-Pad3)*%
X70543400Y-75682284D03*
%TO.P,RLY3,3*%
%TO.N,Net-(RLY3-Pad3)*%
X65543400Y-81182284D03*
%TO.P,RLY3,4*%
%TO.N,Net-(C1-Pad2)*%
X75543400Y-81182284D03*
%TO.P,RLY3,5*%
%TO.N,Net-(RLY3-Pad5)*%
X80543400Y-81182284D03*
%TO.P,RLY3,1*%
%TO.N,Net-(C1-Pad2)*%
X80543400Y-75682284D03*
%TD*%
%TO.P,RLY2,2*%
%TO.N,Net-(J1-Pad2)*%
X70543400Y-64648742D03*
%TO.P,RLY2,3*%
%TO.N,Net-(RLY2-Pad3)*%
X65543400Y-70148742D03*
%TO.P,RLY2,4*%
%TO.N,Net-(C1-Pad2)*%
X75543400Y-70148742D03*
%TO.P,RLY2,5*%
%TO.N,Net-(RLY2-Pad5)*%
X80543400Y-70148742D03*
%TO.P,RLY2,1*%
%TO.N,Net-(C1-Pad2)*%
X80543400Y-64648742D03*
%TD*%
%TO.P,RLY1,2*%
%TO.N,Net-(J1-Pad1)*%
X70543400Y-53615200D03*
%TO.P,RLY1,3*%
%TO.N,Net-(RLY1-Pad3)*%
X65543400Y-59115200D03*
%TO.P,RLY1,4*%
%TO.N,Net-(C1-Pad2)*%
X75543400Y-59115200D03*
%TO.P,RLY1,5*%
%TO.N,Net-(RLY1-Pad5)*%
X80543400Y-59115200D03*
%TO.P,RLY1,1*%
%TO.N,Net-(C1-Pad2)*%
X80543400Y-53615200D03*
%TD*%
D21*
%TO.P,RG1,3*%
%TO.N,Net-(A1-Pad27)*%
X113394600Y-76606400D03*
%TO.P,RG1,2*%
%TO.N,GND*%
X113394600Y-74066400D03*
%TO.P,RG1,1*%
%TO.N,Net-(C1-Pad2)*%
X113394600Y-71526400D03*
%TD*%
D12*
%TO.P,R3,2*%
%TO.N,Net-(A1-Pad23)*%
X126949200Y-93903800D03*
D13*
%TO.P,R3,1*%
%TO.N,Net-(A1-Pad27)*%
X126949200Y-83743800D03*
%TD*%
D12*
%TO.P,R4,2*%
%TO.N,Net-(A1-Pad24)*%
X130911600Y-93903800D03*
D13*
%TO.P,R4,1*%
%TO.N,Net-(A1-Pad27)*%
X130911600Y-83743800D03*
%TD*%
D12*
%TO.P,R2,2*%
%TO.N,Net-(R2-Pad2)*%
X97536000Y-127098000D03*
D13*
%TO.P,R2,1*%
%TO.N,Net-(A1-Pad27)*%
X97536000Y-116938000D03*
%TD*%
D12*
%TO.P,R1,2*%
%TO.N,Net-(D1-Pad2)*%
X92456000Y-127098000D03*
D13*
%TO.P,R1,1*%
%TO.N,Net-(A1-Pad27)*%
X92456000Y-116938000D03*
%TD*%
D22*
%TO.P,L1,12*%
%TO.N,Net-(L1-Pad12)*%
X145796000Y-101092000D03*
%TO.P,L1,11*%
%TO.N,Net-(L1-Pad11)*%
X143256000Y-101092000D03*
%TO.P,L1,10*%
%TO.N,GND*%
X140716000Y-101092000D03*
%TO.P,L1,9*%
%TO.N,Net-(A1-Pad27)*%
X138176000Y-101092000D03*
%TO.P,L1,8*%
%TO.N,Net-(A1-Pad24)*%
X135636000Y-101092000D03*
%TO.P,L1,7*%
%TO.N,Net-(A1-Pad23)*%
X133096000Y-101092000D03*
%TO.P,L1,6*%
%TO.N,Net-(L1-Pad6)*%
X145796000Y-111252000D03*
%TO.P,L1,5*%
%TO.N,Net-(L1-Pad5)*%
X143256000Y-111252000D03*
%TO.P,L1,4*%
%TO.N,GND*%
X140716000Y-111252000D03*
%TO.P,L1,3*%
%TO.N,Net-(A1-Pad17)*%
X138176000Y-111252000D03*
%TO.P,L1,2*%
%TO.N,Net-(J7-Pad1)*%
X135636000Y-111252000D03*
%TO.P,L1,1*%
%TO.N,Net-(J7-Pad2)*%
X133096000Y-111252000D03*
%TD*%
D10*
%TO.P,J7,4*%
%TO.N,GND*%
X143865600Y-123418600D03*
%TO.P,J7,3*%
%TO.N,Net-(A1-Pad17)*%
X143865600Y-120878600D03*
%TO.P,J7,2*%
%TO.N,Net-(J7-Pad2)*%
X143865600Y-118338600D03*
D11*
%TO.P,J7,1*%
%TO.N,Net-(J7-Pad1)*%
X143865600Y-115798600D03*
%TD*%
D10*
%TO.P,J3,2*%
%TO.N,Net-(J3-Pad2)*%
X121666000Y-127762000D03*
D11*
%TO.P,J3,1*%
%TO.N,Net-(J3-Pad1)*%
X121666000Y-125222000D03*
%TD*%
D14*
%TO.P,J1,14*%
%TO.N,Net-(J1-Pad14)*%
X55829200Y-127464250D03*
%TO.P,J1,13*%
%TO.N,Net-(J1-Pad13)*%
X55829200Y-122464250D03*
%TO.P,J1,12*%
%TO.N,Net-(J1-Pad12)*%
X55829200Y-117464250D03*
%TO.P,J1,11*%
%TO.N,Net-(J1-Pad11)*%
X55829200Y-112464250D03*
%TO.P,J1,10*%
%TO.N,GND*%
X55829200Y-107464250D03*
%TO.P,J1,9*%
X55829200Y-102464250D03*
%TO.P,J1,8*%
X55829200Y-97464250D03*
%TO.P,J1,7*%
%TO.N,Net-(C1-Pad2)*%
X55829200Y-92464250D03*
%TO.P,J1,6*%
X55829200Y-87464250D03*
%TO.P,J1,5*%
X55829200Y-82464250D03*
%TO.P,J1,4*%
%TO.N,Net-(J1-Pad4)*%
X55829200Y-77464250D03*
%TO.P,J1,3*%
%TO.N,Net-(J1-Pad3)*%
X55829200Y-72464250D03*
%TO.P,J1,2*%
%TO.N,Net-(J1-Pad2)*%
X55829200Y-67464250D03*
D15*
%TO.P,J1,1*%
%TO.N,Net-(J1-Pad1)*%
X55829200Y-62464250D03*
%TD*%
D23*
%TO.P,D2,C*%
%TO.N,Net-(C1-Pad2)*%
X105257600Y-66268600D03*
%TO.P,D2,A*%
%TO.N,Net-(D2-PadA)*%
X90017600Y-66268600D03*
%TD*%
D24*
%TO.P,D1,2*%
%TO.N,Net-(D1-Pad2)*%
X93980000Y-132334000D03*
D25*
%TO.P,D1,1*%
%TO.N,GND*%
X96520000Y-132334000D03*
%TD*%
D13*
%TO.P,C8,2*%
%TO.N,Net-(A1-Pad27)*%
X138114400Y-92557600D03*
%TO.P,C8,1*%
%TO.N,GND*%
X140614400Y-92557600D03*
%TD*%
D16*
%TO.P,C6,2*%
%TO.N,GND*%
X90424000Y-77161400D03*
D17*
%TO.P,C6,1*%
%TO.N,Net-(C1-Pad2)*%
X90424000Y-72161400D03*
%TD*%
D13*
%TO.P,C5,2*%
%TO.N,GND*%
X115809400Y-66954400D03*
%TO.P,C5,1*%
%TO.N,Net-(C1-Pad2)*%
X113309400Y-66954400D03*
%TD*%
%TO.P,C4,2*%
%TO.N,Net-(A1-Pad27)*%
X105156000Y-121198000D03*
%TO.P,C4,1*%
%TO.N,GND*%
X105156000Y-123698000D03*
%TD*%
%TO.P,C3,2*%
%TO.N,GND*%
X110007400Y-74106400D03*
%TO.P,C3,1*%
%TO.N,Net-(A1-Pad27)*%
X110007400Y-76606400D03*
%TD*%
%TO.P,C1,1*%
%TO.N,GND*%
X93827600Y-83693000D03*
%TO.P,C1,2*%
%TO.N,Net-(C1-Pad2)*%
X91327600Y-83693000D03*
%TD*%
D12*
%TO.P,A1,16*%
%TO.N,Net-(A1-Pad16)*%
X110109000Y-96520000D03*
%TO.P,A1,15*%
%TO.N,Net-(A1-Pad15)*%
X110109000Y-81280000D03*
%TO.P,A1,30*%
%TO.N,Net-(A1-Pad30)*%
X145669000Y-96520000D03*
%TO.P,A1,14*%
%TO.N,Net-(A1-Pad14)*%
X112649000Y-81280000D03*
%TO.P,A1,29*%
%TO.N,GND*%
X143129000Y-96520000D03*
%TO.P,A1,13*%
%TO.N,Net-(A1-Pad13)*%
X115189000Y-81280000D03*
%TO.P,A1,28*%
%TO.N,Net-(A1-Pad28)*%
X140589000Y-96520000D03*
%TO.P,A1,12*%
%TO.N,Net-(A1-Pad12)*%
X117729000Y-81280000D03*
%TO.P,A1,27*%
%TO.N,Net-(A1-Pad27)*%
X138049000Y-96520000D03*
%TO.P,A1,11*%
%TO.N,Net-(A1-Pad11)*%
X120269000Y-81280000D03*
%TO.P,A1,26*%
%TO.N,Net-(A1-Pad26)*%
X135509000Y-96520000D03*
%TO.P,A1,10*%
%TO.N,Net-(A1-Pad10)*%
X122809000Y-81280000D03*
%TO.P,A1,25*%
%TO.N,Net-(A1-Pad25)*%
X132969000Y-96520000D03*
%TO.P,A1,9*%
%TO.N,Net-(A1-Pad9)*%
X125349000Y-81280000D03*
%TO.P,A1,24*%
%TO.N,Net-(A1-Pad24)*%
X130429000Y-96520000D03*
%TO.P,A1,8*%
%TO.N,Net-(A1-Pad8)*%
X127889000Y-81280000D03*
%TO.P,A1,23*%
%TO.N,Net-(A1-Pad23)*%
X127889000Y-96520000D03*
%TO.P,A1,7*%
%TO.N,Net-(A1-Pad7)*%
X130429000Y-81280000D03*
%TO.P,A1,22*%
%TO.N,Net-(A1-Pad22)*%
X125349000Y-96520000D03*
%TO.P,A1,6*%
%TO.N,Net-(A1-Pad6)*%
X132969000Y-81280000D03*
%TO.P,A1,21*%
%TO.N,Net-(A1-Pad21)*%
X122809000Y-96520000D03*
%TO.P,A1,5*%
%TO.N,Net-(A1-Pad5)*%
X135509000Y-81280000D03*
%TO.P,A1,20*%
%TO.N,Net-(A1-Pad20)*%
X120269000Y-96520000D03*
%TO.P,A1,4*%
%TO.N,GND*%
X138049000Y-81280000D03*
%TO.P,A1,19*%
%TO.N,Net-(A1-Pad19)*%
X117729000Y-96520000D03*
%TO.P,A1,3*%
%TO.N,Net-(A1-Pad3)*%
X140589000Y-81280000D03*
%TO.P,A1,18*%
%TO.N,Net-(A1-Pad18)*%
X115189000Y-96520000D03*
%TO.P,A1,2*%
%TO.N,Net-(A1-Pad2)*%
X143129000Y-81280000D03*
%TO.P,A1,17*%
%TO.N,Net-(A1-Pad17)*%
X112649000Y-96520000D03*
D18*
%TO.P,A1,1*%
%TO.N,Net-(A1-Pad1)*%
X145669000Y-81280000D03*
%TD*%
D26*
%TO.N,Net-(A1-Pad12)*%
X121501718Y-77627480D02*
X117762838Y-81366360D01*
X123830080Y-77627480D02*
X121501718Y-77627480D01*
X117762838Y-81366360D02*
X117586760Y-81366360D01*
X117586760Y-81366360D02*
X117419120Y-81198720D01*
X117419120Y-81198720D02*
X117500400Y-81198720D01*
X117500400Y-81198720D02*
X117668040Y-81366360D01*
%TO.N,Net-(A1-Pad27)*%
X109281600Y-121121800D02*
X109321600Y-121081800D01*
D27*
X113394600Y-76606400D02*
X110261400Y-76606400D01*
X110261400Y-76606400D02*
X110058200Y-76809600D01*
X110007400Y-76606400D02*
X105740200Y-76606400D01*
X105740200Y-76606400D02*
X101473000Y-72339200D01*
X105740200Y-79894882D02*
X109639918Y-83794600D01*
X105740200Y-76606400D02*
X105740200Y-79894882D01*
X109639918Y-83794600D02*
X127076200Y-83794600D01*
X126949200Y-83743800D02*
X130657600Y-83743800D01*
X130657600Y-83743800D02*
X130860800Y-83947000D01*
X130911600Y-83743800D02*
X130911600Y-85394800D01*
X130911600Y-85394800D02*
X137922000Y-92405200D01*
X138114400Y-92557600D02*
X138114400Y-96327600D01*
X138114400Y-96327600D02*
X138099800Y-96342200D01*
X125679200Y-101447600D02*
X123002799Y-98771199D01*
X123002799Y-98771199D02*
X116075519Y-98771199D01*
X116075519Y-98771199D02*
X114887389Y-99959329D01*
X114887389Y-116086693D02*
X109739882Y-121234200D01*
X109739882Y-121234200D02*
X109296200Y-121234200D01*
X109141319Y-98536001D02*
X111566201Y-98536001D01*
X111566201Y-98536001D02*
X114887389Y-101857189D01*
X108092999Y-85341519D02*
X108092999Y-97487681D01*
X109639918Y-83794600D02*
X108092999Y-85341519D01*
X114887389Y-101857189D02*
X114887389Y-116086693D01*
X108092999Y-97487681D02*
X109141319Y-98536001D01*
X114887389Y-99959329D02*
X114887389Y-101857189D01*
X108586200Y-55905400D02*
X113588800Y-55905400D01*
X113588800Y-55905400D02*
X113614200Y-55880000D01*
X138049000Y-100965000D02*
X138176000Y-101092000D01*
X138049000Y-96520000D02*
X138049000Y-100965000D01*
D26*
X105246800Y-121107200D02*
X105156000Y-121198000D01*
X101796000Y-121198000D02*
X97536000Y-116938000D01*
X105156000Y-121198000D02*
X101796000Y-121198000D01*
X97536000Y-116938000D02*
X92456000Y-116938000D01*
X106222800Y-121107200D02*
X105246800Y-121107200D01*
X109423200Y-121107200D02*
X106222800Y-121107200D01*
X127364201Y-113140201D02*
X137414000Y-123190000D01*
X127364201Y-103132601D02*
X127364201Y-113140201D01*
X125679200Y-101447600D02*
X127364201Y-103132601D01*
X137414000Y-123190000D02*
X137414000Y-128778000D01*
X137414000Y-128778000D02*
X137414000Y-134366000D01*
%TO.N,Net-(A1-Pad9)*%
X128739900Y-77627480D02*
X125323600Y-81043780D01*
X125323600Y-81043780D02*
X125323600Y-81447640D01*
%TO.N,Net-(A1-Pad24)*%
X130911600Y-93903800D02*
X130911600Y-95910400D01*
X130911600Y-95910400D02*
X130505200Y-96316800D01*
X132699001Y-98155001D02*
X135636000Y-101092000D01*
X132064001Y-98155001D02*
X132699001Y-98155001D01*
X130429000Y-96520000D02*
X132064001Y-98155001D01*
X131410999Y-112060801D02*
X140970000Y-121619802D01*
X131410999Y-105317001D02*
X131410999Y-112060801D01*
X135636000Y-101092000D02*
X131410999Y-105317001D01*
X140970000Y-121619802D02*
X140970000Y-137160000D01*
X140970000Y-137160000D02*
X138990010Y-139139990D01*
X107788199Y-130362201D02*
X109423200Y-128727200D01*
X107788199Y-134592001D02*
X107788199Y-130362201D01*
X112187221Y-138991023D02*
X107788199Y-134592001D01*
X138841043Y-138991023D02*
X112187221Y-138991023D01*
X138990010Y-139139990D02*
X138841043Y-138991023D01*
%TO.N,Net-(A1-Pad8)*%
X128586200Y-55905400D02*
X128586200Y-56137840D01*
X130374901Y-78794099D02*
X130374901Y-57619141D01*
X127889000Y-81280000D02*
X130374901Y-78794099D01*
X130374901Y-57619141D02*
X128656080Y-55900320D01*
%TO.N,Net-(A1-Pad23)*%
X126949200Y-93903800D02*
X126949200Y-95529400D01*
X126949200Y-95529400D02*
X127863600Y-96443800D01*
X132461000Y-101092000D02*
X127889000Y-96520000D01*
X133096000Y-101092000D02*
X132461000Y-101092000D01*
X129940988Y-104247012D02*
X129940988Y-112669699D01*
X139192000Y-121920710D02*
X139192000Y-135791002D01*
X129940988Y-112669699D02*
X139192000Y-121920710D01*
X139192000Y-135791002D02*
X137569002Y-137414000D01*
X115677012Y-137521012D02*
X109423200Y-131267200D01*
X133096000Y-101092000D02*
X129940988Y-104247012D01*
X137569002Y-137414000D02*
X133858711Y-137414000D01*
X133858711Y-137414000D02*
X133751699Y-137521012D01*
X133751699Y-137521012D02*
X115677012Y-137521012D01*
%TO.N,Net-(A1-Pad7)*%
X131844912Y-57646688D02*
X131844912Y-79925048D01*
X133586200Y-55905400D02*
X131844912Y-57646688D01*
X131844912Y-79925048D02*
X130403600Y-81366360D01*
%TO.N,Net-(A1-Pad6)*%
X133649720Y-77627480D02*
X133649720Y-80782160D01*
X133649720Y-80782160D02*
X133065520Y-81366360D01*
%TO.N,Net-(A1-Pad5)*%
X135523600Y-81294600D02*
X135585200Y-81356200D01*
X135509000Y-81280000D02*
X135509000Y-79090520D01*
X135509000Y-79090520D02*
X137561320Y-77038200D01*
X143586200Y-71006518D02*
X137561320Y-77031398D01*
X143586200Y-55905400D02*
X143586200Y-71006518D01*
X137561320Y-77031398D02*
X137561320Y-77124560D01*
%TO.N,Net-(A1-Pad17)*%
X145550601Y-114280599D02*
X145550601Y-119193599D01*
X144207003Y-112937001D02*
X145550601Y-114280599D01*
X145550601Y-119193599D02*
X143865600Y-120878600D01*
X139861001Y-112937001D02*
X144207003Y-112937001D01*
X138176000Y-111252000D02*
X139861001Y-112937001D01*
D28*
%TO.N,Net-(C1-Pad2)*%
X105257600Y-66268600D02*
X96215200Y-66268600D01*
X96215200Y-66268600D02*
X90424000Y-72059800D01*
D27*
X88207999Y-78225081D02*
X88207999Y-74529801D01*
X88900000Y-78917082D02*
X88207999Y-78225081D01*
X88207999Y-74529801D02*
X90500200Y-72237600D01*
D28*
X105257600Y-66268600D02*
X112496600Y-66268600D01*
X112496600Y-66268600D02*
X112496600Y-70637400D01*
X112496600Y-70637400D02*
X113025599Y-71166399D01*
X113025599Y-71166399D02*
X113690400Y-71166399D01*
X80543400Y-53615200D02*
X75463400Y-58695200D01*
X75463400Y-58695200D02*
X75463400Y-59131200D01*
X75543400Y-116404230D02*
X78874770Y-119735600D01*
X75543400Y-114282910D02*
X75543400Y-116404230D01*
X78874770Y-119735600D02*
X80365600Y-119735600D01*
X80365600Y-119735600D02*
X80365600Y-120243600D01*
X80365600Y-120243600D02*
X75565000Y-125044200D01*
X75565000Y-125044200D02*
X75565000Y-126161800D01*
X75565000Y-126161800D02*
X80365600Y-130962400D01*
X80365600Y-130962400D02*
X75666600Y-135661400D01*
X75666600Y-135661400D02*
X75666600Y-136372600D01*
X55829200Y-92464250D02*
X55829200Y-87452200D01*
X55829200Y-87452200D02*
X55854600Y-87426800D01*
X55829200Y-87464250D02*
X55829200Y-82448400D01*
X55829200Y-82448400D02*
X55854600Y-82423000D01*
X75543400Y-92215826D02*
X70658166Y-92215826D01*
X70658166Y-92215826D02*
X67053165Y-95820827D01*
X67053165Y-95820827D02*
X59143227Y-95820827D01*
X59143227Y-95820827D02*
X55651400Y-92329000D01*
D26*
X89255600Y-83693000D02*
X88900000Y-84048600D01*
X91327600Y-83693000D02*
X89255600Y-83693000D01*
D27*
X88900000Y-84048600D02*
X88900000Y-78917082D01*
X88900000Y-88112600D02*
X88900000Y-84048600D01*
D28*
X75543400Y-59115200D02*
X75543400Y-59795400D01*
X80594200Y-53848000D02*
X86083789Y-59337589D01*
X90112389Y-72161400D02*
X90424000Y-72161400D01*
X86083789Y-59337589D02*
X86083789Y-68132800D01*
X86083789Y-68132800D02*
X90112389Y-72161400D01*
X75543400Y-59795400D02*
X80365600Y-64617600D01*
X80543400Y-64648742D02*
X75158600Y-70033542D01*
X75158600Y-70033542D02*
X75158600Y-70561200D01*
X75158600Y-70561200D02*
X80492600Y-75895200D01*
X80492600Y-75895200D02*
X75412600Y-80975200D01*
X75412600Y-80975200D02*
X75412600Y-81102200D01*
X75412600Y-81386886D02*
X80619600Y-86593886D01*
X75412600Y-81102200D02*
X75412600Y-81386886D01*
X80619600Y-86593886D02*
X80619600Y-86817200D01*
X80619600Y-86817200D02*
X75158600Y-92278200D01*
X75158600Y-92278200D02*
X75158600Y-92506800D01*
X75158600Y-92506800D02*
X75260200Y-92506800D01*
X75260200Y-92506800D02*
X80365600Y-97612200D01*
X80365600Y-97612200D02*
X75412600Y-102565200D01*
X75412600Y-102565200D02*
X75412600Y-103047800D01*
X75412600Y-103047800D02*
X75412600Y-104038400D01*
X75412600Y-104038400D02*
X80238600Y-108864400D01*
X80238600Y-108864400D02*
X80238600Y-109143800D01*
X80238600Y-109143800D02*
X75285600Y-114096800D01*
X75285600Y-114096800D02*
X75641200Y-114452400D01*
X75641200Y-114452400D02*
X75768200Y-114452400D01*
D26*
%TO.N,Net-(D1-Pad2)*%
X92456000Y-130810000D02*
X93980000Y-132334000D01*
X92456000Y-127098000D02*
X92456000Y-130810000D01*
D28*
%TO.N,Net-(D2-PadA)*%
X90093800Y-57413000D02*
X90093800Y-66471800D01*
X88586200Y-55905400D02*
X90093800Y-57413000D01*
%TO.N,Net-(J1-Pad14)*%
X70543400Y-130850000D02*
X59120400Y-130850000D01*
X59120400Y-130850000D02*
X55499000Y-127228600D01*
%TO.N,Net-(J1-Pad13)*%
X69043401Y-121316451D02*
X56991549Y-121316451D01*
X70543400Y-119816452D02*
X69043401Y-121316451D01*
X56991549Y-121316451D02*
X55676800Y-122631200D01*
%TO.N,Net-(J1-Pad12)*%
X65181550Y-108782910D02*
X57490201Y-116474259D01*
X70543400Y-108782910D02*
X65181550Y-108782910D01*
X57490201Y-116474259D02*
X56728341Y-116474259D01*
X56728341Y-116474259D02*
X55854600Y-117348000D01*
D29*
%TO.N,Net-(J1-Pad11)*%
X64843433Y-99799367D02*
X64966963Y-99675837D01*
X62093399Y-101593367D02*
X63887399Y-99799367D01*
X62093399Y-102549401D02*
X62093399Y-101593367D01*
X59079201Y-105563599D02*
X62093399Y-102549401D01*
X59079201Y-109214249D02*
X59079201Y-105563599D01*
X63887399Y-99799367D02*
X64843433Y-99799367D01*
X55829200Y-112464250D02*
X59079201Y-109214249D01*
X64966963Y-99675837D02*
X68649962Y-99675837D01*
X68649962Y-99675837D02*
X70485000Y-97840799D01*
X70485000Y-97840799D02*
X70484999Y-97840799D01*
D28*
%TO.N,Net-(J1-Pad4)*%
X59864609Y-80761999D02*
X56725010Y-77622400D01*
X59864609Y-80838895D02*
X59864609Y-80761999D01*
X65741540Y-86715826D02*
X59864609Y-80838895D01*
X70543400Y-86715826D02*
X65741540Y-86715826D01*
X56725010Y-77622400D02*
X55651400Y-77622400D01*
%TO.N,Net-(J1-Pad3)*%
X60455905Y-75682284D02*
X57290621Y-72517000D01*
X70543400Y-75682284D02*
X60455905Y-75682284D01*
X57290621Y-72517000D02*
X55753000Y-72517000D01*
%TO.N,Net-(J1-Pad2)*%
X70543400Y-64648742D02*
X59360868Y-64648742D01*
X59360868Y-64648742D02*
X56445610Y-67564000D01*
X56445610Y-67564000D02*
X55956200Y-67564000D01*
%TO.N,Net-(J1-Pad1)*%
X70543400Y-53615200D02*
X64723400Y-53615200D01*
X64723400Y-53615200D02*
X55651400Y-62687200D01*
D26*
%TO.N,Net-(J2-Pad9)*%
X125679200Y-121767600D02*
X120290508Y-121767600D01*
X120290508Y-121767600D02*
X117090108Y-118567200D01*
X117090108Y-118567200D02*
X116865400Y-118567200D01*
%TO.N,Net-(J2-Pad8)*%
X120123402Y-119227600D02*
X117050002Y-116154200D01*
X125679200Y-119227600D02*
X120123402Y-119227600D01*
X117050002Y-116154200D02*
X116865400Y-116154200D01*
%TO.N,Net-(J2-Pad7)*%
X120123402Y-116687600D02*
X116973802Y-113538000D01*
X125679200Y-116687600D02*
X120123402Y-116687600D01*
X116973802Y-113538000D02*
X116941600Y-113538000D01*
%TO.N,Net-(J2-Pad6)*%
X120123402Y-114147600D02*
X116745202Y-110769400D01*
X125679200Y-114147600D02*
X120123402Y-114147600D01*
X116745202Y-110769400D02*
X116738400Y-110769400D01*
%TO.N,Net-(J2-Pad5)*%
X120123402Y-111607600D02*
X116872202Y-108356400D01*
X125679200Y-111607600D02*
X120123402Y-111607600D01*
X116872202Y-108356400D02*
X116738400Y-108356400D01*
%TO.N,Net-(J2-Pad4)*%
X125679200Y-109067600D02*
X120123402Y-109067600D01*
X120123402Y-109067600D02*
X116865400Y-105809598D01*
X116865400Y-105809598D02*
X116865400Y-105791000D01*
%TO.N,Net-(J3-Pad2)*%
X121158000Y-127762000D02*
X121666000Y-127762000D01*
X117043200Y-123647200D02*
X121158000Y-127762000D01*
%TO.N,Net-(J3-Pad1)*%
X117551200Y-121107200D02*
X121666000Y-125222000D01*
X117043200Y-121107200D02*
X117551200Y-121107200D01*
%TO.N,Net-(RLY1-Pad5)*%
X88664771Y-90652600D02*
X89001600Y-90652600D01*
X80543400Y-59115200D02*
X83283410Y-61855210D01*
X83283410Y-61855210D02*
X83283410Y-72224141D01*
X86356988Y-88344817D02*
X88664771Y-90652600D01*
X83283410Y-72224141D02*
X86356988Y-75297719D01*
X86356988Y-75297719D02*
X86356988Y-88344817D01*
%TO.N,Net-(RLY2-Pad5)*%
X80543400Y-71563040D02*
X84886977Y-75906617D01*
X84886977Y-75906617D02*
X84886977Y-89414806D01*
X84886977Y-89414806D02*
X88537771Y-93065600D01*
X88537771Y-93065600D02*
X89001600Y-93065600D01*
X80543400Y-70148742D02*
X80543400Y-71563040D01*
%TO.N,Net-(RLY3-Pad5)*%
X83359611Y-84121611D02*
X80441800Y-81203800D01*
X83359611Y-92783011D02*
X83359611Y-84121611D01*
X88900000Y-95732600D02*
X86309200Y-95732600D01*
X86309200Y-95732600D02*
X83359611Y-92783011D01*
%TO.N,Net-(RLY4-Pad5)*%
X88900000Y-98272600D02*
X86512400Y-98272600D01*
X86512400Y-98272600D02*
X80416400Y-92176600D01*
%TO.N,Net-(RLY5-Pad5)*%
X88900000Y-100812600D02*
X83134200Y-100812600D01*
X83134200Y-100812600D02*
X80746600Y-103200200D01*
%TO.N,Net-(RLY6-Pad5)*%
X83334210Y-111458390D02*
X80492600Y-114300000D01*
X88900000Y-103352600D02*
X86309200Y-103352600D01*
X86309200Y-103352600D02*
X83334210Y-106327590D01*
X83334210Y-106327590D02*
X83334210Y-111458390D01*
%TO.N,Net-(RLY7-Pad5)*%
X86744190Y-107813181D02*
X86744190Y-119351410D01*
X88664771Y-105892600D02*
X86744190Y-107813181D01*
X88900000Y-105892600D02*
X88664771Y-105892600D01*
X86744190Y-119351410D02*
X80568800Y-125526800D01*
%TO.N,Net-(RLY8-Pad5)*%
X88900000Y-108432600D02*
X88900000Y-128168400D01*
X88900000Y-128168400D02*
X80568800Y-136499600D01*
X80543400Y-136474200D02*
X80568800Y-136499600D01*
X80543400Y-136350000D02*
X80543400Y-136474200D01*
%TO.N,Net-(J2-Pad3)*%
X120123402Y-106527600D02*
X117017800Y-103421998D01*
X125679200Y-106527600D02*
X120123402Y-106527600D01*
X117017800Y-103421998D02*
X117017800Y-103327200D01*
%TO.N,Net-(J2-Pad2)*%
X117043200Y-100787200D02*
X120269000Y-104013000D01*
X120269000Y-104013000D02*
X125730000Y-104013000D01*
%TO.N,Net-(U1-Pad5)*%
X107655032Y-108407200D02*
X109347000Y-108407200D01*
X97520432Y-98272600D02*
X107655032Y-108407200D01*
X96520000Y-98272600D02*
X97520432Y-98272600D01*
%TO.N,Net-(U1-Pad6)*%
X97180400Y-95732600D02*
X107340400Y-105892600D01*
X107340400Y-105892600D02*
X109423200Y-105892600D01*
X96520000Y-95732600D02*
X97180400Y-95732600D01*
%TO.N,Net-(U1-Pad4)*%
X96729829Y-100787200D02*
X96139000Y-100787200D01*
X97981524Y-100812600D02*
X108192324Y-111023400D01*
X96520000Y-100812600D02*
X97981524Y-100812600D01*
X108192324Y-111023400D02*
X109601000Y-111023400D01*
%TO.N,Net-(U1-Pad3)*%
X96520000Y-103352600D02*
X98442616Y-103352600D01*
X108475616Y-113385600D02*
X109423200Y-113385600D01*
X98442616Y-103352600D02*
X108475616Y-113385600D01*
%TO.N,Net-(U1-Pad8)*%
X96755229Y-90652600D02*
X106864429Y-100761800D01*
X96520000Y-90652600D02*
X96755229Y-90652600D01*
X106864429Y-100761800D02*
X109423200Y-100761800D01*
%TO.N,Net-(U1-Pad7)*%
X96755229Y-93192600D02*
X106839029Y-103276400D01*
X96520000Y-93192600D02*
X96755229Y-93192600D01*
X106839029Y-103276400D02*
X109524800Y-103276400D01*
%TO.N,Net-(U1-Pad2)*%
X109089108Y-116078000D02*
X109347000Y-116078000D01*
X98903708Y-105892600D02*
X109089108Y-116078000D01*
X96520000Y-105892600D02*
X98903708Y-105892600D01*
%TO.N,Net-(U1-Pad1)*%
X109245400Y-118269202D02*
X109245400Y-118364000D01*
X96520000Y-108432600D02*
X99364800Y-108432600D01*
X99364800Y-108432600D02*
X109524800Y-118592600D01*
%TO.N,Net-(J4-Pad2)*%
X119287001Y-136051001D02*
X117043200Y-133807200D01*
X133188999Y-136051001D02*
X119287001Y-136051001D01*
X134874000Y-134366000D02*
X133188999Y-136051001D01*
%TO.N,Net-(J5-Pad2)*%
X132384800Y-131267200D02*
X134874000Y-128778000D01*
X117043200Y-131267200D02*
X132384800Y-131267200D01*
%TO.N,Net-(J6-Pad2)*%
X128536801Y-129527199D02*
X134874000Y-123190000D01*
X117843199Y-129527199D02*
X128536801Y-129527199D01*
X117043200Y-128727200D02*
X117843199Y-129527199D01*
%TO.N,Net-(J7-Pad2)*%
X140182600Y-118338600D02*
X133096000Y-111252000D01*
X143865600Y-118338600D02*
X140182600Y-118338600D01*
%TO.N,Net-(J7-Pad1)*%
X140182600Y-115798600D02*
X135636000Y-111252000D01*
X143865600Y-115798600D02*
X140182600Y-115798600D01*
%TO.N,Net-(J8-Pad6)*%
X118586200Y-55905400D02*
X118586200Y-62061040D01*
X118586200Y-62061040D02*
X123911360Y-67386200D01*
%TO.N,Net-(J8-Pad5)*%
X123586200Y-55905400D02*
X123586200Y-62229960D01*
X123586200Y-62229960D02*
X128656080Y-67299840D01*
%TO.N,Net-(J8-Pad2)*%
X138586200Y-55905400D02*
X138586200Y-62449720D01*
X138586200Y-62449720D02*
X133482080Y-67553840D01*
%TD*%
M02*
