M48
; DRILL file {KiCad (5.1.9)-1} date 01/19/21 10:58:19
; FORMAT={-:-/ absolute / inch / decimal}
; #@! TF.CreationDate,2021-01-19T10:58:19-06:00
; #@! TF.GenerationSoftware,Kicad,Pcbnew,(5.1.9)-1
; #@! TF.FileFunction,Plated,1,2,PTH
FMAT,2
INCH
T1C0.0315
T2C0.0320
T3C0.0350
T4C0.0354
T5C0.0394
T6C0.0492
T7C0.0512
T8C0.0591
%
G90
G05
T1
X3.5956Y-3.295
X3.64Y-4.6039
X3.64Y-5.0039
X3.694Y-3.295
X3.84Y-4.6039
X3.84Y-5.0039
X4.14Y-4.7716
X4.14Y-4.87
X4.308Y-3.968
X4.308Y-4.068
X4.308Y-4.168
X4.308Y-4.268
X4.308Y-4.368
X4.308Y-4.468
X4.308Y-4.568
X4.308Y-4.668
X4.308Y-4.768
X4.308Y-4.868
X4.308Y-4.968
X4.308Y-5.068
X4.308Y-5.168
X4.308Y-5.268
X4.331Y-2.9176
X4.331Y-3.016
X4.461Y-2.636
X4.5594Y-2.636
X4.608Y-3.968
X4.608Y-4.068
X4.608Y-4.168
X4.608Y-4.268
X4.608Y-4.368
X4.608Y-4.468
X4.608Y-4.568
X4.608Y-4.668
X4.608Y-4.768
X4.608Y-4.868
X4.608Y-4.968
X4.608Y-5.068
X4.608Y-5.168
X4.608Y-5.268
X4.8752Y-2.6562
X4.8752Y-3.0562
X4.998Y-3.297
X4.998Y-3.697
X5.0685Y-2.6562
X5.0685Y-3.0562
X5.154Y-3.297
X5.154Y-3.697
X5.2618Y-2.6562
X5.2618Y-3.0562
X5.4124Y-3.033
X5.4376Y-3.644
X5.5108Y-3.033
X5.536Y-3.644
T2
X3.5Y-3.469
X3.5Y-3.569
X3.5Y-3.669
X3.5Y-3.769
X3.5Y-3.869
X3.5Y-3.969
X3.5Y-4.069
X3.5Y-4.169
X3.5Y-4.269
X3.8Y-3.469
X3.8Y-3.569
X3.8Y-3.669
X3.8Y-3.769
X3.8Y-3.869
X3.8Y-3.969
X3.8Y-4.069
X3.8Y-4.169
X3.8Y-4.269
T3
X4.4644Y-2.816
X4.4644Y-2.916
X4.4644Y-3.016
T4
X3.7Y-5.21
X3.8Y-5.21
T5
X3.56Y-2.841
X3.56Y-3.0379
X3.993Y-2.844
X3.993Y-3.0409
X4.335Y-3.2
X4.335Y-3.8
X4.435Y-3.2
X4.435Y-3.8
X4.535Y-3.2
X4.535Y-3.8
X4.635Y-3.2
X4.635Y-3.8
X4.735Y-3.2
X4.735Y-3.8
X4.79Y-4.93
X4.79Y-5.03
X4.835Y-3.2
X4.835Y-3.8
X4.935Y-3.2
X4.935Y-3.8
X4.948Y-3.994
X4.948Y-4.094
X4.948Y-4.194
X4.948Y-4.294
X4.948Y-4.394
X4.948Y-4.494
X4.948Y-4.594
X4.948Y-4.694
X4.948Y-4.794
X4.948Y-4.894
X5.035Y-3.2
X5.035Y-3.8
X5.135Y-3.2
X5.135Y-3.8
X5.21Y-4.85
X5.21Y-5.07
X5.21Y-5.29
X5.235Y-3.2
X5.235Y-3.8
X5.24Y-3.98
X5.24Y-4.38
X5.31Y-4.85
X5.31Y-5.07
X5.31Y-5.29
X5.335Y-3.2
X5.335Y-3.8
X5.34Y-3.98
X5.34Y-4.38
X5.41Y-4.85
X5.41Y-5.07
X5.41Y-5.29
X5.435Y-3.2
X5.435Y-3.8
X5.44Y-3.98
X5.44Y-4.38
X5.535Y-3.2
X5.535Y-3.8
X5.54Y-3.98
X5.54Y-4.38
X5.635Y-3.2
X5.635Y-3.8
X5.64Y-3.98
X5.64Y-4.38
X5.664Y-4.559
X5.664Y-4.659
X5.664Y-4.759
X5.664Y-4.859
X5.735Y-3.2
X5.735Y-3.8
X5.74Y-3.98
X5.74Y-4.38
T6
X3.544Y-2.609
X4.144Y-2.609
T7
X2.198Y-2.4592
X2.198Y-2.6561
X2.198Y-2.8529
X2.198Y-3.0498
X2.198Y-3.2466
X2.198Y-3.4435
X2.198Y-3.6403
X2.198Y-3.8372
X2.198Y-4.034
X2.198Y-4.2309
X2.198Y-4.4277
X2.198Y-4.6246
X2.198Y-4.8214
X2.198Y-5.0183
X3.4876Y-2.201
X3.6845Y-2.201
X3.8813Y-2.201
X4.0782Y-2.201
X4.275Y-2.201
X4.4719Y-2.201
X4.6687Y-2.201
X4.8656Y-2.201
X5.0624Y-2.201
X5.2593Y-2.201
X5.4561Y-2.201
X5.653Y-2.201
T8
X2.5804Y-2.3274
X2.5804Y-2.7618
X2.5804Y-3.1962
X2.5804Y-3.6305
X2.5804Y-4.0649
X2.5804Y-4.4993
X2.5804Y-4.9337
X2.5804Y-5.3681
X2.7773Y-2.1108
X2.7773Y-2.5452
X2.7773Y-2.9796
X2.7773Y-3.414
X2.7773Y-3.8484
X2.7773Y-4.2828
X2.7773Y-4.7172
X2.7773Y-5.1516
X2.9741Y-2.3274
X2.9741Y-2.7618
X2.9741Y-3.1962
X2.9741Y-3.6305
X2.9741Y-4.0649
X2.9741Y-4.4993
X2.9741Y-4.9337
X2.9741Y-5.3681
X3.171Y-2.1108
X3.171Y-2.3274
X3.171Y-2.5452
X3.171Y-2.7618
X3.171Y-2.9796
X3.171Y-3.1962
X3.171Y-3.414
X3.171Y-3.6305
X3.171Y-3.8484
X3.171Y-4.0649
X3.171Y-4.2828
X3.171Y-4.4993
X3.171Y-4.7172
X3.171Y-4.9337
X3.171Y-5.1516
X3.171Y-5.3681
T0
M30
